<mxfile host="app.diagrams.net" modified="2021-10-26T03:42:34.902Z" agent="5.0 (Windows NT 10.0; Win64; x64) AppleWebKit/537.36 (KHTML, like Gecko) Chrome/95.0.4638.54 Safari/537.36 Edg/95.0.1020.30" etag="Cy-skEZdN7hesBBHNkdq" version="15.5.9" type="github" pages="2">
  <diagram id="H-FVpUiSTPM4Va0HzyG1" name="Page-1">
    <mxGraphModel dx="2881" dy="2234" grid="1" gridSize="10" guides="1" tooltips="1" connect="1" arrows="1" fold="1" page="1" pageScale="1" pageWidth="850" pageHeight="1100" math="0" shadow="0">
      <root>
        <mxCell id="0" />
        <mxCell id="1" parent="0" />
        <mxCell id="GoqarWJMvIRxIr3ExFKV-2" value="" style="group" parent="1" vertex="1" connectable="0">
          <mxGeometry x="126" y="-330" width="1514" height="130" as="geometry" />
        </mxCell>
        <mxCell id="jx55laV_0cBN-u7AzkEs-3" value="AWS Lake Formation" style="sketch=0;points=[[0,0,0],[0.25,0,0],[0.5,0,0],[0.75,0,0],[1,0,0],[0,1,0],[0.25,1,0],[0.5,1,0],[0.75,1,0],[1,1,0],[0,0.25,0],[0,0.5,0],[0,0.75,0],[1,0.25,0],[1,0.5,0],[1,0.75,0]];outlineConnect=0;fontColor=#232F3E;gradientColor=#945DF2;gradientDirection=north;fillColor=#5A30B5;strokeColor=#ffffff;dashed=0;verticalLabelPosition=bottom;verticalAlign=top;align=center;html=1;fontSize=12;fontStyle=0;aspect=fixed;shape=mxgraph.aws4.resourceIcon;resIcon=mxgraph.aws4.lake_formation;" parent="GoqarWJMvIRxIr3ExFKV-2" vertex="1">
          <mxGeometry x="441.58333333333337" y="26" width="78" height="78" as="geometry" />
        </mxCell>
        <mxCell id="jx55laV_0cBN-u7AzkEs-4" value="AWS CloudWatch" style="sketch=0;points=[[0,0,0],[0.25,0,0],[0.5,0,0],[0.75,0,0],[1,0,0],[0,1,0],[0.25,1,0],[0.5,1,0],[0.75,1,0],[1,1,0],[0,0.25,0],[0,0.5,0],[0,0.75,0],[1,0.25,0],[1,0.5,0],[1,0.75,0]];points=[[0,0,0],[0.25,0,0],[0.5,0,0],[0.75,0,0],[1,0,0],[0,1,0],[0.25,1,0],[0.5,1,0],[0.75,1,0],[1,1,0],[0,0.25,0],[0,0.5,0],[0,0.75,0],[1,0.25,0],[1,0.5,0],[1,0.75,0]];outlineConnect=0;fontColor=#232F3E;gradientColor=#F34482;gradientDirection=north;fillColor=#BC1356;strokeColor=#ffffff;dashed=0;verticalLabelPosition=bottom;verticalAlign=top;align=center;html=1;fontSize=12;fontStyle=0;aspect=fixed;shape=mxgraph.aws4.resourceIcon;resIcon=mxgraph.aws4.cloudwatch_2;" parent="GoqarWJMvIRxIr3ExFKV-2" vertex="1">
          <mxGeometry x="63.083333333333336" y="26" width="78" height="78" as="geometry" />
        </mxCell>
        <mxCell id="jx55laV_0cBN-u7AzkEs-7" value="AWS CloudTrail" style="sketch=0;points=[[0,0,0],[0.25,0,0],[0.5,0,0],[0.75,0,0],[1,0,0],[0,1,0],[0.25,1,0],[0.5,1,0],[0.75,1,0],[1,1,0],[0,0.25,0],[0,0.5,0],[0,0.75,0],[1,0.25,0],[1,0.5,0],[1,0.75,0]];points=[[0,0,0],[0.25,0,0],[0.5,0,0],[0.75,0,0],[1,0,0],[0,1,0],[0.25,1,0],[0.5,1,0],[0.75,1,0],[1,1,0],[0,0.25,0],[0,0.5,0],[0,0.75,0],[1,0.25,0],[1,0.5,0],[1,0.75,0]];outlineConnect=0;fontColor=#232F3E;gradientColor=#F34482;gradientDirection=north;fillColor=#BC1356;strokeColor=#ffffff;dashed=0;verticalLabelPosition=bottom;verticalAlign=top;align=center;html=1;fontSize=12;fontStyle=0;aspect=fixed;shape=mxgraph.aws4.resourceIcon;resIcon=mxgraph.aws4.cloudtrail;" parent="GoqarWJMvIRxIr3ExFKV-2" vertex="1">
          <mxGeometry x="820.0833333333334" y="26" width="78" height="78" as="geometry" />
        </mxCell>
        <mxCell id="jx55laV_0cBN-u7AzkEs-8" value="AWS Lambda" style="sketch=0;points=[[0,0,0],[0.25,0,0],[0.5,0,0],[0.75,0,0],[1,0,0],[0,1,0],[0.25,1,0],[0.5,1,0],[0.75,1,0],[1,1,0],[0,0.25,0],[0,0.5,0],[0,0.75,0],[1,0.25,0],[1,0.5,0],[1,0.75,0]];outlineConnect=0;fontColor=#232F3E;gradientColor=#F78E04;gradientDirection=north;fillColor=#D05C17;strokeColor=#ffffff;dashed=0;verticalLabelPosition=bottom;verticalAlign=top;align=center;html=1;fontSize=12;fontStyle=0;aspect=fixed;shape=mxgraph.aws4.resourceIcon;resIcon=mxgraph.aws4.lambda;" parent="GoqarWJMvIRxIr3ExFKV-2" vertex="1">
          <mxGeometry x="1198.5833333333333" y="26" width="78" height="78" as="geometry" />
        </mxCell>
        <mxCell id="GoqarWJMvIRxIr3ExFKV-1" value="GOVERNANCE &amp; SECURITY &amp; MONITORING" style="fillColor=none;strokeColor=#5A6C86;dashed=1;verticalAlign=top;fontStyle=1;fontColor=#5A6C86;" parent="GoqarWJMvIRxIr3ExFKV-2" vertex="1">
          <mxGeometry width="1514" height="130" as="geometry" />
        </mxCell>
        <mxCell id="GoqarWJMvIRxIr3ExFKV-8" value="AWS IAM" style="sketch=0;points=[[0,0,0],[0.25,0,0],[0.5,0,0],[0.75,0,0],[1,0,0],[0,1,0],[0.25,1,0],[0.5,1,0],[0.75,1,0],[1,1,0],[0,0.25,0],[0,0.5,0],[0,0.75,0],[1,0.25,0],[1,0.5,0],[1,0.75,0]];outlineConnect=0;fontColor=#232F3E;gradientColor=#F54749;gradientDirection=north;fillColor=#C7131F;strokeColor=#ffffff;dashed=0;verticalLabelPosition=bottom;verticalAlign=top;align=center;html=1;fontSize=12;fontStyle=0;aspect=fixed;shape=mxgraph.aws4.resourceIcon;resIcon=mxgraph.aws4.identity_and_access_management;" parent="GoqarWJMvIRxIr3ExFKV-2" vertex="1">
          <mxGeometry x="254" y="26" width="78" height="78" as="geometry" />
        </mxCell>
        <mxCell id="jx55laV_0cBN-u7AzkEs-1" value="AWS Cloud" style="points=[[0,0],[0.25,0],[0.5,0],[0.75,0],[1,0],[1,0.25],[1,0.5],[1,0.75],[1,1],[0.75,1],[0.5,1],[0.25,1],[0,1],[0,0.75],[0,0.5],[0,0.25]];outlineConnect=0;gradientColor=none;html=1;whiteSpace=wrap;fontSize=12;fontStyle=0;shape=mxgraph.aws4.group;grIcon=mxgraph.aws4.group_aws_cloud_alt;strokeColor=#232F3E;fillColor=none;verticalAlign=top;align=left;spacingLeft=30;fontColor=#232F3E;dashed=0;" parent="1" vertex="1">
          <mxGeometry x="50" y="-550" width="1690" height="1190" as="geometry" />
        </mxCell>
        <mxCell id="GoqarWJMvIRxIr3ExFKV-6" value="" style="group" parent="1" vertex="1" connectable="0">
          <mxGeometry x="300" y="-160" width="780" height="130" as="geometry" />
        </mxCell>
        <mxCell id="GoqarWJMvIRxIr3ExFKV-3" value="PROCESSING &amp; CATALOGING" style="fillColor=none;strokeColor=#5A6C86;dashed=1;verticalAlign=top;fontStyle=1;fontColor=#5A6C86;" parent="GoqarWJMvIRxIr3ExFKV-6" vertex="1">
          <mxGeometry x="4.883013698630138" width="775.1169863013698" height="130" as="geometry" />
        </mxCell>
        <mxCell id="GoqarWJMvIRxIr3ExFKV-4" value="&lt;b&gt;Glue Crawler&lt;/b&gt;" style="sketch=0;outlineConnect=0;fontColor=#232F3E;gradientColor=none;fillColor=#A166FF;strokeColor=none;dashed=0;verticalLabelPosition=bottom;verticalAlign=top;align=center;html=1;fontSize=12;fontStyle=0;aspect=fixed;pointerEvents=1;shape=mxgraph.aws4.glue_crawlers;" parent="GoqarWJMvIRxIr3ExFKV-6" vertex="1">
          <mxGeometry x="472.0032319068979" y="26" width="78" height="78" as="geometry" />
        </mxCell>
        <mxCell id="GoqarWJMvIRxIr3ExFKV-5" value="&lt;b&gt;Glue Catalog&lt;/b&gt;" style="sketch=0;outlineConnect=0;fontColor=#232F3E;gradientColor=none;fillColor=#A166FF;strokeColor=none;dashed=0;verticalLabelPosition=bottom;verticalAlign=top;align=center;html=1;fontSize=12;fontStyle=0;aspect=fixed;pointerEvents=1;shape=mxgraph.aws4.glue_data_catalog;" parent="GoqarWJMvIRxIr3ExFKV-6" vertex="1">
          <mxGeometry x="340.0013068250698" y="26" width="72" height="78" as="geometry" />
        </mxCell>
        <mxCell id="tE3PKXoQsudhYKrV5WxO-5" value="&lt;b&gt;AWS Glue&lt;/b&gt;" style="sketch=0;points=[[0,0,0],[0.25,0,0],[0.5,0,0],[0.75,0,0],[1,0,0],[0,1,0],[0.25,1,0],[0.5,1,0],[0.75,1,0],[1,1,0],[0,0.25,0],[0,0.5,0],[0,0.75,0],[1,0.25,0],[1,0.5,0],[1,0.75,0]];outlineConnect=0;fontColor=#232F3E;gradientColor=#945DF2;gradientDirection=north;fillColor=#5A30B5;strokeColor=#ffffff;dashed=0;verticalLabelPosition=bottom;verticalAlign=top;align=center;html=1;fontSize=12;fontStyle=0;aspect=fixed;shape=mxgraph.aws4.resourceIcon;resIcon=mxgraph.aws4.glue;" vertex="1" parent="GoqarWJMvIRxIr3ExFKV-6">
          <mxGeometry x="199.99917808219178" y="26" width="78" height="78" as="geometry" />
        </mxCell>
        <mxCell id="GoqarWJMvIRxIr3ExFKV-53" value="" style="edgeStyle=orthogonalEdgeStyle;rounded=0;orthogonalLoop=1;jettySize=auto;html=1;verticalAlign=middle;" parent="1" source="GoqarWJMvIRxIr3ExFKV-16" target="GoqarWJMvIRxIr3ExFKV-27" edge="1">
          <mxGeometry relative="1" as="geometry">
            <Array as="points">
              <mxPoint x="280" y="295" />
              <mxPoint x="280" y="295" />
            </Array>
          </mxGeometry>
        </mxCell>
        <mxCell id="GoqarWJMvIRxIr3ExFKV-16" value="INGESTION" style="fillColor=none;strokeColor=#5A6C86;dashed=1;verticalAlign=top;fontStyle=1;fontColor=#5A6C86;" parent="1" vertex="1">
          <mxGeometry x="70" y="40" width="180" height="460" as="geometry" />
        </mxCell>
        <mxCell id="GoqarWJMvIRxIr3ExFKV-55" value="" style="group" parent="1" vertex="1" connectable="0">
          <mxGeometry x="300" y="-10" width="780" height="560" as="geometry" />
        </mxCell>
        <mxCell id="GoqarWJMvIRxIr3ExFKV-17" value="STORAGE" style="fillColor=none;strokeColor=#5A6C86;dashed=1;verticalAlign=top;fontStyle=1;fontColor=#5A6C86;align=left;" parent="GoqarWJMvIRxIr3ExFKV-55" vertex="1">
          <mxGeometry width="780" height="560" as="geometry" />
        </mxCell>
        <mxCell id="GoqarWJMvIRxIr3ExFKV-18" value="PROCESSING WITH AWS GLUE" style="fillColor=none;strokeColor=#5A6C86;dashed=1;verticalAlign=top;fontStyle=1;fontColor=#5A6C86;" parent="GoqarWJMvIRxIr3ExFKV-55" vertex="1">
          <mxGeometry x="130" y="50" width="600" height="150" as="geometry" />
        </mxCell>
        <mxCell id="GoqarWJMvIRxIr3ExFKV-19" value="&lt;b&gt;ETL - Resolve&lt;br&gt;Staging Data&lt;/b&gt;" style="sketch=0;points=[[0,0,0],[0.25,0,0],[0.5,0,0],[0.75,0,0],[1,0,0],[0,1,0],[0.25,1,0],[0.5,1,0],[0.75,1,0],[1,1,0],[0,0.25,0],[0,0.5,0],[0,0.75,0],[1,0.25,0],[1,0.5,0],[1,0.75,0]];outlineConnect=0;fontColor=#232F3E;gradientColor=#945DF2;gradientDirection=north;fillColor=#5A30B5;strokeColor=#ffffff;dashed=0;verticalLabelPosition=bottom;verticalAlign=top;align=center;html=1;fontSize=12;fontStyle=0;aspect=fixed;shape=mxgraph.aws4.resourceIcon;resIcon=mxgraph.aws4.glue;" parent="GoqarWJMvIRxIr3ExFKV-55" vertex="1">
          <mxGeometry x="150" y="76" width="78" height="78" as="geometry" />
        </mxCell>
        <mxCell id="GoqarWJMvIRxIr3ExFKV-20" value="&lt;b&gt;ETL&lt;br&gt;Cleaning / Deduplication&lt;/b&gt;" style="sketch=0;points=[[0,0,0],[0.25,0,0],[0.5,0,0],[0.75,0,0],[1,0,0],[0,1,0],[0.25,1,0],[0.5,1,0],[0.75,1,0],[1,1,0],[0,0.25,0],[0,0.5,0],[0,0.75,0],[1,0.25,0],[1,0.5,0],[1,0.75,0]];outlineConnect=0;fontColor=#232F3E;gradientColor=#945DF2;gradientDirection=north;fillColor=#5A30B5;strokeColor=#ffffff;dashed=0;verticalLabelPosition=bottom;verticalAlign=top;align=center;html=1;fontSize=12;fontStyle=0;aspect=fixed;shape=mxgraph.aws4.resourceIcon;resIcon=mxgraph.aws4.glue;" parent="GoqarWJMvIRxIr3ExFKV-55" vertex="1">
          <mxGeometry x="312" y="76" width="78" height="78" as="geometry" />
        </mxCell>
        <mxCell id="GoqarWJMvIRxIr3ExFKV-21" value="&lt;b&gt;ETL&lt;br&gt;Transform&lt;/b&gt;" style="sketch=0;points=[[0,0,0],[0.25,0,0],[0.5,0,0],[0.75,0,0],[1,0,0],[0,1,0],[0.25,1,0],[0.5,1,0],[0.75,1,0],[1,1,0],[0,0.25,0],[0,0.5,0],[0,0.75,0],[1,0.25,0],[1,0.5,0],[1,0.75,0]];outlineConnect=0;fontColor=#232F3E;gradientColor=#945DF2;gradientDirection=north;fillColor=#5A30B5;strokeColor=#ffffff;dashed=0;verticalLabelPosition=bottom;verticalAlign=top;align=center;html=1;fontSize=12;fontStyle=0;aspect=fixed;shape=mxgraph.aws4.resourceIcon;resIcon=mxgraph.aws4.glue;" parent="GoqarWJMvIRxIr3ExFKV-55" vertex="1">
          <mxGeometry x="472" y="76" width="78" height="78" as="geometry" />
        </mxCell>
        <mxCell id="GoqarWJMvIRxIr3ExFKV-22" value="&lt;b&gt;ETL&lt;br&gt;Load&lt;/b&gt;" style="sketch=0;points=[[0,0,0],[0.25,0,0],[0.5,0,0],[0.75,0,0],[1,0,0],[0,1,0],[0.25,1,0],[0.5,1,0],[0.75,1,0],[1,1,0],[0,0.25,0],[0,0.5,0],[0,0.75,0],[1,0.25,0],[1,0.5,0],[1,0.75,0]];outlineConnect=0;fontColor=#232F3E;gradientColor=#945DF2;gradientDirection=north;fillColor=#5A30B5;strokeColor=#ffffff;dashed=0;verticalLabelPosition=bottom;verticalAlign=top;align=center;html=1;fontSize=12;fontStyle=0;aspect=fixed;shape=mxgraph.aws4.resourceIcon;resIcon=mxgraph.aws4.glue;" parent="GoqarWJMvIRxIr3ExFKV-55" vertex="1">
          <mxGeometry x="630" y="76" width="78" height="78" as="geometry" />
        </mxCell>
        <mxCell id="GoqarWJMvIRxIr3ExFKV-26" value="S3 MAIN STORAGE" style="fillColor=none;strokeColor=#5A6C86;dashed=1;verticalAlign=top;fontStyle=1;fontColor=#5A6C86;horizontal=1;" parent="GoqarWJMvIRxIr3ExFKV-55" vertex="1">
          <mxGeometry x="60" y="240" width="590" height="130" as="geometry" />
        </mxCell>
        <mxCell id="GoqarWJMvIRxIr3ExFKV-31" value="" style="edgeStyle=orthogonalEdgeStyle;rounded=0;orthogonalLoop=1;jettySize=auto;html=1;" parent="GoqarWJMvIRxIr3ExFKV-55" source="GoqarWJMvIRxIr3ExFKV-27" target="GoqarWJMvIRxIr3ExFKV-19" edge="1">
          <mxGeometry relative="1" as="geometry">
            <Array as="points">
              <mxPoint x="113" y="115" />
            </Array>
          </mxGeometry>
        </mxCell>
        <mxCell id="GoqarWJMvIRxIr3ExFKV-27" value="&lt;b&gt;Raw Zone&lt;/b&gt;" style="sketch=0;outlineConnect=0;fontColor=#232F3E;gradientColor=none;fillColor=#6CAE3E;strokeColor=none;dashed=0;verticalLabelPosition=bottom;verticalAlign=top;align=center;html=1;fontSize=12;fontStyle=0;aspect=fixed;pointerEvents=1;shape=mxgraph.aws4.bucket_with_objects;" parent="GoqarWJMvIRxIr3ExFKV-55" vertex="1">
          <mxGeometry x="75" y="266" width="75" height="78" as="geometry" />
        </mxCell>
        <mxCell id="GoqarWJMvIRxIr3ExFKV-33" value="" style="edgeStyle=orthogonalEdgeStyle;rounded=0;orthogonalLoop=1;jettySize=auto;html=1;entryX=0;entryY=0.5;entryDx=0;entryDy=0;entryPerimeter=0;" parent="GoqarWJMvIRxIr3ExFKV-55" source="GoqarWJMvIRxIr3ExFKV-28" target="GoqarWJMvIRxIr3ExFKV-20" edge="1">
          <mxGeometry relative="1" as="geometry">
            <Array as="points">
              <mxPoint x="270" y="115" />
            </Array>
          </mxGeometry>
        </mxCell>
        <mxCell id="GoqarWJMvIRxIr3ExFKV-28" value="&lt;b&gt;Staging Zone&lt;/b&gt;" style="sketch=0;outlineConnect=0;fontColor=#232F3E;gradientColor=none;fillColor=#6CAE3E;strokeColor=none;dashed=0;verticalLabelPosition=bottom;verticalAlign=top;align=center;html=1;fontSize=12;fontStyle=0;aspect=fixed;pointerEvents=1;shape=mxgraph.aws4.bucket_with_objects;" parent="GoqarWJMvIRxIr3ExFKV-55" vertex="1">
          <mxGeometry x="228" y="266" width="75" height="78" as="geometry" />
        </mxCell>
        <mxCell id="GoqarWJMvIRxIr3ExFKV-32" value="" style="edgeStyle=orthogonalEdgeStyle;rounded=0;orthogonalLoop=1;jettySize=auto;html=1;" parent="GoqarWJMvIRxIr3ExFKV-55" source="GoqarWJMvIRxIr3ExFKV-19" target="GoqarWJMvIRxIr3ExFKV-28" edge="1">
          <mxGeometry relative="1" as="geometry">
            <Array as="points">
              <mxPoint x="260" y="115" />
            </Array>
          </mxGeometry>
        </mxCell>
        <mxCell id="GoqarWJMvIRxIr3ExFKV-36" style="edgeStyle=orthogonalEdgeStyle;rounded=0;orthogonalLoop=1;jettySize=auto;html=1;" parent="GoqarWJMvIRxIr3ExFKV-55" source="GoqarWJMvIRxIr3ExFKV-29" target="GoqarWJMvIRxIr3ExFKV-21" edge="1">
          <mxGeometry relative="1" as="geometry">
            <Array as="points">
              <mxPoint x="440" y="115" />
            </Array>
          </mxGeometry>
        </mxCell>
        <mxCell id="GoqarWJMvIRxIr3ExFKV-29" value="&lt;b&gt;Master Zone&lt;/b&gt;" style="sketch=0;outlineConnect=0;fontColor=#232F3E;gradientColor=none;fillColor=#6CAE3E;strokeColor=none;dashed=0;verticalLabelPosition=bottom;verticalAlign=top;align=center;html=1;fontSize=12;fontStyle=0;aspect=fixed;pointerEvents=1;shape=mxgraph.aws4.bucket_with_objects;" parent="GoqarWJMvIRxIr3ExFKV-55" vertex="1">
          <mxGeometry x="396.5" y="266" width="75" height="78" as="geometry" />
        </mxCell>
        <mxCell id="GoqarWJMvIRxIr3ExFKV-34" style="edgeStyle=orthogonalEdgeStyle;rounded=0;orthogonalLoop=1;jettySize=auto;html=1;" parent="GoqarWJMvIRxIr3ExFKV-55" source="GoqarWJMvIRxIr3ExFKV-20" target="GoqarWJMvIRxIr3ExFKV-29" edge="1">
          <mxGeometry relative="1" as="geometry">
            <Array as="points">
              <mxPoint x="430" y="115" />
            </Array>
          </mxGeometry>
        </mxCell>
        <mxCell id="GoqarWJMvIRxIr3ExFKV-38" style="edgeStyle=orthogonalEdgeStyle;rounded=0;orthogonalLoop=1;jettySize=auto;html=1;" parent="GoqarWJMvIRxIr3ExFKV-55" source="GoqarWJMvIRxIr3ExFKV-30" target="GoqarWJMvIRxIr3ExFKV-22" edge="1">
          <mxGeometry relative="1" as="geometry">
            <Array as="points">
              <mxPoint x="600" y="115" />
            </Array>
          </mxGeometry>
        </mxCell>
        <mxCell id="GoqarWJMvIRxIr3ExFKV-30" value="&lt;b&gt;Conform Zone&lt;/b&gt;" style="sketch=0;outlineConnect=0;fontColor=#232F3E;gradientColor=none;fillColor=#6CAE3E;strokeColor=none;dashed=0;verticalLabelPosition=bottom;verticalAlign=top;align=center;html=1;fontSize=12;fontStyle=0;aspect=fixed;pointerEvents=1;shape=mxgraph.aws4.bucket_with_objects;" parent="GoqarWJMvIRxIr3ExFKV-55" vertex="1">
          <mxGeometry x="558" y="266" width="75" height="78" as="geometry" />
        </mxCell>
        <mxCell id="GoqarWJMvIRxIr3ExFKV-37" style="edgeStyle=orthogonalEdgeStyle;rounded=0;orthogonalLoop=1;jettySize=auto;html=1;" parent="GoqarWJMvIRxIr3ExFKV-55" source="GoqarWJMvIRxIr3ExFKV-21" target="GoqarWJMvIRxIr3ExFKV-30" edge="1">
          <mxGeometry relative="1" as="geometry">
            <Array as="points">
              <mxPoint x="590" y="115" />
            </Array>
          </mxGeometry>
        </mxCell>
        <mxCell id="GoqarWJMvIRxIr3ExFKV-39" value="&lt;b&gt;Audit ETL&lt;/b&gt;" style="sketch=0;points=[[0,0,0],[0.25,0,0],[0.5,0,0],[0.75,0,0],[1,0,0],[0,1,0],[0.25,1,0],[0.5,1,0],[0.75,1,0],[1,1,0],[0,0.25,0],[0,0.5,0],[0,0.75,0],[1,0.25,0],[1,0.5,0],[1,0.75,0]];outlineConnect=0;fontColor=#232F3E;gradientColor=#945DF2;gradientDirection=north;fillColor=#5A30B5;strokeColor=#ffffff;dashed=0;verticalLabelPosition=bottom;verticalAlign=top;align=center;html=1;fontSize=12;fontStyle=0;aspect=fixed;shape=mxgraph.aws4.resourceIcon;resIcon=mxgraph.aws4.glue;" parent="GoqarWJMvIRxIr3ExFKV-55" vertex="1">
          <mxGeometry x="386" y="440" width="78" height="78" as="geometry" />
        </mxCell>
        <mxCell id="GoqarWJMvIRxIr3ExFKV-52" style="edgeStyle=orthogonalEdgeStyle;rounded=0;orthogonalLoop=1;jettySize=auto;html=1;dashed=1;verticalAlign=middle;" parent="GoqarWJMvIRxIr3ExFKV-55" source="GoqarWJMvIRxIr3ExFKV-26" target="GoqarWJMvIRxIr3ExFKV-39" edge="1">
          <mxGeometry relative="1" as="geometry">
            <Array as="points">
              <mxPoint x="425" y="390" />
              <mxPoint x="425" y="390" />
            </Array>
          </mxGeometry>
        </mxCell>
        <mxCell id="GoqarWJMvIRxIr3ExFKV-41" value="&lt;b&gt;Audit Bucket&lt;/b&gt;" style="sketch=0;outlineConnect=0;fontColor=#232F3E;gradientColor=none;fillColor=#6CAE3E;strokeColor=none;dashed=0;verticalLabelPosition=bottom;verticalAlign=top;align=center;html=1;fontSize=12;fontStyle=0;aspect=fixed;pointerEvents=1;shape=mxgraph.aws4.bucket_with_objects;" parent="GoqarWJMvIRxIr3ExFKV-55" vertex="1">
          <mxGeometry x="555" y="440" width="75" height="78" as="geometry" />
        </mxCell>
        <mxCell id="GoqarWJMvIRxIr3ExFKV-42" value="" style="edgeStyle=orthogonalEdgeStyle;rounded=0;orthogonalLoop=1;jettySize=auto;html=1;" parent="GoqarWJMvIRxIr3ExFKV-55" source="GoqarWJMvIRxIr3ExFKV-39" target="GoqarWJMvIRxIr3ExFKV-41" edge="1">
          <mxGeometry relative="1" as="geometry" />
        </mxCell>
        <mxCell id="GoqarWJMvIRxIr3ExFKV-43" value="&lt;b&gt;ETL Development&lt;/b&gt;" style="sketch=0;outlineConnect=0;fontColor=#232F3E;gradientColor=none;fillColor=#6CAE3E;strokeColor=none;dashed=0;verticalLabelPosition=bottom;verticalAlign=top;align=center;html=1;fontSize=12;fontStyle=0;aspect=fixed;pointerEvents=1;shape=mxgraph.aws4.bucket_with_objects;" parent="GoqarWJMvIRxIr3ExFKV-55" vertex="1">
          <mxGeometry x="50" y="440" width="75" height="78" as="geometry" />
        </mxCell>
        <mxCell id="GoqarWJMvIRxIr3ExFKV-45" style="edgeStyle=orthogonalEdgeStyle;rounded=0;orthogonalLoop=1;jettySize=auto;html=1;" parent="GoqarWJMvIRxIr3ExFKV-55" source="GoqarWJMvIRxIr3ExFKV-26" target="GoqarWJMvIRxIr3ExFKV-43" edge="1">
          <mxGeometry relative="1" as="geometry">
            <Array as="points">
              <mxPoint x="88" y="400" />
              <mxPoint x="88" y="400" />
            </Array>
          </mxGeometry>
        </mxCell>
        <mxCell id="GoqarWJMvIRxIr3ExFKV-46" value="" style="edgeStyle=orthogonalEdgeStyle;rounded=0;orthogonalLoop=1;jettySize=auto;html=1;" parent="GoqarWJMvIRxIr3ExFKV-55" source="GoqarWJMvIRxIr3ExFKV-44" target="GoqarWJMvIRxIr3ExFKV-43" edge="1">
          <mxGeometry relative="1" as="geometry" />
        </mxCell>
        <mxCell id="GoqarWJMvIRxIr3ExFKV-44" value="&lt;b&gt;Dev Endpoint&lt;/b&gt;" style="sketch=0;points=[[0,0,0],[0.25,0,0],[0.5,0,0],[0.75,0,0],[1,0,0],[0,1,0],[0.25,1,0],[0.5,1,0],[0.75,1,0],[1,1,0],[0,0.25,0],[0,0.5,0],[0,0.75,0],[1,0.25,0],[1,0.5,0],[1,0.75,0]];outlineConnect=0;fontColor=#232F3E;gradientColor=#945DF2;gradientDirection=north;fillColor=#5A30B5;strokeColor=#ffffff;dashed=0;verticalLabelPosition=bottom;verticalAlign=top;align=center;html=1;fontSize=12;fontStyle=0;aspect=fixed;shape=mxgraph.aws4.resourceIcon;resIcon=mxgraph.aws4.glue;" parent="GoqarWJMvIRxIr3ExFKV-55" vertex="1">
          <mxGeometry x="200" y="440" width="78" height="78" as="geometry" />
        </mxCell>
        <mxCell id="vUv-sD3Ehbde42g3vvmg-17" style="edgeStyle=orthogonalEdgeStyle;rounded=0;orthogonalLoop=1;jettySize=auto;html=1;startArrow=none;startFill=0;endArrow=classicThin;endFill=1;" parent="GoqarWJMvIRxIr3ExFKV-55" target="GoqarWJMvIRxIr3ExFKV-27" edge="1">
          <mxGeometry relative="1" as="geometry">
            <Array as="points">
              <mxPoint x="100" y="200" />
            </Array>
            <mxPoint x="20" y="200" as="sourcePoint" />
          </mxGeometry>
        </mxCell>
        <mxCell id="Mk3qLuvfPS574IzLtiQY-3" value="MSK Connect" style="shape=image;imageAspect=0;aspect=fixed;verticalLabelPosition=bottom;verticalAlign=top;image=data:image/png,iVBORw0KGgoAAAANSUhEUgAAACgAAAAnCAYAAAB9qAq4AAAAAXNSR0IArs4c6QAAAARnQU1BAACxjwv8YQUAAAAJcEhZcwAADsMAAA7DAcdvqGQAAAapSURBVFhHzVj5UxVHEPZPTKUqqVQ845F4xRwao/GKMdFULE3FeCRoeKCIIoiioBKuAjWCioIoIOUFBIzxjhfXzpevt2fe7tu3+wDzg/ms4W13T/f09nb3zDjFGIPXGYL/QkdHVO7oDAcdM/oc5eXCZORxc6M838EwxqPDCGTxc5x8YjYUYVqeEyOYiw6gzx3VBo15QNsxwBsL5HE6UZ78uuFoB3me4nlemhAI7RRkxMkdRkcMKr81yJtqUPY5sGe6weGVHl79o/KwHUeH7UVpQdi+8KbY5/SEMMK8OHnHKeCXd4GBq0rfvwP8Nh1oPqD0eBjPvsB3MEnoEGdI/v6+FTi23ifTqPnJoOIbYGzUMiKIWyvX+pN2MIzmYqBwHjAyZBnEwU+B+h2WmCAm5GB0OL77jcoET+4C+xYAR1YbtFcaHGc+Fs41+KvHTrBI0nfPUXmYn9io3YToCJLY4NlDg/2LPRQtNCj6kM8LGdGPPDzoVbmb73QF0SJIGk4+qZ3ELSq/grrtBqlZBiOvAoPFi1jZG5WOznd2JjPSDgrCb2tMECm3gL690v1XgB1vAdcbVaYw6Gsz5Bv0nLYs8sZGqOsXjbMV2E9a30U63WaSIMYHrwGXjwJNu5Xn0d7BJUDlBqWjqPsZ2DsbGH6ldHe9FlM1q/7GWfJfKn8iiHVwhIZvnwdO54OJDzZf4NRmoLNW5c37gbz3YXMtG88eACk6WL9daQmQvOQf+2iPL1W0SF/2xjlg6IXOSUKMgwaDXVxgBpvuNKBhF9I7g+AeK3Tn20ALW0wuXDmhKXDnomVY9LYB+z/Whp7iuNVsBRbucztktRlxcIxbWPEnQMlSg73zDE7+YBhRlUnuXChznynIF6fvckdMnS9xBeSx9Rgc+cpg91QPVfwqh75gGsw3ePHY2Q1GGLEOyjhXpNEbuGZwlH0uNZvVucH4tM5RhHXTIySXufduGJziS6bmcK9ebtB7yaCF22Etc9Wt53SjSH/i8AKiMNjFKC7RZxnXT3ML+9rw0xhUbwk7Ku4EuvLP8SVqDTsM8mfQMUbvWo1EWGWHlhnmoNW3ui76YcQWiQ8qHFqmiezgjcFvH6XLgfyZBjU/Mvk7rTCEv29KgTBiH+jW11mnhecgOvsWaPsZD1kOurcRXCgFGm1rOVtI55rkiXk1ZPxFS5cCBaxWaR8P+3Tra9hpUMBPWULH2iuZq899dfRd1pQR/RbmZtMenz0ukiNIDNl+dZdVvZtt5XyJ0g5ySJBqLWXCF8xhr5vLiLG4pGcOWcccrlYDv77Hqm1ROipPQoaD4WrUKGrOSP4cXiE83UnCcj+irNTK9ZyzzMPQs4Dv5rrnqo0eDjCvh/3KDuy44dYPI7FIFMY/xufxzSXhw0Z9qf0V1PMcWMUiUt1sufAeDxrsmSYdwvEDubObqRNxMIqn99hQZwJnUkJly8Oo3coorrVELFT/0hH91Pdv+WQI8fazcvBuNxfbxtPyFqBsBZv1Z5kVmIRaFkrlGkvkgMShfBUbNe8w0gVqqNfH3SUJGQ72t2vEylfrggVM+op1VjgOarlY7ggGqObLyzryK1cG2fZ6zlhhBNZBfnv+K+ONTE7Fo8Ma7pst2stay7Vx97V5/nFKh7QOgz/9C5Ohg/zEa7SIBru5W7CtpOdZnYFOz7+i5vMMKW3KX5dL1W7jYZfFMzIUFKEv5W/awbFROsPrY1e9CHWC/B7gySPFY7zsKkWLw0ObrXwumec7uFZ1T3zPPXw+Ty12ntMRG4U8eRfSQYX+9l3h1fUdg5dPVD/GQYFB6ZesxE16WBDcvsCtjZ+i9bDuyb2MmBsSmX4a7u/wp9oI6gISbUmX/naNpA6JtkHHSd0uuxpES9ep4yWrmC8gG0AOB9WQXL4r1hnUcyNPsflWbbLCNNSIbHvPHylHEOSgyl8+5cV+WOgoaJvbYP4saU3U+Y6bAI913Y1WSqecg4Ks/5sZ4MFSqus4k1eOVe6+EcX92zwu8UYn0RKEi+RRv8rkWqAOZ0KO/23HuQbvz9WbDe60WkEMMi9N9u0Do/qcMSc9D/7ppJDnxRfMnaZdPFKxwCSXJTdby2WGzo3qR+27kTmHHP76nzjMFJDy/zpkyf1npS9zpylfxWJZydMPe1sFI9/s7xS59SdKZ+RgdFIUSfKLLCLpZZL8ZwosM+Sgw+vYz3BQEKcYRpL8LLfDBlYj391y4jFZ+2kHnUB+44yMJ5fmrlvi6+knybMi+H9Dukjib2bBW70pecYnDg/Hc3gzcoN/AaA1XPN+bJSNAAAAAElFTkSuQmCC;fontStyle=1" parent="GoqarWJMvIRxIr3ExFKV-55" vertex="1">
          <mxGeometry x="-20" y="180" width="40" height="39" as="geometry" />
        </mxCell>
        <mxCell id="GoqarWJMvIRxIr3ExFKV-58" value="AWS Direct Connect" style="sketch=0;points=[[0,0,0],[0.25,0,0],[0.5,0,0],[0.75,0,0],[1,0,0],[0,1,0],[0.25,1,0],[0.5,1,0],[0.75,1,0],[1,1,0],[0,0.25,0],[0,0.5,0],[0,0.75,0],[1,0.25,0],[1,0.5,0],[1,0.75,0]];outlineConnect=0;fontColor=#232F3E;gradientColor=#945DF2;gradientDirection=north;fillColor=#5A30B5;strokeColor=#ffffff;dashed=0;verticalLabelPosition=bottom;verticalAlign=top;align=center;html=1;fontSize=12;fontStyle=0;aspect=fixed;shape=mxgraph.aws4.resourceIcon;resIcon=mxgraph.aws4.direct_connect;" parent="1" vertex="1">
          <mxGeometry x="-97" y="153" width="78" height="78" as="geometry" />
        </mxCell>
        <mxCell id="GoqarWJMvIRxIr3ExFKV-61" value="AWS DataSync&lt;br&gt;&lt;b&gt;Files Ingestion&lt;/b&gt;" style="sketch=0;points=[[0,0,0],[0.25,0,0],[0.5,0,0],[0.75,0,0],[1,0,0],[0,1,0],[0.25,1,0],[0.5,1,0],[0.75,1,0],[1,1,0],[0,0.25,0],[0,0.5,0],[0,0.75,0],[1,0.25,0],[1,0.5,0],[1,0.75,0]];outlineConnect=0;fontColor=#232F3E;gradientColor=#4AB29A;gradientDirection=north;fillColor=#116D5B;strokeColor=#ffffff;dashed=0;verticalLabelPosition=bottom;verticalAlign=top;align=center;html=1;fontSize=12;fontStyle=0;aspect=fixed;shape=mxgraph.aws4.resourceIcon;resIcon=mxgraph.aws4.datasync;" parent="1" vertex="1">
          <mxGeometry x="124" y="223" width="78" height="78" as="geometry" />
        </mxCell>
        <mxCell id="GoqarWJMvIRxIr3ExFKV-62" value="AWS Kinesis&lt;br&gt;&lt;b&gt;Streaming Data&lt;/b&gt;" style="sketch=0;points=[[0,0,0],[0.25,0,0],[0.5,0,0],[0.75,0,0],[1,0,0],[0,1,0],[0.25,1,0],[0.5,1,0],[0.75,1,0],[1,1,0],[0,0.25,0],[0,0.5,0],[0,0.75,0],[1,0.25,0],[1,0.5,0],[1,0.75,0]];outlineConnect=0;fontColor=#232F3E;gradientColor=#945DF2;gradientDirection=north;fillColor=#5A30B5;strokeColor=#ffffff;dashed=0;verticalLabelPosition=bottom;verticalAlign=top;align=center;html=1;fontSize=12;fontStyle=0;aspect=fixed;shape=mxgraph.aws4.resourceIcon;resIcon=mxgraph.aws4.kinesis_data_streams;" parent="1" vertex="1">
          <mxGeometry x="126" y="362" width="78" height="78" as="geometry" />
        </mxCell>
        <mxCell id="GoqarWJMvIRxIr3ExFKV-64" style="edgeStyle=orthogonalEdgeStyle;rounded=0;orthogonalLoop=1;jettySize=auto;html=1;verticalAlign=middle;" parent="1" source="GoqarWJMvIRxIr3ExFKV-63" target="GoqarWJMvIRxIr3ExFKV-62" edge="1">
          <mxGeometry relative="1" as="geometry" />
        </mxCell>
        <mxCell id="GoqarWJMvIRxIr3ExFKV-63" value="&lt;font style=&quot;font-size: 14px&quot;&gt;&lt;b&gt;Streaming Sources&lt;/b&gt;&lt;/font&gt;" style="rounded=0;whiteSpace=wrap;html=1;align=center;" parent="1" vertex="1">
          <mxGeometry x="-420" y="380" width="160" height="43" as="geometry" />
        </mxCell>
        <mxCell id="GoqarWJMvIRxIr3ExFKV-70" style="edgeStyle=orthogonalEdgeStyle;rounded=0;orthogonalLoop=1;jettySize=auto;html=1;fontSize=14;verticalAlign=middle;" parent="1" source="GoqarWJMvIRxIr3ExFKV-67" target="GoqarWJMvIRxIr3ExFKV-61" edge="1">
          <mxGeometry relative="1" as="geometry" />
        </mxCell>
        <mxCell id="GoqarWJMvIRxIr3ExFKV-71" value="Scheduled Replication" style="edgeLabel;html=1;align=center;verticalAlign=middle;resizable=0;points=[];fontSize=14;" parent="GoqarWJMvIRxIr3ExFKV-70" vertex="1" connectable="0">
          <mxGeometry x="-0.6504" y="3" relative="1" as="geometry">
            <mxPoint x="108" y="3" as="offset" />
          </mxGeometry>
        </mxCell>
        <mxCell id="GoqarWJMvIRxIr3ExFKV-81" style="edgeStyle=orthogonalEdgeStyle;rounded=0;orthogonalLoop=1;jettySize=auto;html=1;dashed=1;fontSize=14;verticalAlign=middle;" parent="1" source="GoqarWJMvIRxIr3ExFKV-73" target="GoqarWJMvIRxIr3ExFKV-30" edge="1">
          <mxGeometry relative="1" as="geometry">
            <Array as="points">
              <mxPoint x="1070" y="295" />
              <mxPoint x="1070" y="295" />
            </Array>
          </mxGeometry>
        </mxCell>
        <mxCell id="GoqarWJMvIRxIr3ExFKV-82" value="Adhoc query" style="edgeLabel;html=1;align=center;verticalAlign=middle;resizable=0;points=[];fontSize=14;" parent="GoqarWJMvIRxIr3ExFKV-81" vertex="1" connectable="0">
          <mxGeometry x="0.0202" relative="1" as="geometry">
            <mxPoint as="offset" />
          </mxGeometry>
        </mxCell>
        <mxCell id="GoqarWJMvIRxIr3ExFKV-77" value="&lt;b&gt;Archive&lt;/b&gt;" style="sketch=0;outlineConnect=0;fontColor=#232F3E;gradientColor=none;fillColor=#6CAE3E;strokeColor=none;dashed=0;verticalLabelPosition=bottom;verticalAlign=top;align=center;html=1;fontSize=12;fontStyle=0;aspect=fixed;pointerEvents=1;shape=mxgraph.aws4.bucket_with_objects;" parent="1" vertex="1">
          <mxGeometry x="1141" y="540" width="75" height="78" as="geometry" />
        </mxCell>
        <mxCell id="GoqarWJMvIRxIr3ExFKV-94" style="edgeStyle=orthogonalEdgeStyle;rounded=0;orthogonalLoop=1;jettySize=auto;html=1;fontSize=14;verticalAlign=middle;" parent="1" source="GoqarWJMvIRxIr3ExFKV-22" target="GoqarWJMvIRxIr3ExFKV-73" edge="1">
          <mxGeometry relative="1" as="geometry">
            <Array as="points">
              <mxPoint x="1170" y="105" />
            </Array>
          </mxGeometry>
        </mxCell>
        <mxCell id="GoqarWJMvIRxIr3ExFKV-95" value="" style="group" parent="1" vertex="1" connectable="0">
          <mxGeometry x="-506" y="55" width="350" height="305" as="geometry" />
        </mxCell>
        <mxCell id="GoqarWJMvIRxIr3ExFKV-57" value="&lt;b&gt;OCB Data Center&lt;/b&gt;" style="points=[[0,0],[0.25,0],[0.5,0],[0.75,0],[1,0],[1,0.25],[1,0.5],[1,0.75],[1,1],[0.75,1],[0.5,1],[0.25,1],[0,1],[0,0.75],[0,0.5],[0,0.25]];outlineConnect=0;gradientColor=none;html=1;whiteSpace=wrap;fontSize=12;fontStyle=0;shape=mxgraph.aws4.group;grIcon=mxgraph.aws4.group_corporate_data_center;strokeColor=#5A6C86;fillColor=none;verticalAlign=top;align=left;spacingLeft=30;fontColor=#5A6C86;dashed=0;" parent="GoqarWJMvIRxIr3ExFKV-95" vertex="1">
          <mxGeometry y="-30" width="350" height="320" as="geometry" />
        </mxCell>
        <mxCell id="vUv-sD3Ehbde42g3vvmg-10" value="" style="edgeStyle=orthogonalEdgeStyle;rounded=0;orthogonalLoop=1;jettySize=auto;html=1;" parent="GoqarWJMvIRxIr3ExFKV-95" source="GoqarWJMvIRxIr3ExFKV-60" target="vUv-sD3Ehbde42g3vvmg-2" edge="1">
          <mxGeometry relative="1" as="geometry" />
        </mxCell>
        <mxCell id="vUv-sD3Ehbde42g3vvmg-11" value="&lt;b&gt;JDBC/CDC&lt;br&gt;Connector&lt;/b&gt;" style="edgeLabel;html=1;align=center;verticalAlign=middle;resizable=0;points=[];" parent="vUv-sD3Ehbde42g3vvmg-10" vertex="1" connectable="0">
          <mxGeometry x="0.1422" y="-2" relative="1" as="geometry">
            <mxPoint x="-9" y="12" as="offset" />
          </mxGeometry>
        </mxCell>
        <mxCell id="GoqarWJMvIRxIr3ExFKV-60" value="Oracle DB" style="outlineConnect=0;dashed=0;verticalLabelPosition=bottom;verticalAlign=top;align=center;html=1;shape=mxgraph.aws3.oracle_db_instance_2;fillColor=#2E73B8;gradientColor=none;" parent="GoqarWJMvIRxIr3ExFKV-95" vertex="1">
          <mxGeometry x="22" y="53.5" width="60" height="63" as="geometry" />
        </mxCell>
        <mxCell id="GoqarWJMvIRxIr3ExFKV-67" value="DataSync Agent" style="sketch=0;outlineConnect=0;fontColor=#232F3E;gradientColor=none;fillColor=#56C0A7;strokeColor=none;dashed=0;verticalLabelPosition=bottom;verticalAlign=top;align=center;html=1;fontSize=12;fontStyle=0;aspect=fixed;shape=mxgraph.aws4.agent2;" parent="GoqarWJMvIRxIr3ExFKV-95" vertex="1">
          <mxGeometry x="201" y="168" width="78" height="78" as="geometry" />
        </mxCell>
        <mxCell id="GoqarWJMvIRxIr3ExFKV-69" value="" style="edgeStyle=orthogonalEdgeStyle;rounded=0;orthogonalLoop=1;jettySize=auto;html=1;verticalAlign=middle;" parent="GoqarWJMvIRxIr3ExFKV-95" source="GoqarWJMvIRxIr3ExFKV-68" target="GoqarWJMvIRxIr3ExFKV-67" edge="1">
          <mxGeometry relative="1" as="geometry" />
        </mxCell>
        <mxCell id="GoqarWJMvIRxIr3ExFKV-68" value="Files System" style="sketch=0;outlineConnect=0;fontColor=#232F3E;gradientColor=none;fillColor=#6CAE3E;strokeColor=none;dashed=0;verticalLabelPosition=bottom;verticalAlign=top;align=center;html=1;fontSize=12;fontStyle=0;aspect=fixed;pointerEvents=1;shape=mxgraph.aws4.file_system;" parent="GoqarWJMvIRxIr3ExFKV-95" vertex="1">
          <mxGeometry x="22" y="170.5" width="78" height="73" as="geometry" />
        </mxCell>
        <mxCell id="vUv-sD3Ehbde42g3vvmg-8" value="" style="shape=image;imageAspect=0;aspect=fixed;verticalLabelPosition=bottom;verticalAlign=top;image=data:image/svg+xml,PHN2ZyB4bWxucz0iaHR0cDovL3d3dy53My5vcmcvMjAwMC9zdmciIHhtbG5zOnhsaW5rPSJodHRwOi8vd3d3LnczLm9yZy8xOTk5L3hsaW5rIiB2ZXJzaW9uPSIxLjEiIGlkPSJMYXllcl8xIiB4PSIwcHgiIHk9IjBweCIgdmlld0JveD0iNiAwLjIwMDAwMDQwNTMxMTU4NDQ3IDMyLjE1OTQ1ODE2MDQwMDM5IDM3Ljc5OTk5OTIzNzA2MDU1IiBzdHlsZT0iZW5hYmxlLWJhY2tncm91bmQ6bmV3IDAgMCA0MyAzODsiIHhtbDpzcGFjZT0icHJlc2VydmUiIHdpZHRoPSIzMi4xNTk0NTgxNjA0MDAzOSIgaGVpZ2h0PSIzNy43OTk5OTkyMzcwNjA1NSI+JiN4YTs8c3R5bGUgdHlwZT0idGV4dC9jc3MiPiYjeGE7CS5zdDB7ZmlsbC1ydWxlOmV2ZW5vZGQ7Y2xpcC1ydWxlOmV2ZW5vZGQ7ZmlsbDojRDdFRkY2O30mI3hhOwkuc3Qxe2ZpbGwtcnVsZTpldmVub2RkO2NsaXAtcnVsZTpldmVub2RkO2ZpbGw6IzAwNzRBMjt9JiN4YTs8L3N0eWxlPiYjeGE7PHBhdGggY2xhc3M9InN0MCIgZD0iTTE5LjUsMzNDMjcsMzMsMzMsMjcsMzMsMTkuNVMyNyw2LDE5LjUsNlM2LDEyLDYsMTkuNVMxMiwzMywxOS41LDMzeiIvPiYjeGE7PHBhdGggY2xhc3M9InN0MSIgZD0iTTM4LDI0LjljLTAuMy0xLjItMS4xLTIuMy0yLjMtM2gtMC4xYy0xLjItMC43LTIuNi0wLjgtMy45LTAuNWMtMC45LDAuMi0xLjgsMC43LTIuNSwxLjRsLTIuNC0xLjMmIzEwOyYjOTtjMC4yLTAuNywwLjQtMS40LDAuNC0yLjNzLTAuMS0xLjUtMC40LTIuM2wyLjQtMS4zYzAuNywwLjcsMS41LDEuMiwyLjUsMS40YzEuMiwwLjMsMi41LDAuMiwzLjYtMC4zbDAuMi0wLjJjMS4yLTAuNiwyLjEtMS44LDIuNC0zJiMxMDsmIzk7YzAuNC0xLjIsMC4yLTIuNi0wLjUtMy44Yy0wLjctMS4yLTEuOC0yLjEtMy4xLTIuNHMtMi43LTAuMi0zLjksMC41Yy0xLjIsMC42LTIuMSwxLjgtMi40LDNjLTAuMiwwLjktMC4yLDIsMC4xLDIuOWwtMi40LDEuMyYjMTA7JiM5O2MtMC4xLTAuMi0wLjItMC40LTAuNC0wLjVjLTEtMC45LTIuMi0xLjUtMy42LTEuOHYtMi44YzEtMC4yLDEuOS0wLjYsMi42LTEuM2MwLjktMC45LDEuNS0yLjIsMS41LTMuNWMwLTEuMy0wLjYtMi42LTEuNS0zLjUmIzEwOyYjOTtjLTEtMC45LTIuMy0xLjQtMy43LTEuNGMtMS40LDAtMi43LDAuNS0zLjcsMS41QzE2LDIuOCwxNS40LDQsMTUuNCw1LjRzMC42LDIuNiwxLjUsMy41YzAuNywwLjYsMS42LDEuMSwyLjYsMS4zdjIuNyYjMTA7JiM5O2MtMS40LDAuMi0yLjYsMC44LTMuNiwxLjhjLTEuMiwxLjEtMS45LDIuOC0xLjksNC41czAuNywzLjQsMiw0LjZjMSwwLjksMi4yLDEuNSwzLjYsMS44djIuN2MtMSwwLjItMS45LDAuNi0yLjYsMS4zJiMxMDsmIzk7Yy0wLjksMC44LTEuNSwyLjItMS41LDMuNWMwLDEuMywwLjYsMi42LDEuNSwzLjVjMSwwLjksMi4zLDEuNCwzLjcsMS40YzEuNSwwLDIuOC0wLjUsMy43LTEuNGMwLjktMC45LDEuNS0yLjIsMS41LTMuNSYjMTA7JiM5O2MwLTEuMy0wLjYtMi42LTEuNS0zLjVjLTAuNy0wLjYtMS42LTEuMS0yLjYtMS4zdi0yLjdjMS40LTAuMiwyLjYtMC44LDMuNi0xLjhjMC4xLTAuMSwwLjMtMC4yLDAuNC0wLjRsMi40LDEuMyYjMTA7JiM5O2MtMC4zLDEtMC40LDItMC4xLDIuOWMwLjMsMS4yLDEuMiwyLjMsMi40LDNjMS4yLDAuNywyLjYsMC44LDMuOSwwLjVjMS4zLTAuMywyLjQtMS4xLDMuMS0yLjN2LTAuMUMzOC4yLDI3LjUsMzguMywyNi4yLDM4LDI0Ljl6JiMxMDsmIzk7IE0zMC44LDExLjdjMC4xLTAuNiwwLjUtMS4xLDEuMS0xLjRjMC42LTAuMywxLjItMC4zLDEuOC0wLjJjMC42LDAuMSwxLjEsMC40LDEuNSwxYzAuMywwLjUsMC4zLDEuMSwwLjEsMS44JiMxMDsmIzk7Yy0wLjIsMC42LTAuNSwxLjEtMS4xLDEuNGMtMC41LDAuMy0xLjIsMC40LTEuOCwwLjJjLTAuNS0wLjEtMS4xLTAuNS0xLjQtMVMzMC42LDEyLjQsMzAuOCwxMS43eiBNMTguOSw3Yy0wLjQtMC40LTAuNy0xLTAuNy0xLjYmIzEwOyYjOTtjMC0wLjYsMC4zLTEuMiwwLjctMS42YzAuNC0wLjQsMS0wLjcsMS43LTAuN2MwLjcsMCwxLjMsMC4zLDEuNywwLjdDMjIuOCw0LjEsMjMsNC42LDIzLDUuNEMyMyw2LDIyLjgsNi41LDIyLjMsNyYjMTA7JiM5O2MtMC40LDAuNS0xLDAuNy0xLjcsMC43QzE5LjksNy43LDE5LjMsNy40LDE4LjksN3ogTTIyLjMsMzEuNGMwLjQsMC40LDAuNywxLDAuNywxLjZjMCwwLjYtMC4zLDEuMi0wLjcsMS42Yy0wLjQsMC40LTEsMC43LTEuNywwLjcmIzEwOyYjOTtjLTAuNiwwLTEuMi0wLjMtMS43LTAuN2MtMC40LTAuNC0wLjctMS0wLjctMS42YzAtMC42LDAuMy0xLjIsMC43LTEuNmMwLjQtMC41LDEtMC43LDEuNy0wLjdDMjEuMywzMC43LDIxLjksMzEsMjIuMywzMS40eiYjMTA7JiM5OyBNMjMuMSwyMS41Yy0wLjcsMC42LTEuNSwxLTIuNSwxcy0xLjktMC40LTIuNS0xYy0wLjYtMC42LTEtMS40LTEtMi40YzAtMC45LDAuNC0xLjgsMS0yLjRjMC43LTAuNiwxLjUtMSwyLjUtMXMxLjksMC40LDIuNSwxJiMxMDsmIzk7YzAuNiwwLjYsMSwxLjQsMSwyLjRDMjQuMSwyMC4xLDIzLjcsMjAuOSwyMy4xLDIxLjV6IE0zNS4yLDI3LjJ2MC4xYy0wLjQsMC41LTAuOSwwLjktMS41LDFjLTAuNiwwLjItMS4zLDAuMS0xLjgtMC4yJiMxMDsmIzk7Yy0wLjYtMC4zLTAuOS0wLjgtMS4xLTEuNGMtMC4yLTAuNi0wLjEtMS4yLDAuMi0xLjhjMC40LTAuNSwwLjktMC45LDEuNS0xYzAuNi0wLjIsMS4yLTAuMSwxLjgsMC4yYzAuNiwwLjMsMC45LDAuOCwxLjEsMS40JiMxMDsmIzk7QzM1LjUsMjYuMSwzNS41LDI2LjcsMzUuMiwyNy4yeiIvPiYjeGE7PC9zdmc+;" parent="GoqarWJMvIRxIr3ExFKV-95" vertex="1">
          <mxGeometry x="303" y="14" width="32" height="38" as="geometry" />
        </mxCell>
        <mxCell id="vUv-sD3Ehbde42g3vvmg-2" value="" style="shape=image;imageAspect=0;aspect=fixed;verticalLabelPosition=bottom;verticalAlign=top;image=data:image/svg+xml,PHN2ZyB4bWxucz0iaHR0cDovL3d3dy53My5vcmcvMjAwMC9zdmciIHdpZHRoPSIzOS43NSIgaGVpZ2h0PSIzOS43NSIgdmlld0JveD0iMCAwLjI1IDM5Ljc1IDM5Ljc1IiBmaWxsPSJub25lIj4mI3hhOzxwYXRoIGZpbGwtcnVsZT0iZXZlbm9kZCIgY2xpcC1ydWxlPSJldmVub2RkIiBkPSJNMzYgMjJDMzYgMzEuOTQxMSAyNy45NDExIDQwIDE4IDQwQzguMDU4ODIgNDAgMCAzMS45NDExIDAgMjJDMCAxMi4wNTg4IDguMDU4ODIgNCAxOCA0QzI3Ljk0MTEgNCAzNiAxMi4wNTg4IDM2IDIyWiIgZmlsbD0iI0Q3RUZGNiIvPiYjeGE7PHBhdGggZmlsbC1ydWxlPSJldmVub2RkIiBjbGlwLXJ1bGU9ImV2ZW5vZGQiIGQ9Ik0xMi4xNDkgMTEuNjIxN0MxMi4yODM0IDExLjM5MTUgMTIuNTMgMTEuMjUgMTIuNzk2NiAxMS4yNUgxOC40NDMxQzE4Ljg1NzMgMTEuMjUgMTkuMTkzMSAxMS41ODU4IDE5LjE5MzEgMTJDMTkuMTkzMSAxMi40MTQyIDE4Ljg1NzMgMTIuNzUgMTguNDQzMSAxMi43NUgxMy4yMjcxTDkuODY4NTYgMTguNUwxMy4yMjcxIDI0LjI1SDE5Ljk2TDI0LjM1MjYgMTYuNzM4MUMyNC41NjE3IDE2LjM4MDYgMjUuMDIxIDE2LjI2MDIgMjUuMzc4NiAxNi40NjkzQzI1LjczNjIgMTYuNjc4NCAyNS44NTY1IDE3LjEzNzcgMjUuNjQ3NCAxNy40OTUzTDIxLjAzNzcgMjUuMzc4NkMyMC45MDMyIDI1LjYwODYgMjAuNjU2NyAyNS43NSAyMC4zOTAzIDI1Ljc1SDEyLjc5NjZDMTIuNTMgMjUuNzUgMTIuMjgzNCAyNS42MDg1IDEyLjE0OSAyNS4zNzgzTDguMzUyMzggMTguODc4M0M4LjIxNTg3IDE4LjY0NDYgOC4yMTU4NyAxOC4zNTU0IDguMzUyMzggMTguMTIxN0wxMi4xNDkgMTEuNjIxN1oiIGZpbGw9IiMwMDc0QTMiLz4mI3hhOzxwYXRoIGZpbGwtcnVsZT0iZXZlbm9kZCIgY2xpcC1ydWxlPSJldmVub2RkIiBkPSJNMjAuOTggMTMuNjIyMkMyMS4xMTQ0IDEzLjM5MTcgMjEuMzYxMSAxMy4yNSAyMS42Mjc5IDEzLjI1SDI5LjIwOTJDMjkuNDc2IDEzLjI1IDI5LjcyMjcgMTMuMzkxNyAyOS44NTcxIDEzLjYyMjJMMzMuNjQ3OSAyMC4xMjIyQzMzLjc4NCAyMC4zNTU3IDMzLjc4NCAyMC42NDQzIDMzLjY0NzkgMjAuODc3OEwyOS44NTcxIDI3LjM3NzhDMjkuNzIyNyAyNy42MDgzIDI5LjQ3NiAyNy43NSAyOS4yMDkyIDI3Ljc1SDIzLjYxNjNDMjMuMjAyMSAyNy43NSAyMi44NjYzIDI3LjQxNDIgMjIuODY2MyAyN0MyMi44NjYzIDI2LjU4NTggMjMuMjAyMSAyNi4yNSAyMy42MTYzIDI2LjI1SDI4Ljc3ODRMMzIuMTMxOCAyMC41TDI4Ljc3ODQgMTQuNzVIMjIuMDU4OEwxNy42NDc5IDIyLjMxNTRDMTcuNDM5MyAyMi42NzMyIDE2Ljk4MDEgMjIuNzk0MiAxNi42MjIyIDIyLjU4NTVDMTYuMjY0NCAyMi4zNzY5IDE2LjE0MzUgMjEuOTE3NyAxNi4zNTIxIDIxLjU1OTlMMjAuOTggMTMuNjIyMloiIGZpbGw9IiMwMDc0QTMiLz4mI3hhOzxwYXRoIGZpbGwtcnVsZT0iZXZlbm9kZCIgY2xpcC1ydWxlPSJldmVub2RkIiBkPSJNMjEgMS43NUMxMS40NzMgMS43NSAzLjc1IDkuNDczMDMgMy43NSAxOUMzLjc1IDI4LjUyNjggMTEuNDczIDM2LjI1IDIxIDM2LjI1QzMwLjUyNjggMzYuMjUgMzguMjUgMjguNTI2OCAzOC4yNSAxOUMzOC4yNSA5LjQ3MzA0IDMwLjUyNjggMS43NSAyMSAxLjc1Wk0yLjI1IDE5QzIuMjUgOC42NDQ2MSAxMC42NDQ2IDAuMjUgMjEgMC4yNUMzMS4zNTUzIDAuMjUgMzkuNzUgOC42NDQ2IDM5Ljc1IDE5QzM5Ljc1IDI5LjM1NTMgMzEuMzU1MyAzNy43NSAyMSAzNy43NUMxMC42NDQ2IDM3Ljc1IDIuMjUgMjkuMzU1MyAyLjI1IDE5WiIgZmlsbD0iIzAwNzRBMyIvPiYjeGE7PC9zdmc+;base64,PHN2ZyB4bWxucz0iaHR0cDovL3d3dy53My5vcmcvMjAwMC9zdmciIHdpZHRoPSI1NCIgaGVpZ2h0PSI1NCIgdmlld0JveD0iNCA1IDU0IDU0IiBmaWxsPSJub25lIj4mI3hhOzxnIGZpbHRlcj0idXJsKCNmaWx0ZXIwX2QpIj4mI3hhOzxwYXRoIGZpbGwtcnVsZT0iZXZlbm9kZCIgY2xpcC1ydWxlPSJldmVub2RkIiBkPSJNMzEgNTlDNDUuOTExNyA1OSA1OCA0Ni45MTE3IDU4IDMyQzU4IDE3LjA4ODMgNDUuOTExNyA1IDMxIDVDMTYuMDg4MyA1IDQgMTcuMDg4MyA0IDMyQzQgNDYuOTExNyAxNi4wODgzIDU5IDMxIDU5WiIgZmlsbD0idXJsKCNwYWludDBfbGluZWFyKSIvPiYjeGE7PC9nPiYjeGE7PGcgZmlsdGVyPSJ1cmwoI2ZpbHRlcjFfZCkiPiYjeGE7PHBhdGggZmlsbC1ydWxlPSJldmVub2RkIiBjbGlwLXJ1bGU9ImV2ZW5vZGQiIGQ9Ik0zMC41IDU0QzQyLjkyNjQgNTQgNTMgNDMuOTI2NCA1MyAzMS41QzUzIDE5LjA3MzYgNDIuOTI2NCA5IDMwLjUgOUMxOC4wNzM2IDkgOCAxOS4wNzM2IDggMzEuNUM4IDQzLjkyNjQgMTguMDczNiA1NCAzMC41IDU0WiIgZmlsbD0iIzM4Q0NFRCIvPiYjeGE7PC9nPiYjeGE7PHBhdGggZmlsbC1ydWxlPSJldmVub2RkIiBjbGlwLXJ1bGU9ImV2ZW5vZGQiIGQ9Ik0zMC40OTk5IDIxLjM3MjNMNDEuNTI5NyAyNy41MDAxTDMwLjQ5OTkgMzMuNjI3OUwxOS40NzAyIDI3LjUwMDFMMzAuNDk5OSAyMS4zNzIzWk0zMC40OTk5IDIwTDE3IDI3LjVMMzAuNDk5OSAzNUw0My45OTk5IDI3LjVMMzAuNDk5OSAyMFpNMTkuNDcwMiAzMkwzMC40OTk5IDM4LjEyNzhMNDEuNTI5NyAzMkg0NEwzMC41MDAxIDM5LjVMMTcuMDAwMSAzMkgxOS40NzAyWk0xOS40NzAyIDM2LjVMMzAuNDk5OSA0Mi42Mjc4TDQxLjUyOTcgMzYuNUg0NEwzMC41MDAxIDQ0TDE3LjAwMDEgMzYuNUgxOS40NzAyWiIgZmlsbD0id2hpdGUiLz4mI3hhOzxkZWZzPiYjeGE7PGZpbHRlciBpZD0iZmlsdGVyMF9kIiB4PSIzIiB5PSI1IiB3aWR0aD0iNTYiIGhlaWdodD0iNTYiIGZpbHRlclVuaXRzPSJ1c2VyU3BhY2VPblVzZSIgY29sb3ItaW50ZXJwb2xhdGlvbi1maWx0ZXJzPSJzUkdCIj4mI3hhOzxmZUZsb29kIGZsb29kLW9wYWNpdHk9IjAiIHJlc3VsdD0iQmFja2dyb3VuZEltYWdlRml4Ii8+JiN4YTs8ZmVDb2xvck1hdHJpeCBpbj0iU291cmNlQWxwaGEiIHR5cGU9Im1hdHJpeCIgdmFsdWVzPSIwIDAgMCAwIDAgMCAwIDAgMCAwIDAgMCAwIDAgMCAwIDAgMCAxMjcgMCIvPiYjeGE7PGZlT2Zmc2V0IGR5PSIxIi8+JiN4YTs8ZmVHYXVzc2lhbkJsdXIgc3RkRGV2aWF0aW9uPSIwLjUiLz4mI3hhOzxmZUNvbG9yTWF0cml4IHR5cGU9Im1hdHJpeCIgdmFsdWVzPSIwIDAgMCAwIDAgMCAwIDAgMCAwIDAgMCAwIDAgMCAwIDAgMCAwLjE4NTA0MiAwIi8+JiN4YTs8ZmVCbGVuZCBtb2RlPSJub3JtYWwiIGluMj0iQmFja2dyb3VuZEltYWdlRml4IiByZXN1bHQ9ImVmZmVjdDFfZHJvcFNoYWRvdyIvPiYjeGE7PGZlQmxlbmQgbW9kZT0ibm9ybWFsIiBpbj0iU291cmNlR3JhcGhpYyIgaW4yPSJlZmZlY3QxX2Ryb3BTaGFkb3ciIHJlc3VsdD0ic2hhcGUiLz4mI3hhOzwvZmlsdGVyPiYjeGE7PGZpbHRlciBpZD0iZmlsdGVyMV9kIiB4PSI3IiB5PSI5IiB3aWR0aD0iNDciIGhlaWdodD0iNDciIGZpbHRlclVuaXRzPSJ1c2VyU3BhY2VPblVzZSIgY29sb3ItaW50ZXJwb2xhdGlvbi1maWx0ZXJzPSJzUkdCIj4mI3hhOzxmZUZsb29kIGZsb29kLW9wYWNpdHk9IjAiIHJlc3VsdD0iQmFja2dyb3VuZEltYWdlRml4Ii8+JiN4YTs8ZmVDb2xvck1hdHJpeCBpbj0iU291cmNlQWxwaGEiIHR5cGU9Im1hdHJpeCIgdmFsdWVzPSIwIDAgMCAwIDAgMCAwIDAgMCAwIDAgMCAwIDAgMCAwIDAgMCAxMjcgMCIvPiYjeGE7PGZlT2Zmc2V0IGR5PSIxIi8+JiN4YTs8ZmVHYXVzc2lhbkJsdXIgc3RkRGV2aWF0aW9uPSIwLjUiLz4mI3hhOzxmZUNvbG9yTWF0cml4IHR5cGU9Im1hdHJpeCIgdmFsdWVzPSIwIDAgMCAwIDAgMCAwIDAgMCAwIDAgMCAwIDAgMCAwIDAgMCAwLjE4NTA0MiAwIi8+JiN4YTs8ZmVCbGVuZCBtb2RlPSJub3JtYWwiIGluMj0iQmFja2dyb3VuZEltYWdlRml4IiByZXN1bHQ9ImVmZmVjdDFfZHJvcFNoYWRvdyIvPiYjeGE7PGZlQmxlbmQgbW9kZT0ibm9ybWFsIiBpbj0iU291cmNlR3JhcGhpYyIgaW4yPSJlZmZlY3QxX2Ryb3BTaGFkb3ciIHJlc3VsdD0ic2hhcGUiLz4mI3hhOzwvZmlsdGVyPiYjeGE7PGxpbmVhckdyYWRpZW50IGlkPSJwYWludDBfbGluZWFyIiB4MT0iLTEyLjI3NDUiIHkxPSI3Ni4wOTY3IiB4Mj0iLTEyLjI3NDUiIHkyPSIxNjAuOTAyIiBncmFkaWVudFVuaXRzPSJ1c2VyU3BhY2VPblVzZSI+JiN4YTs8c3RvcCBzdG9wLWNvbG9yPSJ3aGl0ZSIvPiYjeGE7PHN0b3Agb2Zmc2V0PSIxIiBzdG9wLWNvbG9yPSIjNTA4MkU2Ii8+JiN4YTs8L2xpbmVhckdyYWRpZW50PiYjeGE7PC9kZWZzPiYjeGE7PC9zdmc+;base64,PHN2ZyB4bWxucz0iaHR0cDovL3d3dy53My5vcmcvMjAwMC9zdmciIHdpZHRoPSI1NCIgaGVpZ2h0PSI1NCIgdmlld0JveD0iNSAzIDU0IDU0IiBmaWxsPSJub25lIj4mI3hhOzxnIGZpbHRlcj0idXJsKCNmaWx0ZXIwX2QpIj4mI3hhOzxwYXRoIGZpbGwtcnVsZT0iZXZlbm9kZCIgY2xpcC1ydWxlPSJldmVub2RkIiBkPSJNMzIgNTdDNDYuOTExNyA1NyA1OSA0NC45MTE3IDU5IDMwQzU5IDE1LjA4ODMgNDYuOTExNyAzIDMyIDNDMTcuMDg4MyAzIDUgMTUuMDg4MyA1IDMwQzUgNDQuOTExNyAxNy4wODgzIDU3IDMyIDU3WiIgZmlsbD0idXJsKCNwYWludDBfbGluZWFyKSIvPiYjeGE7PC9nPiYjeGE7PHBhdGggZmlsbC1ydWxlPSJldmVub2RkIiBjbGlwLXJ1bGU9ImV2ZW5vZGQiIGQ9Ik0zMS41IDUyQzQzLjkyNjQgNTIgNTQgNDEuOTI2NCA1NCAyOS41QzU0IDE3LjA3MzYgNDMuOTI2NCA3IDMxLjUgN0MxOS4wNzM2IDcgOSAxNy4wNzM2IDkgMjkuNUM5IDQxLjkyNjQgMTkuMDczNiA1MiAzMS41IDUyWiIgZmlsbD0iIzAwNzRBMyIvPiYjeGE7PHBhdGggZmlsbC1ydWxlPSJldmVub2RkIiBjbGlwLXJ1bGU9ImV2ZW5vZGQiIGQ9Ik0zMi41IDIzQzMxLjA2MjYgMjMgMjkuODk3NCAyNC4xNjUyIDI5Ljg5NzQgMjUuNjAyNlYzNC4zOTc0QzI5Ljg5NzQgMzUuODM0OCAzMS4wNjI2IDM3IDMyLjUgMzdDMzMuOTM3NCAzNyAzNS4xMDI2IDM1LjgzNDggMzUuMTAyNiAzNC4zOTc0VjI1LjYwMjZDMzUuMTAyNiAyNC4xNjUyIDMzLjkzNzQgMjMgMzIuNSAyM1pNMzUuODQ2MiAyNi4zMzk0QzM1Ljg0NjIgMjQuOTAyMSAzNy4wMTE0IDIzLjczNjggMzguNDQ4NyAyMy43MzY4QzM5Ljg4NjEgMjMuNzM2OCA0MS4wNTEzIDI0LjkwMiA0MS4wNTEzIDI2LjMzOTRWMzIuOTIzN0M0MS4wNTEzIDM0LjM2MTEgMzkuODg2MSAzNS41MjYzIDM4LjQ0ODcgMzUuNTI2M0MzNy4wMTE0IDM1LjUyNjMgMzUuODQ2MiAzNC4zNjExIDM1Ljg0NjIgMzIuOTIzOFYyNi4zMzk0Wk00MS43OTQ5IDMyLjIxMDVDNDEuNzk0OSAzMC43ODYyIDQyLjk3MzEgMjkuNjMxNiA0NC4zOTc0IDI5LjYzMTZDNDUuODIxOCAyOS42MzE2IDQ3IDMwLjc4NjIgNDcgMzIuMjEwNUM0NyAzMy42MzQ4IDQ1LjgyMTggMzQuNzg5NSA0NC4zOTc0IDM0Ljc4OTVDNDIuOTczMSAzNC43ODk1IDQxLjc5NDkgMzMuNjM0OCA0MS43OTQ5IDMyLjIxMDVaTTIzLjk0ODcgMzAuMDIzNkMyMy45NDg3IDI4LjU4NjMgMjUuMTEzOSAyNy40MjExIDI2LjU1MTMgMjcuNDIxMUMyNy45ODg2IDI3LjQyMTEgMjkuMTUzOCAyOC41ODYzIDI5LjE1MzggMzAuMDIzNlYzMi45MjM3QzI5LjE1MzggMzQuMzYxMSAyNy45ODg2IDM1LjUyNjMgMjYuNTUxMyAzNS41MjYzQzI1LjExMzkgMzUuNTI2MyAyMy45NDg3IDM0LjM2MTEgMjMuOTQ4NyAzMi45MjM4VjMwLjAyMzZaTTIwLjYwMjYgMjkuNjMxNkMxOS4xNzgzIDI5LjYzMTYgMTggMzAuNzg2MiAxOCAzMi4yMTA1QzE4IDMzLjYzNDggMTkuMTc4MyAzNC43ODk1IDIwLjYwMjYgMzQuNzg5NUMyMi4wMjY5IDM0Ljc4OTUgMjMuMjA1MSAzMy42MzQ4IDIzLjIwNTEgMzIuMjEwNUMyMy4yMDUxIDMwLjc4NjIgMjIuMDI2OSAyOS42MzE2IDIwLjYwMjYgMjkuNjMxNloiIGZpbGw9IndoaXRlIi8+JiN4YTs8ZGVmcz4mI3hhOzxmaWx0ZXIgaWQ9ImZpbHRlcjBfZCIgeD0iNCIgeT0iMyIgd2lkdGg9IjU2IiBoZWlnaHQ9IjU2IiBmaWx0ZXJVbml0cz0idXNlclNwYWNlT25Vc2UiIGNvbG9yLWludGVycG9sYXRpb24tZmlsdGVycz0ic1JHQiI+JiN4YTs8ZmVGbG9vZCBmbG9vZC1vcGFjaXR5PSIwIiByZXN1bHQ9IkJhY2tncm91bmRJbWFnZUZpeCIvPiYjeGE7PGZlQ29sb3JNYXRyaXggaW49IlNvdXJjZUFscGhhIiB0eXBlPSJtYXRyaXgiIHZhbHVlcz0iMCAwIDAgMCAwIDAgMCAwIDAgMCAwIDAgMCAwIDAgMCAwIDAgMTI3IDAiLz4mI3hhOzxmZU9mZnNldCBkeT0iMSIvPiYjeGE7PGZlR2F1c3NpYW5CbHVyIHN0ZERldmlhdGlvbj0iMC41Ii8+JiN4YTs8ZmVDb2xvck1hdHJpeCB0eXBlPSJtYXRyaXgiIHZhbHVlcz0iMCAwIDAgMCAwIDAgMCAwIDAgMCAwIDAgMCAwIDAgMCAwIDAgMC4xODUwNDIgMCIvPiYjeGE7PGZlQmxlbmQgbW9kZT0ibm9ybWFsIiBpbjI9IkJhY2tncm91bmRJbWFnZUZpeCIgcmVzdWx0PSJlZmZlY3QxX2Ryb3BTaGFkb3ciLz4mI3hhOzxmZUJsZW5kIG1vZGU9Im5vcm1hbCIgaW49IlNvdXJjZUdyYXBoaWMiIGluMj0iZWZmZWN0MV9kcm9wU2hhZG93IiByZXN1bHQ9InNoYXBlIi8+JiN4YTs8L2ZpbHRlcj4mI3hhOzxsaW5lYXJHcmFkaWVudCBpZD0icGFpbnQwX2xpbmVhciIgeDE9Ii0xMS4yNzQ1IiB5MT0iNzQuMDk2NyIgeDI9Ii0xMS4yNzQ1IiB5Mj0iMTU4LjkwMiIgZ3JhZGllbnRVbml0cz0idXNlclNwYWNlT25Vc2UiPiYjeGE7PHN0b3Agc3RvcC1jb2xvcj0id2hpdGUiLz4mI3hhOzxzdG9wIG9mZnNldD0iMSIgc3RvcC1jb2xvcj0iIzUwODJFNiIvPiYjeGE7PC9saW5lYXJHcmFkaWVudD4mI3hhOzwvZGVmcz4mI3hhOzwvc3ZnPg==;base64,PHN2ZyB4bWxucz0iaHR0cDovL3d3dy53My5vcmcvMjAwMC9zdmciIHhtbG5zOnhsaW5rPSJodHRwOi8vd3d3LnczLm9yZy8xOTk5L3hsaW5rIiB2ZXJzaW9uPSIxLjEiIGlkPSJMYXllcl8xIiB4PSIwcHgiIHk9IjBweCIgdmlld0JveD0iNiAwLjIwMDAwMDQwNTMxMTU4NDQ3IDMyLjE1OTQ1ODE2MDQwMDM5IDM3Ljc5OTk5OTIzNzA2MDU1IiBzdHlsZT0iZW5hYmxlLWJhY2tncm91bmQ6bmV3IDAgMCA0MyAzODsiIHhtbDpzcGFjZT0icHJlc2VydmUiIHdpZHRoPSIzMi4xNTk0NTgxNjA0MDAzOSIgaGVpZ2h0PSIzNy43OTk5OTkyMzcwNjA1NSI+JiN4YTs8c3R5bGUgdHlwZT0idGV4dC9jc3MiPiYjeGE7CS5zdDB7ZmlsbC1ydWxlOmV2ZW5vZGQ7Y2xpcC1ydWxlOmV2ZW5vZGQ7ZmlsbDojRDdFRkY2O30mI3hhOwkuc3Qxe2ZpbGwtcnVsZTpldmVub2RkO2NsaXAtcnVsZTpldmVub2RkO2ZpbGw6IzAwNzRBMjt9JiN4YTs8L3N0eWxlPiYjeGE7PHBhdGggY2xhc3M9InN0MCIgZD0iTTE5LjUsMzNDMjcsMzMsMzMsMjcsMzMsMTkuNVMyNyw2LDE5LjUsNlM2LDEyLDYsMTkuNVMxMiwzMywxOS41LDMzeiIvPiYjeGE7PHBhdGggY2xhc3M9InN0MSIgZD0iTTM4LDI0LjljLTAuMy0xLjItMS4xLTIuMy0yLjMtM2gtMC4xYy0xLjItMC43LTIuNi0wLjgtMy45LTAuNWMtMC45LDAuMi0xLjgsMC43LTIuNSwxLjRsLTIuNC0xLjMmIzEwOyYjOTtjMC4yLTAuNywwLjQtMS40LDAuNC0yLjNzLTAuMS0xLjUtMC40LTIuM2wyLjQtMS4zYzAuNywwLjcsMS41LDEuMiwyLjUsMS40YzEuMiwwLjMsMi41LDAuMiwzLjYtMC4zbDAuMi0wLjJjMS4yLTAuNiwyLjEtMS44LDIuNC0zJiMxMDsmIzk7YzAuNC0xLjIsMC4yLTIuNi0wLjUtMy44Yy0wLjctMS4yLTEuOC0yLjEtMy4xLTIuNHMtMi43LTAuMi0zLjksMC41Yy0xLjIsMC42LTIuMSwxLjgtMi40LDNjLTAuMiwwLjktMC4yLDIsMC4xLDIuOWwtMi40LDEuMyYjMTA7JiM5O2MtMC4xLTAuMi0wLjItMC40LTAuNC0wLjVjLTEtMC45LTIuMi0xLjUtMy42LTEuOHYtMi44YzEtMC4yLDEuOS0wLjYsMi42LTEuM2MwLjktMC45LDEuNS0yLjIsMS41LTMuNWMwLTEuMy0wLjYtMi42LTEuNS0zLjUmIzEwOyYjOTtjLTEtMC45LTIuMy0xLjQtMy43LTEuNGMtMS40LDAtMi43LDAuNS0zLjcsMS41QzE2LDIuOCwxNS40LDQsMTUuNCw1LjRzMC42LDIuNiwxLjUsMy41YzAuNywwLjYsMS42LDEuMSwyLjYsMS4zdjIuNyYjMTA7JiM5O2MtMS40LDAuMi0yLjYsMC44LTMuNiwxLjhjLTEuMiwxLjEtMS45LDIuOC0xLjksNC41czAuNywzLjQsMiw0LjZjMSwwLjksMi4yLDEuNSwzLjYsMS44djIuN2MtMSwwLjItMS45LDAuNi0yLjYsMS4zJiMxMDsmIzk7Yy0wLjksMC44LTEuNSwyLjItMS41LDMuNWMwLDEuMywwLjYsMi42LDEuNSwzLjVjMSwwLjksMi4zLDEuNCwzLjcsMS40YzEuNSwwLDIuOC0wLjUsMy43LTEuNGMwLjktMC45LDEuNS0yLjIsMS41LTMuNSYjMTA7JiM5O2MwLTEuMy0wLjYtMi42LTEuNS0zLjVjLTAuNy0wLjYtMS42LTEuMS0yLjYtMS4zdi0yLjdjMS40LTAuMiwyLjYtMC44LDMuNi0xLjhjMC4xLTAuMSwwLjMtMC4yLDAuNC0wLjRsMi40LDEuMyYjMTA7JiM5O2MtMC4zLDEtMC40LDItMC4xLDIuOWMwLjMsMS4yLDEuMiwyLjMsMi40LDNjMS4yLDAuNywyLjYsMC44LDMuOSwwLjVjMS4zLTAuMywyLjQtMS4xLDMuMS0yLjN2LTAuMUMzOC4yLDI3LjUsMzguMywyNi4yLDM4LDI0Ljl6JiMxMDsmIzk7IE0zMC44LDExLjdjMC4xLTAuNiwwLjUtMS4xLDEuMS0xLjRjMC42LTAuMywxLjItMC4zLDEuOC0wLjJjMC42LDAuMSwxLjEsMC40LDEuNSwxYzAuMywwLjUsMC4zLDEuMSwwLjEsMS44JiMxMDsmIzk7Yy0wLjIsMC42LTAuNSwxLjEtMS4xLDEuNGMtMC41LDAuMy0xLjIsMC40LTEuOCwwLjJjLTAuNS0wLjEtMS4xLTAuNS0xLjQtMVMzMC42LDEyLjQsMzAuOCwxMS43eiBNMTguOSw3Yy0wLjQtMC40LTAuNy0xLTAuNy0xLjYmIzEwOyYjOTtjMC0wLjYsMC4zLTEuMiwwLjctMS42YzAuNC0wLjQsMS0wLjcsMS43LTAuN2MwLjcsMCwxLjMsMC4zLDEuNywwLjdDMjIuOCw0LjEsMjMsNC42LDIzLDUuNEMyMyw2LDIyLjgsNi41LDIyLjMsNyYjMTA7JiM5O2MtMC40LDAuNS0xLDAuNy0xLjcsMC43QzE5LjksNy43LDE5LjMsNy40LDE4LjksN3ogTTIyLjMsMzEuNGMwLjQsMC40LDAuNywxLDAuNywxLjZjMCwwLjYtMC4zLDEuMi0wLjcsMS42Yy0wLjQsMC40LTEsMC43LTEuNywwLjcmIzEwOyYjOTtjLTAuNiwwLTEuMi0wLjMtMS43LTAuN2MtMC40LTAuNC0wLjctMS0wLjctMS42YzAtMC42LDAuMy0xLjIsMC43LTEuNmMwLjQtMC41LDEtMC43LDEuNy0wLjdDMjEuMywzMC43LDIxLjksMzEsMjIuMywzMS40eiYjMTA7JiM5OyBNMjMuMSwyMS41Yy0wLjcsMC42LTEuNSwxLTIuNSwxcy0xLjktMC40LTIuNS0xYy0wLjYtMC42LTEtMS40LTEtMi40YzAtMC45LDAuNC0xLjgsMS0yLjRjMC43LTAuNiwxLjUtMSwyLjUtMXMxLjksMC40LDIuNSwxJiMxMDsmIzk7YzAuNiwwLjYsMSwxLjQsMSwyLjRDMjQuMSwyMC4xLDIzLjcsMjAuOSwyMy4xLDIxLjV6IE0zNS4yLDI3LjJ2MC4xYy0wLjQsMC41LTAuOSwwLjktMS41LDFjLTAuNiwwLjItMS4zLDAuMS0xLjgtMC4yJiMxMDsmIzk7Yy0wLjYtMC4zLTAuOS0wLjgtMS4xLTEuNGMtMC4yLTAuNi0wLjEtMS4yLDAuMi0xLjhjMC40LTAuNSwwLjktMC45LDEuNS0xYzAuNi0wLjIsMS4yLTAuMSwxLjgsMC4yYzAuNiwwLjMsMC45LDAuOCwxLjEsMS40JiMxMDsmIzk7QzM1LjUsMjYuMSwzNS41LDI2LjcsMzUuMiwyNy4yeiIvPiYjeGE7PC9zdmc+;base64,PHN2ZyB4bWxucz0iaHR0cDovL3d3dy53My5vcmcvMjAwMC9zdmciIHhtbG5zOnhsaW5rPSJodHRwOi8vd3d3LnczLm9yZy8xOTk5L3hsaW5rIiB2ZXJzaW9uPSIxLjEiIGlkPSJMYXllcl8xIiB4PSIwcHgiIHk9IjBweCIgdmlld0JveD0iMiAwIDM2Ljg5OTk5NzcxMTE4MTY0IDQwIiBzdHlsZT0iZW5hYmxlLWJhY2tncm91bmQ6bmV3IDAgMCA0MCA0MDsiIHhtbDpzcGFjZT0icHJlc2VydmUiIHdpZHRoPSIzNi44OTk5OTc3MTExODE2NCIgaGVpZ2h0PSI0MCI+JiN4YTs8c3R5bGUgdHlwZT0idGV4dC9jc3MiPiYjeGE7CS5zdDB7ZmlsbC1ydWxlOmV2ZW5vZGQ7Y2xpcC1ydWxlOmV2ZW5vZGQ7ZmlsbDojRDdFRkY2O30mI3hhOwkuc3Qxe2ZpbGwtcnVsZTpldmVub2RkO2NsaXAtcnVsZTpldmVub2RkO2ZpbGw6IzAwNzRBMjt9JiN4YTs8L3N0eWxlPiYjeGE7PHBhdGggY2xhc3M9InN0MCIgZD0iTTExLDQwaDI0VjE2SDExVjQweiIvPiYjeGE7PHBhdGggY2xhc3M9InN0MCIgZD0iTTIsMjRoMjRWMEgyVjI0eiIvPiYjeGE7PHBhdGggY2xhc3M9InN0MSIgZD0iTTMuOSwyOGMwLTAuNCwwLjMtMC44LDAuNy0wLjhoNWMwLjQsMCwwLjgsMC4zLDAuOCwwLjhzLTAuMywwLjgtMC44LDAuOGgtNUM0LjIsMjguNywzLjksMjguNCwzLjksMjh6Ii8+JiN4YTs8cGF0aCBjbGFzcz0ic3QxIiBkPSJNMzguMSwxMS4ySDEzLjdjLTAuNCwwLTAuOCwwLjMtMC44LDAuOHYyNGMwLDAuNCwwLjMsMC44LDAuOCwwLjhIMjJjMCwwLDAsMCwwLDBzMCwwLDAsMGg4YzAsMCwwLDAsMCwwJiMxMDsmIzk7czAsMCwwLDBoOC4xYzAuNCwwLDAuOC0wLjMsMC44LTAuOFYxMkMzOC44LDExLjYsMzguNSwxMS4yLDM4LjEsMTEuMnogTTIyLjgsMjcuMnYtNi41aDYuNXY2LjVIMjIuOHogTTI5LjIsMjguN3Y2LjVoLTYuNXYtNi41JiMxMDsmIzk7SDI5LjJ6IE0xNC41LDIwLjdoNi44djYuNWgtNi44VjIwLjd6IE0yMi44LDE5LjJ2LTYuNWg2LjV2Ni41SDIyLjh6IE0zMC44LDIwLjdoNi42djYuNWgtNi42VjIwLjd6IE0zNy4zLDE5LjJoLTYuNnYtNi41aDYuNlYxOS4yeiYjMTA7JiM5OyBNMjEuMiwxMi43djYuNWgtNi44di02LjVIMjEuMnogTTE0LjUsMjguN2g2Ljh2Ni41aC02LjhWMjguN3ogTTMwLjgsMzUuMnYtNi41aDYuNnY2LjVIMzAuOHoiLz4mI3hhOzxwYXRoIGNsYXNzPSJzdDEiIGQ9Ik0yOS45LDIuMkg0LjZjLTAuNCwwLTAuOCwwLjMtMC44LDAuOHYyNWMwLDAuNCwwLjMsMC44LDAuOCwwLjhjMC40LDAsMC44LTAuMywwLjgtMC44di03LjRoNC42JiMxMDsmIzk7YzAuNCwwLDAuOC0wLjMsMC44LTAuOHMtMC4zLTAuOC0wLjgtMC44SDUuNHYtNi40aDQuNmMwLjQsMCwwLjgtMC4zLDAuOC0wLjhjMC0wLjQtMC4zLTAuOC0wLjgtMC44SDUuNFYzLjdoNy44djQuMiYjMTA7JiM5O2MwLDAuNCwwLjMsMC44LDAuOCwwLjhjMC40LDAsMC44LTAuMywwLjgtMC44VjMuN2g2LjR2NC4yYzAsMC40LDAuMywwLjgsMC44LDAuOGMwLjQsMCwwLjgtMC4zLDAuOC0wLjhWMy43aDYuNnY0LjImIzEwOyYjOTtjMCwwLjQsMC4zLDAuOCwwLjgsMC44YzAuNCwwLDAuOC0wLjMsMC44LTAuOHYtNUMzMC43LDIuNSwzMC40LDIuMiwyOS45LDIuMnoiLz4mI3hhOzwvc3ZnPg==;" parent="GoqarWJMvIRxIr3ExFKV-95" vertex="1">
          <mxGeometry x="168" y="65" width="40" height="40" as="geometry" />
        </mxCell>
        <mxCell id="vUv-sD3Ehbde42g3vvmg-3" value="Schema Registry" style="shape=image;imageAspect=0;aspect=fixed;verticalLabelPosition=bottom;verticalAlign=top;image=data:image/svg+xml,PHN2ZyB4bWxucz0iaHR0cDovL3d3dy53My5vcmcvMjAwMC9zdmciIHhtbG5zOnhsaW5rPSJodHRwOi8vd3d3LnczLm9yZy8xOTk5L3hsaW5rIiB2ZXJzaW9uPSIxLjEiIGlkPSJMYXllcl8xIiB4PSIwcHgiIHk9IjBweCIgdmlld0JveD0iMiAwIDM2Ljg5OTk5NzcxMTE4MTY0IDQwIiBzdHlsZT0iZW5hYmxlLWJhY2tncm91bmQ6bmV3IDAgMCA0MCA0MDsiIHhtbDpzcGFjZT0icHJlc2VydmUiIHdpZHRoPSIzNi44OTk5OTc3MTExODE2NCIgaGVpZ2h0PSI0MCI+JiN4YTs8c3R5bGUgdHlwZT0idGV4dC9jc3MiPiYjeGE7CS5zdDB7ZmlsbC1ydWxlOmV2ZW5vZGQ7Y2xpcC1ydWxlOmV2ZW5vZGQ7ZmlsbDojRDdFRkY2O30mI3hhOwkuc3Qxe2ZpbGwtcnVsZTpldmVub2RkO2NsaXAtcnVsZTpldmVub2RkO2ZpbGw6IzAwNzRBMjt9JiN4YTs8L3N0eWxlPiYjeGE7PHBhdGggY2xhc3M9InN0MCIgZD0iTTExLDQwaDI0VjE2SDExVjQweiIvPiYjeGE7PHBhdGggY2xhc3M9InN0MCIgZD0iTTIsMjRoMjRWMEgyVjI0eiIvPiYjeGE7PHBhdGggY2xhc3M9InN0MSIgZD0iTTMuOSwyOGMwLTAuNCwwLjMtMC44LDAuNy0wLjhoNWMwLjQsMCwwLjgsMC4zLDAuOCwwLjhzLTAuMywwLjgtMC44LDAuOGgtNUM0LjIsMjguNywzLjksMjguNCwzLjksMjh6Ii8+JiN4YTs8cGF0aCBjbGFzcz0ic3QxIiBkPSJNMzguMSwxMS4ySDEzLjdjLTAuNCwwLTAuOCwwLjMtMC44LDAuOHYyNGMwLDAuNCwwLjMsMC44LDAuOCwwLjhIMjJjMCwwLDAsMCwwLDBzMCwwLDAsMGg4YzAsMCwwLDAsMCwwJiMxMDsmIzk7czAsMCwwLDBoOC4xYzAuNCwwLDAuOC0wLjMsMC44LTAuOFYxMkMzOC44LDExLjYsMzguNSwxMS4yLDM4LjEsMTEuMnogTTIyLjgsMjcuMnYtNi41aDYuNXY2LjVIMjIuOHogTTI5LjIsMjguN3Y2LjVoLTYuNXYtNi41JiMxMDsmIzk7SDI5LjJ6IE0xNC41LDIwLjdoNi44djYuNWgtNi44VjIwLjd6IE0yMi44LDE5LjJ2LTYuNWg2LjV2Ni41SDIyLjh6IE0zMC44LDIwLjdoNi42djYuNWgtNi42VjIwLjd6IE0zNy4zLDE5LjJoLTYuNnYtNi41aDYuNlYxOS4yeiYjMTA7JiM5OyBNMjEuMiwxMi43djYuNWgtNi44di02LjVIMjEuMnogTTE0LjUsMjguN2g2Ljh2Ni41aC02LjhWMjguN3ogTTMwLjgsMzUuMnYtNi41aDYuNnY2LjVIMzAuOHoiLz4mI3hhOzxwYXRoIGNsYXNzPSJzdDEiIGQ9Ik0yOS45LDIuMkg0LjZjLTAuNCwwLTAuOCwwLjMtMC44LDAuOHYyNWMwLDAuNCwwLjMsMC44LDAuOCwwLjhjMC40LDAsMC44LTAuMywwLjgtMC44di03LjRoNC42JiMxMDsmIzk7YzAuNCwwLDAuOC0wLjMsMC44LTAuOHMtMC4zLTAuOC0wLjgtMC44SDUuNHYtNi40aDQuNmMwLjQsMCwwLjgtMC4zLDAuOC0wLjhjMC0wLjQtMC4zLTAuOC0wLjgtMC44SDUuNFYzLjdoNy44djQuMiYjMTA7JiM5O2MwLDAuNCwwLjMsMC44LDAuOCwwLjhjMC40LDAsMC44LTAuMywwLjgtMC44VjMuN2g2LjR2NC4yYzAsMC40LDAuMywwLjgsMC44LDAuOGMwLjQsMCwwLjgtMC4zLDAuOC0wLjhWMy43aDYuNnY0LjImIzEwOyYjOTtjMCwwLjQsMC4zLDAuOCwwLjgsMC44YzAuNCwwLDAuOC0wLjMsMC44LTAuOHYtNUMzMC43LDIuNSwzMC40LDIuMiwyOS45LDIuMnoiLz4mI3hhOzwvc3ZnPg==;" parent="GoqarWJMvIRxIr3ExFKV-95" vertex="1">
          <mxGeometry x="183" y="-7" width="37" height="40" as="geometry" />
        </mxCell>
        <mxCell id="tE3PKXoQsudhYKrV5WxO-1" value="" style="shape=image;imageAspect=0;aspect=fixed;verticalLabelPosition=bottom;verticalAlign=top;image=data:image/jpeg,/9j/4gxYSUNDX1BST0ZJTEUAAQEAAAxITGlubwIQAABtbnRyUkdCIFhZWiAHzgACAAkABgAxAABhY3NwTVNGVAAAAABJRUMgc1JHQgAAAAAAAAAAAAAAAAAA9tYAAQAAAADTLUhQICAAAAAAAAAAAAAAAAAAAAAAAAAAAAAAAAAAAAAAAAAAAAAAAAAAAAAAAAAAAAAAABFjcHJ0AAABUAAAADNkZXNjAAABhAAAAGx3dHB0AAAB8AAAABRia3B0AAACBAAAABRyWFlaAAACGAAAABRnWFlaAAACLAAAABRiWFlaAAACQAAAABRkbW5kAAACVAAAAHBkbWRkAAACxAAAAIh2dWVkAAADTAAAAIZ2aWV3AAAD1AAAACRsdW1pAAAD+AAAABRtZWFzAAAEDAAAACR0ZWNoAAAEMAAAAAxyVFJDAAAEPAAACAxnVFJDAAAEPAAACAxiVFJDAAAEPAAACAx0ZXh0AAAAAENvcHlyaWdodCAoYykgMTk5OCBIZXdsZXR0LVBhY2thcmQgQ29tcGFueQAAZGVzYwAAAAAAAAASc1JHQiBJRUM2MTk2Ni0yLjEAAAAAAAAAAAAAABJzUkdCIElFQzYxOTY2LTIuMQAAAAAAAAAAAAAAAAAAAAAAAAAAAAAAAAAAAAAAAAAAAAAAAAAAAAAAAAAAAAAAAAAAWFlaIAAAAAAAAPNRAAEAAAABFsxYWVogAAAAAAAAAAAAAAAAAAAAAFhZWiAAAAAAAABvogAAOPUAAAOQWFlaIAAAAAAAAGKZAAC3hQAAGNpYWVogAAAAAAAAJKAAAA+EAAC2z2Rlc2MAAAAAAAAAFklFQyBodHRwOi8vd3d3LmllYy5jaAAAAAAAAAAAAAAAFklFQyBodHRwOi8vd3d3LmllYy5jaAAAAAAAAAAAAAAAAAAAAAAAAAAAAAAAAAAAAAAAAAAAAAAAAAAAAAAAAAAAAABkZXNjAAAAAAAAAC5JRUMgNjE5NjYtMi4xIERlZmF1bHQgUkdCIGNvbG91ciBzcGFjZSAtIHNSR0IAAAAAAAAAAAAAAC5JRUMgNjE5NjYtMi4xIERlZmF1bHQgUkdCIGNvbG91ciBzcGFjZSAtIHNSR0IAAAAAAAAAAAAAAAAAAAAAAAAAAAAAZGVzYwAAAAAAAAAsUmVmZXJlbmNlIFZpZXdpbmcgQ29uZGl0aW9uIGluIElFQzYxOTY2LTIuMQAAAAAAAAAAAAAALFJlZmVyZW5jZSBWaWV3aW5nIENvbmRpdGlvbiBpbiBJRUM2MTk2Ni0yLjEAAAAAAAAAAAAAAAAAAAAAAAAAAAAAAAAAAHZpZXcAAAAAABOk/gAUXy4AEM8UAAPtzAAEEwsAA1yeAAAAAVhZWiAAAAAAAEwJVgBQAAAAVx/nbWVhcwAAAAAAAAABAAAAAAAAAAAAAAAAAAAAAAAAAo8AAAACc2lnIAAAAABDUlQgY3VydgAAAAAAAAQAAAAABQAKAA8AFAAZAB4AIwAoAC0AMgA3ADsAQABFAEoATwBUAFkAXgBjAGgAbQByAHcAfACBAIYAiwCQAJUAmgCfAKQAqQCuALIAtwC8AMEAxgDLANAA1QDbAOAA5QDrAPAA9gD7AQEBBwENARMBGQEfASUBKwEyATgBPgFFAUwBUgFZAWABZwFuAXUBfAGDAYsBkgGaAaEBqQGxAbkBwQHJAdEB2QHhAekB8gH6AgMCDAIUAh0CJgIvAjgCQQJLAlQCXQJnAnECegKEAo4CmAKiAqwCtgLBAssC1QLgAusC9QMAAwsDFgMhAy0DOANDA08DWgNmA3IDfgOKA5YDogOuA7oDxwPTA+AD7AP5BAYEEwQgBC0EOwRIBFUEYwRxBH4EjASaBKgEtgTEBNME4QTwBP4FDQUcBSsFOgVJBVgFZwV3BYYFlgWmBbUFxQXVBeUF9gYGBhYGJwY3BkgGWQZqBnsGjAadBq8GwAbRBuMG9QcHBxkHKwc9B08HYQd0B4YHmQesB78H0gflB/gICwgfCDIIRghaCG4IggiWCKoIvgjSCOcI+wkQCSUJOglPCWQJeQmPCaQJugnPCeUJ+woRCicKPQpUCmoKgQqYCq4KxQrcCvMLCwsiCzkLUQtpC4ALmAuwC8gL4Qv5DBIMKgxDDFwMdQyODKcMwAzZDPMNDQ0mDUANWg10DY4NqQ3DDd4N+A4TDi4OSQ5kDn8Omw62DtIO7g8JDyUPQQ9eD3oPlg+zD88P7BAJECYQQxBhEH4QmxC5ENcQ9RETETERTxFtEYwRqhHJEegSBxImEkUSZBKEEqMSwxLjEwMTIxNDE2MTgxOkE8UT5RQGFCcUSRRqFIsUrRTOFPAVEhU0FVYVeBWbFb0V4BYDFiYWSRZsFo8WshbWFvoXHRdBF2UXiReuF9IX9xgbGEAYZRiKGK8Y1Rj6GSAZRRlrGZEZtxndGgQaKhpRGncanhrFGuwbFBs7G2MbihuyG9ocAhwqHFIcexyjHMwc9R0eHUcdcB2ZHcMd7B4WHkAeah6UHr4e6R8THz4faR+UH78f6iAVIEEgbCCYIMQg8CEcIUghdSGhIc4h+yInIlUigiKvIt0jCiM4I2YjlCPCI/AkHyRNJHwkqyTaJQklOCVoJZclxyX3JicmVyaHJrcm6CcYJ0kneierJ9woDSg/KHEooijUKQYpOClrKZ0p0CoCKjUqaCqbKs8rAis2K2krnSvRLAUsOSxuLKIs1y0MLUEtdi2rLeEuFi5MLoIuty7uLyQvWi+RL8cv/jA1MGwwpDDbMRIxSjGCMbox8jIqMmMymzLUMw0zRjN/M7gz8TQrNGU0njTYNRM1TTWHNcI1/TY3NnI2rjbpNyQ3YDecN9c4FDhQOIw4yDkFOUI5fzm8Ofk6Njp0OrI67zstO2s7qjvoPCc8ZTykPOM9Ij1hPaE94D4gPmA+oD7gPyE/YT+iP+JAI0BkQKZA50EpQWpBrEHuQjBCckK1QvdDOkN9Q8BEA0RHRIpEzkUSRVVFmkXeRiJGZ0arRvBHNUd7R8BIBUhLSJFI10kdSWNJqUnwSjdKfUrESwxLU0uaS+JMKkxyTLpNAk1KTZNN3E4lTm5Ot08AT0lPk0/dUCdQcVC7UQZRUFGbUeZSMVJ8UsdTE1NfU6pT9lRCVI9U21UoVXVVwlYPVlxWqVb3V0RXklfgWC9YfVjLWRpZaVm4WgdaVlqmWvVbRVuVW+VcNVyGXNZdJ114XcleGl5sXr1fD19hX7NgBWBXYKpg/GFPYaJh9WJJYpxi8GNDY5dj62RAZJRk6WU9ZZJl52Y9ZpJm6Gc9Z5Nn6Wg/aJZo7GlDaZpp8WpIap9q92tPa6dr/2xXbK9tCG1gbbluEm5rbsRvHm94b9FwK3CGcOBxOnGVcfByS3KmcwFzXXO4dBR0cHTMdSh1hXXhdj52m3b4d1Z3s3gReG54zHkqeYl553pGeqV7BHtje8J8IXyBfOF9QX2hfgF+Yn7CfyN/hH/lgEeAqIEKgWuBzYIwgpKC9INXg7qEHYSAhOOFR4Wrhg6GcobXhzuHn4gEiGmIzokziZmJ/opkisqLMIuWi/yMY4zKjTGNmI3/jmaOzo82j56QBpBukNaRP5GokhGSepLjk02TtpQglIqU9JVflcmWNJaflwqXdZfgmEyYuJkkmZCZ/JpomtWbQpuvnByciZz3nWSd0p5Anq6fHZ+Ln/qgaaDYoUehtqImopajBqN2o+akVqTHpTilqaYapoum/adup+CoUqjEqTepqaocqo+rAqt1q+msXKzQrUStuK4trqGvFq+LsACwdbDqsWCx1rJLssKzOLOutCW0nLUTtYq2AbZ5tvC3aLfguFm40blKucK6O7q1uy67p7whvJu9Fb2Pvgq+hL7/v3q/9cBwwOzBZ8Hjwl/C28NYw9TEUcTOxUvFyMZGxsPHQce/yD3IvMk6ybnKOMq3yzbLtsw1zLXNNc21zjbOts83z7jQOdC60TzRvtI/0sHTRNPG1EnUy9VO1dHWVdbY11zX4Nhk2OjZbNnx2nba+9uA3AXcit0Q3ZbeHN6i3ynfr+A24L3hROHM4lPi2+Nj4+vkc+T85YTmDeaW5x/nqegy6LzpRunQ6lvq5etw6/vshu0R7ZzuKO6070DvzPBY8OXxcvH/8ozzGfOn9DT0wvVQ9d72bfb794r4Gfio+Tj5x/pX+uf7d/wH/Jj9Kf26/kv+3P9t////2wBDAAMCAgMCAgMDAwMEAwMEBQgFBQQEBQoHBwYIDAoMDAsKCwsNDhIQDQ4RDgsLEBYQERMUFRUVDA8XGBYUGBIUFRT/2wBDAQMEBAUEBQkFBQkUDQsNFBQUFBQUFBQUFBQUFBQUFBQUFBQUFBQUFBQUFBQUFBQUFBQUFBQUFBQUFBQUFBQUFBT/wAARCAJYAlgDAREAAhEBAxEB/8QAHQABAAIDAAMBAAAAAAAAAAAAAAcIBQYJAgMEAf/EAFYQAAIBAwIDBQQECgYGBggHAAABAgMEBQYRBxIhCDFBUWETInGBCRQykRUjQlJicoKhscE3Q5KistEWJDNjdHUXJVOjwuE0RHODk8Pw8TU2VGSz0uL/xAAcAQEAAgMBAQEAAAAAAAAAAAAABQYDBAcBAgj/xAA/EQEAAQMBAwkHAwQBBAEFAQAAAQIDBBEFITEGEkFRYXGRodETIoGxweHwFDI0IzNCUvEVJHKCQ2KSssLSNf/aAAwDAQACEQMRAD8A6pgAAAAAAAAAAAAAAAAAAAAAAAAAAAAAAAAAAAAAAAAAAAAAAAAAAAAAAAAAAAAAAAAAAAAAAAAAAAAAAAAAAAAAAAAAAAAAAAAAAAAAAAAAAAAAAAAAAAAAAAAAAAAAAAAADEZjV+C089srmsdjH5Xl3Tpf4mjNRZuXP2UzPdDXuZNmz/drinvmIYK4418O7Sp7Ovr3TNGe2/LUzFvF7fBzM8YOVVvi1V/9s+jUq2pgUzpVfoj/ANqfVkLPiVpDI140LTVWEuq0u6nRyNGcn4dykY6sa/TGtVEx8JZqc7FrnSm7TM/+UerYoTjUhGUZKUZLdST3TRrNyJ13w8g9AAAAAAAAAAAAAAAAAAAAAAAAAAAAAAAAAAAAAAAAAAAAAAAAAAAAAAAAAAAAAAAAAAAAAAAAAAAAAAIc4sdrLh3wmde1vcssvmaW8Xi8VtWqxl5Tlvy0/VSe/oyZxNkZWZpVTTpT1zu/5VvaHKHA2frTXXzq46Kd8/Hoj4qo6/8ApEda5x1KOlcVY6Yt3uo16q+t3K8nvJKC+Dg/j523H5OY9vfeqmqfCPXzc+zOWWZd1jGoiiOvjPnu8pQLqvjZr7W0pfhvV+Xvqbe/sHdShR+VOLUV9xP2cHFsf27cR8PqqWRtTOyv716qfju8I3NKbbbbe7ZvIwAAZbA6vz2lq0auFzWQxNWL3U7G6nRafxi0Yblm1djS5TE98atizk38edbNc090zHyTPontxcVdI1KcbnL0NR2kNk6GWt4zbXj+Mhyz39XJ/AhL+wsK9wp5s9npwWbF5VbTxpiKq4rjqqj6xpPms3wx+kG0XqmrSs9VWNxpK8kkvrDl9YtJS7usopShv6x2XjLzrGVyeyLUTVZnnx4SvOByww8iYoyaZtz18Y9Y8Pis3hs3jtQ46jkMVf22SsKy5qV1aVY1ac15qUW0yr10V26pprjSY615tXbd6iLlqqKonpjfD7T4ZQAAAAAAAAAAAAAAAAAAAAAAAAAAAAAAAAAAAAAAAAAAAAAAAAAAAAAAAAAAAAAAAAAAAAAAABqPE3ivpjhHp6eZ1PkoWNv1jRopc1a4mvyKcF1k/wBy33bS6m5i4l7Mr9nZjWfKO9HZ20MbZ1r2uTVpHR1z3R+drnrxy7amseKU7nG4apU0rpqe8Pq1pU2ua8e78bVXXZ/mx2XXZ83edEwNiWMTSu571fbwjuhx3avKfLz9bdmfZ2+qOM98/SPNXcsamgAAAAAAAADd+FvGjV/B7K/XdMZeraQnJSr2VT37a49J030fTpzLaS8GjRysKxmU829Tr29MfFKYG08rZtfPxq9OuOie+Pye10H7PXbD01xkjb4jKez09q2SUfqdWf4m6l/uJt9X+g/e69ObZs53tHY17C1ro96jr6Y7/V2HY3KTH2npaue5c6uie6fpx71givLgAAAAAAAAAAAAAAAAAAAAAAAAAAAAAAAAAAAAAAAAAAAAAAAAAAAAAAAAAAAAAAAAAAAAAAirtB9oLC8BtKO9u+S+zdynHH4pT5Z15eMpd/LCPi/kurJbZ2zrm0LnNp3Uxxnq+6A2xtizsmzz6t9c8Kev7Q5e8SeJmoeK+qLjPakvpXl7V92EF0pUIbtqnTjv7sVv3fNtttvqWNi2sS3FqzGkfPvcIzc6/tC9N/Iq1mfCI6o7GrG20AAAAAAAAAAAAeVKrOjUhUpzlTqQalGUXs013NM8mNd0kTMTrC9nZL7Zs8zXs9F8QLyP1yXLRx2crS29tLuVKu/zu5Rn49z69XQ9r7F5kTkYsbumPrHo6xye5TTdmMPOnfwpq6+ye3qnp6d/G6RSXTQAAAAAAAAAAAAAAAAAAAAAAAAAAAAAAAAAAAAAAAAAAAAAAAAAAAAAAAAAAAAAAAAAAAaRxj4tYfgxoa91JmJc6p/i7W0jLad1XafJTj5b7Nt+CTfgb2FiXM29Fq38Z6o60XtLaFrZmNVkXejhHXPRDk1xF4hZrihq6/1Hnrl3N9dz35d3yUYdeWnBN+7GKeyXz722dbxsa3iWotWo3R+avz3m5l7Pv1ZF+dZny7I7Gtm00gAAAAAAAAAAAAAADoT2Iu01LW2Pp6B1Pdupn7Ok3jrutLeV5RiutNt99SCW/nKKb74tvne3Nl+wqnJsx7s8Y6p9J+bsXJbbn6qj9Dkz78ftnrjq74847pW3Kg6GAAAAAAAAAAAAAAAAAAAAAAAAAAAAAAAAAAAAAAAAAAAAAAAAAAAAAAAAAAAAAAAAAPxtJNt7JeIHLLtccdZ8ZuJFanY1pPTOHlO1x8E/dqvfapX/AG2lt+io+O51XY+BGFj61fvq3z9I+HzcE5RbWnaeXMUT/To3R29c/H5aINJ5VQAAAAANo0nws1jrlKWn9MZXL0m9vbWlpOdJddus9uVfNmpey8ex/driO+W/j7Py8vfYtVVR2ROnjwb5Q7HXGK4oyqw0TcqMYqTU7u3hLZ+UXUTb9DQnbOBE6e18p9EtHJva1UaxYnxp9WB1D2ceJ+l6U6uR0PmI0oLeVW3tncQivNyp8ySNi3tLDuzpRdjx0+bUvbF2jYjW5Yq07I1+WqO6tKdGpOnUhKFSDcZRktnFrvTRIxOu+ELMTE6S8T0AAAAB92Bzl9pnNWOWxdzOzyNlWhcW9en9qE4vdP7/AAMdy3TdomiuNYlls3a7Fym7bnSqJ1iXXPgTxZs+NHDXF6mtoxo3FROhe20Xv7C4hspx+D3Ul+jKJyDPxKsLIqszw6O2H6J2TtCjaeJTkU7p4THVMcfWOxv5HpcAAAAAAAAAAAAAAAAAAAAAAAAAAAAAAAAAAAAAAAAAAAAAAAAAAAAAAAAAAAAAAAAgftocVqnDLgxfUrKt7LL52f4MtnF7ShCUW6tRePSCa3Xc5xZP7ExIysqJq/bTvn6eap8ptoTg4FUUT71fux9Z8POYctzqjgwAAAANu4XcKdR8X9T0sHpqxd1ctc9atN8tG3p77OdSX5K/e+5Js08rLtYdv2l6dI857kjgbPyNpXos49Os9PVEdcuhXBnsS6F4bW9veZu2p6u1BHaUri/p721KXlTov3dl5z5nut1t3HO83bmTkzNNueZT2cfjPo7FszkvhYMRVej2lfXPCO6PXX4LC0aNO3pQpUoRp0oRUYwgtoxS6JJeCK7MzM6yuMRERpDzPHoBoXEvgVofizaVKWpMBbXVzKO0L+lH2V1T8nGrHaXTye8fNM38XPycOdbNekdXR4InO2Vh7Qp0yLcTPXwnx4/RQLtF9jvPcGYV83iKtTUGkov3rpQ2r2m76KtFdNu5c66eaj036Ds3bNrN/p3Pdr8p7vRyHbXJu/syJvWp59rr6Y7/AF+SvJY1OAAAABab6P8A4rVNKcS7jSF3W2xmoYfiozfSF1TTlFry5o80X5vk8iqcocSLuP7enjR8p/PmvvI/aE4+XOLVPu3P/wAo9Y1jwdGjm7tAAAAAAAAAAAAAAAAAAAAAAAAAAAAAAAAAAAAAAAAAAAAAAAAAAAAAAAAAAAAAAAABzf8ApB9cy1BxjttP06vNaYCyhTdNdyr1fxk3/YdJfsnSuTtj2eLN2eNU+UbvVxXlhlzez4sRO6iPOd8+Wir5aVEAAADP6A0PlOI+sMVprDUva5DIVlShv9mC75Tl5RjFOT9EzXyL9GNaqvXOENvDxbmbfpx7Ue9VP5Pw4utPB3hFg+DGi7TT+Fox3ilO7vHHapd1tveqT/kvBbJHIszMuZt2btye6OqOp+hdm7Os7Mx4sWY756Znrn83N4NFKgAAAA8K1GncUp0qsI1KU4uMoTW8ZJ9GmvFHsTMTrDyYiY0lzR7ZXZwhwf1PTz+CouOk8xVkqdKK6WVx1k6P6rSbh6Jr8nd9N2LtL9Zb9ldn36fOOv1cQ5S7FjZt729mP6dflPV3dXh0K4FlUoAAAPv09nLvTOdx2YsKjpXthcU7qhNfkzhJSi/vSMdy3Tdom3VwmNGazdqsXKbtHGmYmPg7QaczltqfT2LzNnLmtMja0rui/OFSCnH9zRxS5bm1XVbq4xOng/TNi7TftU3aOFURMfHeyJjZgAAAAAAAAAAAAAAAAAAAAAAAAAAAAAAAAAAAAAAAAAAAAAAAAAAAAAAAAAAAAAAHHXjdqJ6q4v60yqn7SncZa5dKXX/ZqpKNP+6onZcG37HFt0dUR935u2pe/UZ16711T4a7vJpJvIsAAAL0fRycMaVPH6g17d0lKvUqfguxcl1hBKM60l8W6cU/0ZLxKHykyp51GNTw4z9HVuReDEUXM2qN8+7Hzn6eErsFIdPAAAAAAAaTxn4c2/FXhln9M14QlVvLaX1Wc/6u4j71Ke/htNLf0bXib2FkziZFF6Oid/d0ozaeFTtDEuY9XTG7v6J8XHerSnQqzpVIuFSEnGUZLZpro0zskTExrD83TExOkvE9eAAAB1T7GGoHqDs56UlObnWs41rKe/h7OtNQX9jkOUbat+zzrmnTpPjHq77yZve22Va14xrHhM6eWibSDWgAAAAAAAAAAAAAAAAAAAAAAAAAAAAAAAAAAAAAAAAAAAAAAAAAAAAAAAAAAAAADwq1IUac6k5KEIJylJ9yS72exGu6HkzERrLiLcV53VerWqPepUk5ye227b3Z3GI0jSH5cqmapmZ6XgevAAAA6udj3EU8P2c9GU6aW9ahVuZyS6ylUrVJ9fgml8jku2K5rzrkz0bvCH6A5N24tbKsxHTEz4zMpkIZZQAAAAAAADj5x9w8MFxs11Y0oeyo08zdSpw/NhKpKUUvTaSOx7Prm5iWqp/1h+cdr24tbQv0Rw50/NoRIIgAAAOj/wBHZdfWOBeRp7NewztxT3b7/wATQl/4jmvKONMyJ66Y+cu1cjKtdnVR1Vz8qZWhKsvYAAAAAAAAAAAAAAAAAAAAAAAAAAAAAAAAAAAAAAAAAAAAAAAAAAAAAAAAAAAAAHjOEakJRlFSjJbOLW6aHB5Ma7pcRbm3na3FWhU2U6c3CW3mns/4HconWNYflyqmaZmmeh6z14AAAHSDsv8AEm+q8CtLULZ0YxtaNS1a5N2nCrNdevitn8zmW1cemMy5M9O/xh2DYu0bsbPtU06bo08JlJstd5l91zFfClH/ACIr2NHUmf8AqGR/t5Q8P9OM3v8A+mf91D/I99jR1Pn9fkf7eUejyWusyu+6i/jSj/kPY0dT3/qGR/t5Q99PiFlod7oT/Wp/5M+fYUMkbSvx1Pqo8S7yP+1tKE/1G4/zZ8zj09EstO1Lkfuph91HiZRf+1sakP1Kil/FI+Jx56JbFO1Kf8qPNlbXXWIudlKvKhJ+FWDX71ujHNmuG3Rn2KuM6d7NW17b3kea3r060fOnJS/gYZiY4t6iumuNaZ1cgOPWZhn+NOub+lP2lGrmLpU57780I1ZRi16bJHYtn0ezxLVM/wCsPznta7F7aF+uOE1T82iEgiQAAA6QfR22n1bgXkKm7/1jO3FTqvKjQj0/snNeUc65kR1Ux85dq5GU83Z1U9dc/KI+i0BVl7AAAAAAAAAAAAAAAAAAAAAAAAAAAAAAAAAAAAAAAAAAAAAAAAAAAAAAAAAAAAB8mQy1ni6fPdXEKK8E31fwXez6ppmrgw3L1u1Gtc6NXyPEi3p7xsraVZ/n1Xyx+7vf7jZpx5/ylFXNp0xutxq5P8XMXLDcUNV2jgqajkq8oRXcoSm5Q/utHXMKv2mNbq7IcEz6OZl3Y/8Aqn5tSNxoAAABajsWa6gqeY0jcVEpuX1+0T/K6KNWK+G0Ht+syo7cx592/HdP0XTk9kxpXj1d8fX6LSlSXQAAAAAABqfFPXkOG+hMtnfa+zuaNJwtUns5V5bqml89m/RPyNzDx5yr1Nronj3dLSzMr9HYqva744d/Q5vznKrOU5yc5ye8pSe7b82dOiNN0OSTOu+X4egAAAdV+xtp16c7Omkac6fJWu6dW9m2tnL2lWcoP+w4HJ9s3PaZ1yerSPCPV37k1Z9jsqzE8Z1nxmZjy0TSQizgAAAAAAAAAAAAAAAAAAAAAAAAAAAAAAAAAAAAAAAAAAAAAAAAAAAAAAAAADD5fVWPw28atX2lZf1NLrL5+XzMtFuqvg072Xasbqp39TS8rr+/veaFslZ0n4x6zfz8PkbdNimnjvQd7aN25uo92PNrVWrOtUlOpOVScurlJ7t/M2IjTgi5map1mXiHilvbH0nLEcRLTNU6e1vlrWPNPbvrUvckv7Hs/vLzsS9z8ebc8aZ8p/Jc92/Y9nkRdjhVHnH20QIWJWQAAAyemdR3+kc/Y5nGVvYX1nVVWlPvW/imvFNbprxTZhu2qb1E26+Es1m9XYuRdtzvh0H4U8U8VxV01TyVhNUrqmlG8spS3nb1Nu71i+u0vFeTTS5xl4leJc5lfDonrdSws23m2ufRx6Y6m5mikAAAAAeq6uqNjbVbm5qwoW9GDnUq1JKMYRS3bbfckkexE1TpHF81VRTE1VTpEKLdozjT/wBKGoIWWNm1p3HSat9919YqdzqteW3SKfct/No6BszB/SW+dX++ePZ2Ob7W2h+sucyj9lPDt7fREBNIEAAAMlpnAXWqtRYzC2Mee8yFzTtaK8OaclFb+nUxXblNq3Vcq4RGrNYs1ZF2mzRxqmI8XZ/AYa205gsdibOPJaWFtTtaMdttoQioxX3JHFblc3K5rq4zOr9NWbVNm3Tao4UxER8H3mNlAAAAAAAAAAAAAAAAAAAAAAAAAAAAAAAAAAAAAAAAAAAAAAAAAAAAAAAAY7L6gssLT3uayU9t40o9Zy+X+Zkooqr4Na9kW7Ee/PwaDmtc32Scqdu3Z276bQfvv4y/yNyizTTx3q9fz7l3dTuhrbe76mwjAAAAivtJ8P5694ZXsbWk6uSxsvr1tGK6z5U+eK894OWy8WokvsvJjHyI53CrdKF2vizk4s8391O+Pr5KDHRHMQAAAAZ3Ret8zoDOUsthLyVpdQ92S74VY+MJx7pRfk/RrqkzXv49vIo9ncjWGzj5N3Fue0tTpK33DTtYaY1ZRpW2flHTeU2SbrS3taj841PyfhLbbzZS8rY96zOtr3o8/D0XvD23Yvxzb3uVeXj6+KbLS8oX9tTuLWvTubeot4VaM1KMl5proyBmmaZ0mNJWKmqKo1pnWHuPH0AaNrrjXo/h7SqLKZejO8intYWj9rXk/JxX2fjLZepv4+BkZP7Kd3XO6PzuRuTtHGxY/qVb+qN8/neqLxj7RWb4o8+PoReI0+pbqzpz3nW27nVl4+fKui6d7SZc8HZlvE96d9XX1dyi5+1rub7ke7R1dfeiUmUGAAAACwPY94fSzmsrjU1xT3ssRFwotrpK4mml/Zi2/RyiVzbWT7OzFmONXyWjYGL7S9N+rhT85+30XowusL/D8sOf6zbr+qqvuXo/D+BQa7VNTp9jNu2d2usdTf8ACapsc2lGlU9lX8aNTpL5efyNKu3VRxWGxl2r+6J0nqZgxN0AAAAAAAA/JSUIuUmlFLdt9yAjHWPaa4X6GnUpZXWWOdxT6St7KTu6ifk40lLlfx2JSzsvMyN9FudO3d80Fk7c2bibrt6NeqN8+WqJc99Irw8x7lDG4jO5aa7p+xp0ab+cp8393xJe3ycyqt9dVMeM/T6q9e5Z4FG63RVV8IiPnr5NTvPpLrGHN9V0BcVve2XtsrGnvHz6UpbP0/ebdPJir/K75fdHVcuKI/bjzP8A7afSX5ZfSXWM9vrfD+4oe9s/Y5aNT3fPrSj17+n7z2rkxV/jd8vuU8uKJ/djzH/tr9IbXg/pF+Ht84wyWGz2Lm++ao0q1NfNVFL+6adfJvKp/ZVTPjH0SFrlngV7rlFVPwiY+f0S3o3tOcL9dVadHFaxx6uZ9I2985WlST8kqqjzP4bkRe2XmWI1rtzp2b/ksWNt3ZuXOlq9GvVO6fPRJ8ZKcVKLUotbpruZFp1+gAAAAAAAAAAAAAAAAAAAAAAAAAAAAAAAAAA8ZzjThKc5KMIrdyk9kkHkzERrLSdQ8QOVzt8Zs33O5kv8K/mzct2OmpBZO0dNabPj6NHrVqlxVlUqzlUqSe8pSe7ZtxGm6EDVVNU61TrLwPXgAAAAAFEO0pwnnw71pUvbOk1g8tOVe3cV7tKpvvOl6bN7r0fozoOysz9TZ5tX7qePq5ptfB/SX+fTHu1b4+sIhJpBAAAAAAZLC6nzGm6kqmJy17i5y75WdxOk38eVoxV2rd3dcpie+NWW3eu2Z1t1THdOjaqfHniDSgoLVmRaX51RSf3tbmn/ANOxJ/8AjhvRtPMj/wCWWJzPE/V+oIyhkNTZW6pS76Uruapv9lPbx8jNRiY9v9lER8GC5mZN3dXcmfjLWTbaYAAAAAH3YLCXupMxZ4vHUZXF7d1Y0aVOPjJv9y8W/BGO5cptUTXXOkQyWrdV6uLdEazLorwx0DacNdGY/BWrVSVGPPcV0tvbVn1nP7+i8kkvA5nlZFWVem7V08O51fDxacOzTZp6OPbLajUbr9jJwkpRbjJPdNd6BE6b4bhp7X9W25aGS3rUu5V19uPx8/4/E1a7ETvpTWNtGqn3b2+Otvtvc0rujCtRqRq0pLdSi90zSmJjdKw01U1xzqZ1h7Tx9AAAB8uUytlhMfcX+Ru6FhY28eetc3NRU6dOPnKTaSXxPuiiquqKaI1mWO5cotUzXcmIiOMzuhUbjB9IXh8HOvjtAY5Z27g3F5S/UoWqfnCCanU+LcV8S34fJ25c0ryp5sdUcfSPNzvaXLG1a1t4NPOnrnh8I4z5KgcROPOveKVWr/pFqS8urWb/APQaU/Y2qXgvZQ2i9vNpv1LjjbPxsSP6VERPXxnxc5zNrZufM+3uTMdXCPCNzQSQRAAAAAAG98OuOuu+FdWL03qO8s7ZPd2VSXtbaXxpT3j80k/Uj8nAxsuP6tETPX0+KWwtrZuz5/7e5MR1cY8J3LfcHfpDMVmalPH8QsdHCXD2Ucrj4ynbSf6dPrOHxTkvRFPzOTtdHvYs86OqePjwnydG2byxtXZi3n082f8AaOHxjjHn8FucJnMdqTF2+SxN9b5HH3EeejdWtRVKc15qS6FQrt12qporjSYdEtXbd+iLlqqJpnhMPuMbKAAAAAAAAAAAAAAAAAAAAAAAAAAAAAAPjyeVtsRauvdVFCC6JeMn5JeJ9U0zXOkMN29RZp51co01Dqu6ztRw3dG0T92jF9/rLzJC3bijvVbJy68idOFPUwZmaIAAAAAAABrvEDQmM4i6Xu8HlIb0Ky5qdWK9+jUW/LUj6rf5rdPo2bONkV4tyLlH/LUysajLtTaucJ8p63PXXuhspw81Nd4TK0nCvRe8KiXuVqb+zOL8U/3PdPqmdJxsijJtxcocsysa5iXZtXI3x59rXjZaoAAAAAAAAAAAAAD9jFzkoxTlJvZJd7PBdDsxcCpaHx61Lnbbkz93DahQqLrZ0n5rwnLx8UunTeSKPtXaH6ir2Nqfdjzn0dB2Ns39NT7e7Hvzw7I9Z/OlPhXVnAAADKYPUN3ga3NQlzUm/foyfuy/yfqY66Irje2sfJrx51p4dSTcJnrXO2/tLee04/bpS+1H/wAvUj66JonSVqsZFGRTrT4MkY2yARjxx7Qml+BWEVzmazu8rXg3Z4m2a9tcPu3f5kN++b9dk30JTA2dez69Le6I4z0R9+xBbV2xjbJt867OtU8KY4z6R2/NzX4zdoLV/G3LTr5y+lRxkJ81tiLaTjbUF4e7+XL9KW76vbZdF0zC2dYwadLcb+memfzqcS2ntjK2pXreq0p6KY4R6z2yjUk0IAAAAAAAAAAEicHePer+CeWVzp/ISdjUmpXOLuG521x3b7x36S2S96Oz9duhG5mz7GdTpdjf0T0wmdm7Xytl186xVu6aZ4T+dcb3SngT2idMcdsM62Lq/UszQgneYi4mvbUfDmj+fDf8pea3SfQ5nn7NvYFele+meE9H2l27ZO2cba1vW1OlUcaZ4x6x2pTIpPAAAAAAAAAAAAAAAAAAAAAAAAAAAAMTqDUdtgLfmqP2leS/F0U+r9X5Iy27c1y08jKox6d/HqRdlMtc5i6lXuZ80n0UV9mK8kiRppiiNIVS7ervVc6uXxn0wgAAAAAAAAABo/FnhLieK+npWN8lQvqScrO/hHedCf8AOL6bx8fRpNb+HmXMO5zqeHTHWjc7Bt5tvmV8eiepQ7X3D3NcN87UxWatXRqLd0q0d3Srw3+3CXiv3ruaTOhY2TbyqOfbn7OaZWLdxLns7sek9zWzaagAAAAAAAAAAAPOjRqXFaFKlCVWrUkowhBbyk30SSXezyZiI1l7ETM6Qtz2eOzTLTla21Rqyink47VLPGz6q2fhUqec/KP5Pj1+zTNpbU9rE2bE7umevu7Pn871srZHsZi/kR73RHV2z2/Lv4WRKwtoAAAAAHvsr2vjrmFe3qOlVj3SR5MRVGkvuiuq3VzqJ0lJumNWUc7TVKptRvYrrT8Jesf8iPuWpo3xwWnFzKciObO6pHvaS7RWL4DaV9rtSv8AUt7Fxx+NlLv706tTbqqcX85PovFqS2Zs2vaFzThRHGfpHajNt7ZtbJs68bk/tj6z2R58HLrWWs81r/UV5nc/kKuSyd1LmqV6r8PCMV3Riu5RXRLuOp2LFvHtxbtRpEOD5OTey7s3r9XOqlhTO1gAAAAAAAAAAAAMxpDV2X0JqKxzuCvqmPylnP2lGvSfd5prucWt00+jTaZgvWbd+3Nq5GsS2cbJu4l2m9Zq0qjpdQ+zR2jcbx70vOc4UsfqaxSV/joy3Wz6KrT36uEvvi+j36OXLdp7Nr2fc66J4T9J7Xd9h7at7Xs6zuuU8Y+sdny4d8ykKsoAAAAAAAAAAAAAAAAAAAAAAAAAMLqXU1HAW23SpdTX4ul/N+n8TNbtzXPY0crKpx6euqeCLby9rZC5ncXFR1Ks3u5MkYiKY0hU666rlU1VTrL0Hr4AAAAAAAAAAAAAwesdEYXXuGqYvOWNO9tZdY83SdOXhKEl1i/VfDu3NixfuY9fPtTpLWyMe1k0ezuxrCn/ABV7KuodG1K99p+NTUGGXvKNOO9zRXlKC+1t5x+aRdMPa9q/EU3fdq8pUPN2Jex5muz71PnHw6fgg5pxbTWzXRpk+rgAAAAAAAAA3Lh5wi1PxMu1TwuPlK2Utql9X9y3p/GXi/SO79DRyc2zixrcnf1dLfxMC/mTpap3dfQuNwg7PGA4WqF7L/rbPOOzv60ElS81Sj+T8er9duhSc3aV3L93hT1eq/YGyrOF737q+v0SqRCbAAAAAAAAMFrbXdlw303eahvqsqdOzjzQjTe06lT8mEfVvZfv7kbGPj1ZVyLVPS1sjKpw7c36p4fNz04j8RM1xR1ff6jz1zK4vrqXSO/uUaa+zTgvCMV0+9vq230nGxreJaizbjdH5q5bm5l7Pv1ZF+dZny7Ia0bTSAAAAAAAAAAAAAAANm4b8RMzwt1hj9SYK4dC+tJ7uDb5K0Pyqc0u+Ml0a+a2aTNXJxreVamzcjdP5q3sHNvYF+nIszpMecdU9kut/C7iRiuK+h8XqfDz3trynvOi5Jzt6q6TpT/Si+nr0a6NHIcrGrxL1Vm5xjz7X6HwM21tDHpybXCfKemJ7m1mokAAAAAAAAAAAAAAAAAAAAAAABidR6gpYCydSW068+lKnv8Aafm/RGW3RNc6NPJyacejWePQim9va2QualxcTdSrN7uTJKIimNIVGuuq5VNVU75eg9fAAAAAAAAAAAAAAAAA0LX/AAN0fxGc6uUxio38v/X7J+yr/FtLaX7SZI420MjF3UVbuqd8IzK2bjZe+5Tv643T+d6vur+xbnLGVSrpzMW2UorqqF4nQq/BNbxk/V8pY7O3bdW69TMd2+PzxVa/yeu077FUTHbun0+SGtX8LNWaDpqrnsHdWFByUFcNKdLm8F7SLcd+j6b+BN2cuxkbrVcTP50IC/hZGNGt6iYjy8WrG40gAB9+DwGS1LkIWOJsLjI3k02qFtTc5bLvey8F5mO5cotU865OkdrJbtV3quZbpmZ7EtaV7JOu89KMr+hbYG3fVzvKylNr0hDd7+kmiGvbZxbf7Zmqez7p2xsPLu/viKY7fsnPQvZG0hpl0rjMSrakvY7Pa4/F26fpTXf8JSa9CAyNs5F3db92PPxWTG2FjWd9z357eHh66pstLShYW1O3tqNO3t6ceWFKlBRhFeSS6JEDNU1TrM6ysNNMUxzaY0h7Tx9AAAAAAAAAClfa14nT1RrFaZtKn/VmGk1U5X0q3LXvP9le76Pn8y9bGxPZWvbVcavl9+Pg57tzMm9e9hT+2n5/bh4oGLCrIAAAAPrxGHv8/kaOPxllcZG+rvlpW1pSlVqTflGMU2z4rrpt0zVXOkR1slu1Xeqii3TMzPRG+VkuH30fvEHVNGlc565sdJ2s0n7O5br3Oz/3cOi+Dmn6FZyOUOLanS1E1z4R4/ZdsPkfnZERVfmLcdu+fCPVMGL+jY0xSobZHWOWuq2y9+1t6VCPr7suf08SHq5TXpn3LcR4z6LHb5E40R/UvVTPZER6vzKfRsaZrUGsbrHLWlbZ7TuralXjv4e7Hk/iKOU16J9+3E90zHqXOROPMf071UT2xE+iIOIP0fnEHS1Kpc4C5sdW20Fv7O3l9XudvH8XN8r+Cm2/LzmMflDi3d12Jonxjxj0VzM5H51iJqsTFyOzdPhO7zVvzOEyGnclXx2VsbnG39CXLVtbulKlUg/Jxkk0WWiui5TFdE6xPUpV21cs1zbu0zTVHRO6XxGRiAAAABaDsG8af9BeIU9I5Gvy4bUcowo8z92jeLpTf7a9x+b5PIq238L29j29Ee9R8unw4+K98ktp/pMr9Lcn3LnDsq6PHh4OkBzV2oAAAAAAAAAAAAAAAAAAAAAA+TK5OhiLKpdV5bQh3Jd8n4JH1TTNc6Qw3btNmia6kR5bK18xe1LmvLeUuiiu6K8EiUppiiNIU69eqvVzXU+M+mEAAAAAAAAAAAAAAAAAAACDO2N/RLR/5nR/wVCf2J/Knun6K3t/+J8Y+qkpfHOwABNHZE/pit/+Dr/wRBbZ/iT3wsGwv5kd0rylBdIAAAAAAAAAAABrXErV0dC6Ezedbjz2dtKVJT7pVX7tNP4ycUbWLZ/UXqbXXPl0tPLv/prFd3qjz6PNzbubmreXNW4r1HVrVZupOcu+Um92382dPiIpjSHJKpmqZmeMvWfTwAAAJC4IcEc/xy1dTw+Hp+xtaW077JVIt0rSk33vzk9nyx72/JJtRudnWsG17S5x6I60xsrZd/at/wBla3RHGeiI9eqOl074PcCNJcE8NGz0/YRd7OCjc5S4Slc3L/Slt0j5Rjsl5b7t8vzM+/nV867O7ojoh3TZuycXZdvmWKd/TM8Z/OrgkMjkyAAAEe8YOBOkuNeFlZagsI/XIQcbbKUEo3Ns/wBGW3VecXun5b9SRws+/g1861O7pjolD7S2Ti7Ut8y/Tv6JjjH51cHMTjfwP1BwN1bPD5mHtrStvUsMlSjtSu6Se26/NkunNB9Vuu9NN9Qwc61n2vaW+McY6vzrcL2psq/sq/7K7vieE9Ex69cdHmjwkkMAAAHttLutYXVG5tqs6FxRnGpTq03tKEk900/Bp9T5mIqiaZ4S+qapoqiqmdJh2H4McQqfFLhfp3VEEo1L+1i68I90K8W4VYr0U4y29Njjebjzi5Fdnqny6PJ+kNmZkZ+HbyY/yjf38J826GkkwAAAAAAAAAAAAAAAAAAAPGc40oSnOSjCK3cm+iQ4vJmIjWUU6q1DPO375W1a0m1Sj5/pP1ZJWqOZHaqOXkzkV7uEcGEMzRAAAAAAAAAAAAAAAAAAAAAQZ2xv6JaP/M6P+CoT+xP5U90/RW9v/wAT4x9VJS+OdgACaOyJ/TFb/wDB1/4Igts/xJ74WDYX8yO6V5SgukAAAAAAAAAAAArn21NTOx0hhMHTnyzv7qVeol4wpR7n6OVSL/ZLNsK1zrtd2eiNPH/hU+UN7m2aLUf5Tr4f8qfF1UMAAAPqxGKu87lLPG2FCVzfXlaFvQow+1UqSkoxivVtpHxXXTbpmuqdIhkt26rtcW6I1mZ0jvl1z4D8HcbwT4e2GAs406l64qtkLyK63Nw170v1V9mK8El47t8gz8yvOvzdq4dEdUP0RsnZtvZeLTYo48Znrn84diQyOTIAAAAAEf8AHPg/jeNfD2/07fKFK6a9tYXjXW2uEnyT+D35ZLxjJ+OzJDAzK8G/F2nh0x1wh9q7Nt7UxarFfHjE9U9E+vY5GZvDXmncxfYrI0JW1/Y1521xRn3wqQk4yT+DTOv266blEV0TrE7353u2q7Nyq1cjSqmdJ74fEZGIAAAOgP0cGsp5LQmp9M1Z8zxd7TuqKb6qnWi00vRSpN/GZz3lJZ5t6i9H+UaeH/Lr/IrJmvGu48/4zEx3T9481vynOjAAAAAAAAAAAAAAAAAAAAaPxA1C4L8GUJ7NpOu15eEf5v5G5Yo/ylA7RydP6NPx9GiG4gAAAAAAAAAAAAAAAAAAAAAACDO2N/RLR/5nR/wVCf2J/Knun6K3t/8AifGPqpKXxzsAATR2RP6Yrf8A4Ov/AARBbZ/iT3wsGwv5kd0rylBdIAAAAAAAAAAABTLto5KVxxHxdlu/Z22MhLZ/nTqVN/3RiXjYVGmPVV1z9Ic/5QV65NNPVH1lX8sargAABYfsJaZtM3x2s8hfRToYm2qXNNyW8fby2p09/wC3Jr1iiubeuzbw5op/ynT4cZXDkpZoubSprucKYmY7+EOnJy93UAAAAAAAA5qdv3RFPTPG1Za3pqFDPWVO7nyrZe2g3Tn96hCT9ZM6ZyevzdxOZP8AjOnw4uI8r8WLG0Pa08K4ifjG6flCtRZ1IAAAC1v0ceVqW3F/PY/f8RdYWdSS2/LhXpcr+6c/vRUuUlETi01dVXziXQORdyac65b6Jp+Ux6y6JnOXZQAAAAAAAAAAAAAAAAAAY7P5eGFxlW5ls5r3acX+VJ9y/mfdFPPq0a2ReixbmufgiCvWncVp1asnOpNuUpPvbJSI0jSFMqqmqZqnjLwPXgAAAAAAAAAAAAAAAAAAAAABBnbG/olo/wDM6P8AgqE/sT+VPdP0Vvb/APE+MfVSUvjnYAAmjsif0xW//B1/4Igts/xJ74WDYX8yO6V5SgukAAAAAAAAAAAAo12uv6Yrn/g6H8GX7Yv8SO+XN9u/zJ7oQuTqvgAABaHsOU6f1vWNVtKvGFpGHXryt1t/3qJU9vzOluOjf9Fy5N6a3Z6d31dA9IZ38NYtOpLe5o7QqevlL5/xTOfXaOZV2OyYWR7e3v4xxZwwt8AAAAAABRv6TGjTjccO6qX42UchGT38E7Zrp85F65MTOl6P/H6uV8uIjXHn/wAv/wBVIy8uXAAABZb6Pj+nuf8Ayi5/xUyscof4X/tH1Xfkd/8A6X/rP0dKjmbtwAAAAAAAAAAAAAAAAAAIw1xmvwnlJUKct7e23gtu5y/Kf8vkSNmjm069aq59/wBrc5scIa2Z0YAAAAAAAAAAAAAAAAAAAAAAfDls7jMDQ9vk8jaY6j/2l3XjSj98mjJRbruTpREz3MVd2i1GtyqIjtnRW/tTcVtJaq0DTw+HzltkshG+p1nTtuaceRRmm+dLl8V4ln2Rh37N+blynSNPRU9tZuPex/ZW64mdY4fH4KoFwUgAASf2cNX4jRHEy3yecvFYWKtqtJ1pQlNKUl0W0U38yJ2nYuX8aaLcazrCZ2Rft42VFy7OkaSu5geI+ldTzjTxWocbfVpbJUaN1B1PT3N+b9xQ7mLftb66Jj4OiWsvHvbrdcT8WxGs2wAAAAAAAAAApR2yce7XirbXHLtG6xlKe/m1OpF/uii97Dq1xpjqmfo55t+nm5cT1xHzlBJYFaAAACwHYx1DDHcQsliqkuVZGybp/pVKclJL+y5v5Fc25bmqxFcdE/P8haOT92KMiq3P+UfL7arx6XzLwmVp1W2qE/cqr9F+Py7yhXKOfTo6ZiX/AGF2KujpS4mpJNPdPqmiMXF+gAAAAAA52/SLarp5XithcHRmprEY1Sq7PrGrWm5OL/YjTf7R0bk3ZmjGquT/AJT8vyXGuWeRFzNosx/hT5zPpEKoltc/AAAC0X0dePldcbsncbPktsJWlv4butRil9zf3FV5R1aYkR11R8pXzkZRztoVVdVE/OHR45s7SAAAAAAAAAAAAAAAAAGH1VmPwNh6tWL2rT/F0v1n4/Jbsy2qOfVo0su97C1NUceEIk7yTU8AAAAAAAAAAAAAAAAAAAD1XN1RsrepcXFaFChSi5zq1ZKMYRXe230SPYiap0ji+ZmKY1mdyE9f9rbSWlnUtsNGepb6L23t5clvF+tVp837KafmiextjX72+57sefh6q9lbcx7OtNr357OHj6K/ax7UWvNVynToZCOCtW+lLFxdOW3hvUbc9/g18Cx2Nk4tnfMc6e304KtkbZy7+6KubHZ68UWX+Ru8pczub26rXlxP7VavUc5v4tvclqaaaI0pjSELVXVXPOqnWXzn2+QAAAAAN10pxo1royUPwZqG8jQj0VtcT9vR28lCe6Xy2ZoXsHGv/voj5T5JCxtDKx/7dc6dU748066G7acJzp2+rcOqaeyd7jN2l6unJ7/NS+RX8jYUxvsVfCfVZcblDE7sin4x6fdYbSWucBrqw+uYHKW+Sor7SpS2nT9JQfvRfxSK3ex7uPVzbtOi1WMmzk086zVrDOmu2QAAAAAAFX+25p5zstM5yEXy06lWyqy2/OSnD/DULZsG5vuWp7J/PJTeUVrWm3djtj0+qqRb1JAAADL6Q1Nd6N1NjM3YtfWbGvGtGLfSaT6xfo1un6MwXrVN+3Vaq4Sz2L1WPdpu0cYl0g0nqew1lp2xzWMqqtZ3dNVIPxi/GL8mnumvNM5jetVWLk26+MOtWL1GRbi7bndKZNB5j8I4n6vUlvWttodfGP5L/l8iJvUc2rXrXDZ972lrmTxp+TZTXSgAAAAMHrfWWM4f6TymosxXVvjsfQlWqyb6y27ox85Se0UvFtGexZryLlNq3G+WrlZNvDs1X7s6U0xr+d7j3xC1re8RNbZvUuQf+tZO6ncShvuqcW/dgn5RjyxXpFHY8axTjWabNHCI0fnDMyq83IryLnGqdft8I3NfNlpgAABej6NbSbhj9aanqQ3VSrQxtCflyp1Kq+fPS+4ofKa971uzHbP0j6uq8iMfSi9kT06Ux8N8/OF2CkOoAAAAAAAAAAAAAAAAABGevst9ey31aEt6VsuX4yff/JfIkLFOlOvWq+0b3tLvMjhT82sGwigAAAAAAAAAAAAAAAAAARXxa7Q+neF8atmpfhfPJdMfbyW1N7dHVl+R4dOsuq6bPcl8LZt7L97hT1+iFztq2cPWn91fV69XzU84icY9U8TbiTzGQaslLmp4+23p28PL3d/ea85Nv1LrjYNjEj+nG/r6VCy9oZGZP9Srd1Rw/O9pJvo4AAAAAAAAAAAH34PPZHTWSpZDFXtfH3tL7Fe3m4yXp070/FdzMdy3Rdp5lcawyWrtdmrn250lZ3hJ2voV3RxmuIRpTe0YZihDaL/9rBd360enou8qmZsWY1rxvD0XLB29E6W8vx9Y9Fm7O8t8ha0bq1r07m2rRU6dalJShOL7mmujRVaqZpnm1RpK4U1RXEVUzrEvcfL6AAAD03l7b461q3V3XpWttSjzVK1aahCC8230SPqmmap5tMay+aqqaImqqdIhVbtIdoHS+r9M3elcNRqZacqsJvIp8lGlKEt94bree63XcltLdNlt2Xs2/ZuRfuTp2dP2Ura21Me/anHtRzu3ojTq61YS2KcAAAACXuz/AMd7jhXk5Y/Ic9zpu7qKVanHrK3n3e1gvu5l4pLxXWF2js+MunnUbq48+xO7L2nOFVzK99E+XbH1X74c6wsbqvY5THXlK9xl5HlVejLmhKLffv6PvXetmjnmRZqp1orjSYdU2flURXTconWmUzkSugAAAY/P6gxulsPd5bL31DHY21g6la5uJqMIR9W/uS72+iMlu3Xdqii3Gsyw3r1uxbm7dq0pjjMuafav7UdfjflYYfCe2s9HWNTnpU6q5Z3lVbr2014JJtRj4J7vq9l03ZGyowafaXN9c+UdXq4jyg29O1K/ZWd1qnznrn6R+RXssSnAAAAA61dlzh6+GvA/TOLrUnRv69D6/eRktpKrW99xl6xTjD9k5FtXI/U5ddccI3R3R+av0LsHD/Q7OtWpj3pjWe+d/lw+CViJWAAAAAAAAAAAAAAAAAfJlr+OLxtxdS2apQbSfi+5L5vY+qKedMQw3rkWrc1z0IZq1JVqk6k5OU5tyk34tktwUmZmZ1l4h4AAAAAAAAAAAAAAAAPyUlCLlJqMUt233IPFXOPHamlQqXGn9E3KUo707nMU+uz6pxo//wB/7Pgy2bO2RrEXcmO6PX08VN2ntrSZs4s99Xp6+HWqxVqzr1Z1as5VKk5OUpze7k33tvxZboiIjSFKmZmdZeJ6AAAAAAAAAAAAAAAEm8HePOc4UXkKEZSyOBnPetjqkukd++VN/ky/c/FeKis3Z9rMjXhV1+qYwNp3cGdONHV6dS8mjNbYfX2Co5fCXcbq0qdGu6dOXjCcfCS8vmt00yg37FzHrm3cjSXR8fIt5VuLlqdYZw12y/JSUIuUmoxS3bfcg8QnxO7VWmdF+1s8M46jysem1vPa2pv9Kot936R3+KJ7E2Rev+9c92nz8FezNt2MfWm179XZw8fRVDiDxc1PxLunPNZGU7ZS3p2ND3KFP4QXe/WW79S342FZxY0txv6+lSMrOv5k63at3V0NON5oAAAAAAANu4e8VtS8Mr118HfunRm06tnWXPQq/rR8/VbP1NLJw7OVGlyPj0t7Fzr+HVraq3dXRK5vDb6RXTl1Z29prLB3uKuoRUJXlg1cUZ7flOLalH4LmKXk8m7tMzVYqiY6p3T6fJ07B5Z480xRl0TTPXG+PWPNM2I7XPCLM0IVaOtrKhzNLkvKdWhJP1U4r7+71IWvY+dROk2p+Gk/JZrfKLZV2NYvxHfrHzh55XtacI8RRqVK2uLCqoPlcbWNSvJv0UIvfu7+48o2RnVzpFqfju+b25yh2XbiZm/Hw1n5Qh/iF9IvpfFUqtDR+EvM7dd0bq+/1a3Xql1nL4NR+JM43Ju9XOt+qKY7N8+nzVzM5Z41uJpxaJqnrndHr8lO+LHHjWnGa+VbUuWlVtacuahjrZeytaP6sE+r/Sk3L1LlibPx8KnSzTv6+lzfaG1svadWuRXu6IjdEfD6zrKPyRQ4AAAAJq7I3B6fFvi7j4XNB1MDiJRyGRk17soxf4ul+3NJbfmqb8CD2vmfo8WdJ96rdH1n4fPRZ+TuzZ2jnUxVHuUb6vpHxny1dVjlDvwAAAAAAAAAAAAAAAAAabxIyHs7O3sovrVl7SW3ku772/3G3j075qQm07mlEW46UfG6roAAAAAAAAAAAAAAAANpLd9EgKd9pLtCz1PcXGltM3TjhqbcLy8p9HdST6wi/wDs1/efp33XZezfZRF+9HvdEdX3+ShbX2r7aZx7E+70z1/b59yuxZlUAAAAAAAAAAAAAAAAAABuPC3ill+FWooZLGz9rb1No3VlOW1O4hv3Pya67S8PVNp6OXiW8u3zK+PRPU38LNuYVzn0cOmOtbTP9rHRWJ01aZG0q1cnf3VL2kMZRW1SlL82rLuhs+ni/FJop1vY+TXcmirdEdPp1rxd23i0WorpnWZ6PXqVi4mcf9V8S5Vbe6uvwdiJPpjrJuNNr9N98/n08ki14mzrGLviNauufzcp+ZtTIzNaap0p6o+vWjclEQAAAAAAAAAAAAAAAAAAAAA+rFYu7zeStMdYW9S7vbqrGhQoUlvKpOT2jFLzbaPiuumima6p0iH3bt1Xa4t0RrM7oh1e7NPA+34G8OLfFTcK2bvGrrJ3EO6VZrpCL/NgvdXn1fTm2OS7Tzpz781/4xuju+79BbD2XTsrEi1O+ud9U9vV3R90sESsAAAAAAAAAAAAAAAAAARTrW++u6huNnvCjtRj8u/97ZJWadKFRzrntL9XZuYIzNAAAAAAAAAAAAAAAAAVt7VnG2WEtaui8JXcb+4gvwjcU5bOjTa6Uk/zpLv8ovbx6WjY+B7Sf1FyN0cPX4KjtvaPs4nFtTvnjPVHV8fkqIXNRQAAAAAAAAAAAAAAAAAAAAAAAAAAAG1aQ4Waq13bXNzg8Lc3ttbwlOddLlg9l1jFvZSl+it31NO9l2MeYi5VpMt3HwsjJiarVEzEfni1epTnSqSpzi4Ti3GUZLZprvTRtxOu+GlMabpeJ6AAAAAAAAAAAAAeVKlOtUhTpwlUqTajGMVu5N9ySPJnTfJETM6Q6H9jTsq/9HtnQ1tq2021Rcw3srKtH3sdTaacpL/tZJ/GKe3e5Jc621tb9RM49ifcjjPX9vm7LyZ2B+jpjMyo/qTwj/WPWfLxWvKk6AAAAAAAAAAAAAAAAAAHruK8ba3q1p/Ypxc38Et/5HsRrOj5qqimmap6EJ1qsq9WdSb3nOTlJ+bZLRGm5RZmapmZeB68AAAAAAAAAAAAAAANO4tcRLbhjoe/zVblncpextKMv62vJPlXwWzk/SLN3Dxpy70W44dPcj87Lpw7FV2ePR3udmUyd1mcjdX97Xlc3lzUlVrVpvdzlJ7ts6XRRTbpiimNIhyquuq5VNdU6zL5j7fAAAAAAGyaJ4caj4hXjt8Bi619yNKpWS5aVLf86b6L4b7+Rq38qzjRrdq0+bbxsS/lTpZp1+XisJo/sUR5Y1dUZ6XM0t7XFR22/wDeTXX+z8yt3tu9Fmj4z6R6rTj8nY45Ffwj1n0SphuzNw5w0I7afje1F31b2vUquXxi3y/ciIr2rl1/56d2ibt7Hwrf+GvfMy2Klwd0LRhKEdH4RqXfz2FKT+Tcd18jWnNyZ/8AknxltRgYkf8AxU+EMdkOAHDzJw5K2lLCC87dSov74NMyU7Ry6OFyfn82KvZeHXum3Hw3fJH2p+xlpTJU6k8Lkb7DV39mM2riiv2XtL+8SVrbl+n+5EVR4T+fBF3uT+PX/aqmmfGPXzQPxC7Nms9Awq3P1NZnGU1u7zHbz5V5zh9qPq9ml5lhxtqY+R7uvNnqn1VnK2Rk42tWnOp649OKKyXQoAAAAAAAAAAbDovh/qDiBkVZYHGVr6omvaVIranSXnOb6R+b6+G5rX8m1jU867Vo2sfFvZVXNs06rTcMeyDhsD7K+1ZWjnL5bSVnS3ja0369zqfPZeaZUcrbVy5rTYjmx19P2XTD2Date9kTzp6uj7rA2lpQsLanb21Gnb29OPLClSgowivJJdEiuTVNU6zOsrRTTFMc2mNIQfx27NNpr9185p9U7DUT96rTb5aV58fzZ/pdz8fNT+z9qVY39K7vo84+yubS2RTla3bO6vyn7/kqa5vBZDTeTr47KWdWxvqEuWpQrR5ZR/zT8GujLvbuUXaYronWJUC5ars1zRcjSYfCZGMAAAAAAAAAAMlpvTOV1fmrXEYSwr5PJXMuSlbW8OaUn/JLvbfRLqzFdu0WaJuXJ0iGexYu5NyLVmmaqp6IdDuzB2NLHhVVttTasdHKarilOhbx96hj35xf5dT9LuX5P5z51tTbVWXE2bG6jzn7Ox7C5NUbPmMjK9650R0U+s9vh1rQFWXsAAAAAAAAAAAAAAAAAAGE1ndO105eNPaU0qa+b2f7tzNZjWuGhm18zHq7dyJySVEAAAAAAAAAAAAAAAAUi7WXEOWqtfvCW1Vyx2ETo7J9JXD/ANo/lso+nLLzL5sbG9jY9pPGr5dHq51tzL9tkeypndR8+n0QeT6uAAAAAAWL4Gdlmrqehb57V8atpi57VKGOTcatzHvUptdYRfl9p+i2brOfteLUzax989fUtezdizeiL2Tup6I6Z7+qPNbbEYexwOPo2ONs6NjZ0ltChbwUIR+SKbXXVcqmqudZXm3botUxRRGkQ+w+GQAAAAACF+MPZlwfEGlXyGHjSwmoHvL2lOO1C4flUiu5v89devVSJzC2rcxvcue9T5x3eivZ+x7WVE12/dr8p7/X5qW6l0xk9IZm5xOXtKllfW72nSqL7mn3NPvTXRl5tXaL9EXLc6xLn16zcsVzbuRpMMYZmEAAAAADJae01ldV5Knj8Pj7jI3k+6lbwcml5vyXq+iMVy7RZp59ydIZbVm5fq5lqnWVmeGPY4p0vZX2trr2su/8FWc2or0qVV1fwj/aZVcrbczrTjR8Z+kevguGHsCI9/Kn4R9Z9PFZTC4LHacx1KwxVlQx9nSXu0LemoRXrsvH172Ve5cru1c6udZW63botU8y3Gkdj7jGygADUuIXCzTnE3HfVc3YqpVjFqjeUvcr0f1ZeXo915o3MbLvYlXOtT8OiWjlYVnMp5t2Pj0wqfxH7JuqdKVKtzgovUuMXVewjy3MF5On+V+xu35IuGLtixe3Xfdny8fVSMvYeRY1qs+/T5+HohK4t6tpXqUa9KdGtTk4zp1IuMotd6afcyeiYmNYV2YmmdJ4vA9eAAAAAAe6zsrjI3VK2tKFW6uasuWnRowc5zfkkurZ81VRTGtU6Q+qaaq5immNZlYrg32GtccQq9O71FSqaOwiacpXtL/W6q8VCi9nH4z280pFczdu4+PHNte/V2cPH0XPZnJXMzJ52RHs6O3jPdHr5r6cKOCOkODOJ+p6axcKFacFG4v63v3Nxt4zn5b9eVbRXgkUDLzr+bVzr1Xw6Ida2fsvF2ZRzMenSememe+fpwb4aCWAAAAAAAAAAAAAAAAAAAA0/iVccmNtaG/+0quX3L//AEbWPG+ZQu1KtLdNPXKPDeVwAAAAAAAAAAAAAAA1/iBqqnonRWaztTZ/UraVSEZd0qndCPzk4r5mzjWZv3qbUdMtXKvxj2K7s9Ef8Oa1zc1by5q3Feo6tarN1Jzl3yk3u2/mzqERFMaQ5FVM1TMzxl6z6eAAAAAsn2XOAtLPunrDUVsquPpy/wCr7OqvdrzT61ZLximtkvF779F1q+1toTb1x7U7+mersW7YuzIu/wDc3o3dEdfat0UxegAAAAAAAABGvHDg1Y8V9OTjCFOhnrWDdleSW3Xv9nN+MH+5vdeKcpgZ1WHc/wDpnjH1RG0dn0Z1vThXHCfp3KC5PGXWGyNzYX1CdteW1SVKtRqLaUJJ7NP5o6JRXTXTFVM6xLmNdFVuqaK40mHzH2+AAAAAWz7E+pberic/gZQpQvKNWN5CailOpTkuVptdWoyS7/zynbdtTFVF3ond+fnQvHJ29TNFdnpjf8Pt9VmiqrgAAAAAAA13VnDrTOuKXJncLaZF7bKrUhtVivJVFtJfJmzZyb2PP9KqY/OpqX8Sxkxpdoifn48UO6k7F+l8jOdTD5a/w8pd1Ooo3FOPwT5ZffIm7W3L9O65TFXl+eCBvcn8evfbqmnzj180fZXsU6nt3J47OYq8ivCuqlGT+SjJfvJKjbtmf30THhPoiq+Tt+P2VxPjHqxlj2LOJmUrVqVlaY66qUo8+0b6MeZb7dOZLz8djLO3MOnfVMx8Hza5N596ZptxEzHazFp2A+LFxKmqltibVSW7dW/T5Onc+VP4dNzFPKDCjhMz8G5TyQ2nVximPj6NrwX0b2s7rleX1PhMdF+FrGrcyS9U4wW/z+Zq3OUuPH9uiZ79I9Uha5FZdX927THdrP0hLGjPo6dD4dwqaizeU1FWi+tOly2dCS9Yrmn900RF7lJk17rVMU+c+nksGNyMw7e+/XNc/wD2x9Z81g9B8JdHcMrZ0dL6dscRuuWVajT5q015Sqy3nL5tldyMu/lTrermfl4cFxxNn4mDGmNbin5+PHzbaaiQAAAAAAAAAAAAAAAAAAAAAAI+4l1+a+s6P5lNz+97f+E3seN0yru1Kvfpp7Pz5NNNpCAAAAAAAAAAAAAAAFe+2fqWWO0HisNTnyzyd45zX51Okt2v7U6b+RZNhWudfquT/jHz/JVblBe5mPTaj/KfKPvopsXdQAAAAAbfwm0DW4k67xmEpqSt6k/aXVSP9XQj1m/jt0Xq0aWZkRi2ark8ejvb2Dizl36bUcOnu6XRbHY+2xNhb2VnRhb2lvTjSpUoLaMIRWyS+SOZ1VTXVNVU75dXoppopimmNIh9B8vsAAAAAAAAAAKqdsfhlToTtNa2FFRdWUbXIqK75bfi6j+S5X8Ilv2JlTOuNVPbH1j6+Kk7fw4jTKojsn6T9PBV0timgAAAAlPsyak/0c4xYXmly0b/AJ7Gp6869xf21AiNq2va4lXZv8PsmtjXvZZlHVO7x++i/Rzt04AAAAAAAAAANk4fV/ZahjH/ALWlKH8//Ca9+NaEns2rS/p1wk8j1qAAAAAAAAAAAAAAAAAAAAAAAAAAAjPiHU58+l+ZRjH97f8AMkLH7FW2lOt/4NYNhFgAAAAAAAAAAAAAAFNe2ll3dcQcRjlLeFpjlUa8pzqT3/dCJd9hUaWKq+ufkoHKG5rkU0dUfOZV8LIqwAAAALadijSUKGGzupatP8dcVVY0ZPwhFKc9vRuUf7BTdu3ta6bMdG/8/OleOTtjSiu/PTuj8/OCzJVlwAAAAAAAAAAABr/EHStLWuic1g6sVL67bSpw3/Jqd9OXykov5GzjXpsXqbkdE/8ALVyrEZFiu1PTH/Hm5qVKcqVSUJxcZxbjKLWzTXgdRidd8OQzGm6XiegAAAfdgcnLC5vHZCDanaXFOvFrv3jJS/kY7lHPoqonpjRktV+zuU19UxLp9CcakIyjJSjJbqSe6aOUcHY+L9D0AAAAAAAAAZnR1T2epLF+cnH74tfzMV39kt3CnTIpS0Ri4AAAAAAAAAAAAAAAAAAAAAAAAAAARZrp76luV5Rgv7qJGz+xU9ofyKvg18zo4AAAAAAAAAAAAAAAod2rLt3PGvM092/q9G2prdd34mMv/EdC2PTph0z16/NzTbdWubXHVp8kRkyggAAAAX+7M+MWL4Lacjt79eFW4k/Pmqza/dsvkc52pXz8uvs0jydP2PRzMK326z5yk8ikyAAAAAAAAAAAABzc4r42OI4maqtILlp08ncci222i6kmv3NHT8Orn49urshyTOo5mVcp7Z+bVTcaQAAAAOmmi7n65o/BXD33q2FCfvPd9aafU5Xfjm3a47Z+bsGPPOs0T1xHyZkwNgAAAAAAAAAZHTcuXPY9/wC/gv3mOv8AZLZxd1+jvhMRFroAAAAAAAAAAAAAAAAAAAAAAAAAABFOuP8A8z3v7H+CJJWf2QqOf/Iq+HyhgjM0AAAAAAAAAAAAAAACg/ajhKHHHUjaaUlbOLfivq1JfxTOibJ/hUfH5y5jtmP++ufD5Qiol0KAAAADoZ2fasa3BvSsoPdK05fmpyT/AHo5ttGNMu5r1up7LnXCt6dSQSNSoAAAAAAAAAAAAHOvjnXVxxe1bNLZLIVIf2Xy/wAjpez40xbcdjlO0p1zLve0YkEaAAAADpbw8g6egdNQe+8cZar3u/8A2Ue85bk/36++fnLr2LGmPbjsj5NgNZtAAAAAAAAAD79P9M5jtv8A9RT/AMSPiv8AZLYxv71HfHzTIRS6gAAAAAAAAAAAAAAAAAAAAAAAAAARXrpbaluvVQf91ElZ/ZCpbQ/kVfD5MAZkeAAAAAAAAAAAAAAAUf7YGOdlxelWaS+t4+hXXrs50/8A5Zfdi1c7F06pn1+rnO3qObma9cRPzj6ISJ5XQAAAAXg7IOfjleEsLHm/GYy7q0HF9/LJ+0T+G85L5MoW2bfMyud/tEen0dG2Dd5+JzP9ZmPr9U2kCsQAAAAAAAAAAAPXc3NKzt6tetNU6NKDnOcu6MUt238kexE1TpD5mYpiZng5j6ky8s/qHKZSSale3VW5al37zm5dfvOq2qPZ26aOqIjwcevXPa3KrnXMz4scZWIAAAP2EJVZxhBOUpNJJd7Z5w3kRruh1BxFj+DMVZWblzO3oQpc3nyxS/kcorq51U1dbslFPMoinqfWfDIAAAAAAAAAMjpxb57Hr/fw/ifFf7JbOL/eo74TERS6AAAAAAAAAAAAAAAAAAAAAAAAAAARlxCp8moN/wA+jGX8V/IkLH7FW2lGl/4Q1k2EWAAAAAAAAAAAAAAAVW7buBaq6YzUI7xca1nUl5NNTh/Gf3Fu2Dc3XLfdP55KVyitf27sdsen1VbLapgAAAAJ17IevIaZ1/Xwl1U5LTN01Sg2+irw3dP705x+LiV/bOP7Wx7SnjT8ulZdg5MWcibVXCv5xwXYKI6GAAAAAAAAAAACIe1Br2GjeGN5aUq3JkswnZUIp9eR/wC1l8FB7fGaJnZOP7fIiqeFO/0QW2cqMfFmmJ96rdH18vmogdCc0AAAABtnCXAS1NxK01jYx5o1b6lKov8Adxlzz/uxZp5lz2WPXX2N7Bte2yrdHbHlvl0hOYOtAAAAAAAAAABmNIU/aajsV5TcvuTf8jFd3US3MKNcilLZGLiAAAAAAAAAAAAAAAAAAAAAAAAAABHvEqjy5G0reE6Th9z3/wDEb2PPuzCubUp0uU1djTjaQoAAAAAAAAAAAAAABFnaZ0l/pXwiy/s6ftLnHcuQpens9+f/ALtzJfZV72OVTrwnd4/fRC7Yse3w6tONO/w4+Wqgp0RzEAAAAHstbqtY3NG5t6kqNejNVKdSD2lCSe6afmmfMxFUTE8HtNU0zFVPGHQbgfxWtuKujaN45whl7VKjkLePTlqeE0vzZbbr5rwOcZ+HOJdmn/GeH52OpbOzac2zFX+UcfztSGRqVAAAAAAAAAHovr63xllXvLutC3taEHUq1qktowilu234JJH1TTNcxTTGsy+aqoopmqqdIhz745cUqnFPW9xf03KOKtk7ewpNbbUk377X50n1fl0XgdH2fiRh2Ypn9075/Oxy7aWbObfmuP2xuju+6PSSRQAAAALBdjPSU8prvIZ6cP8AV8VbOnCTX9bV3itv2FU3+K8yt7bvcyxFqONU+UfkLRyfsc+/VenhTHnP21XLKQ6AAAAAAAAAANdyvEfSmDk45DUmKtJp7clW8pqX9nfc2aMW/c/ZRM/CWpXl49v99yI+MPn0v2keGOHz9Kre6vsqcKcZPmhCpUW7TXfGL8zJc2ZmV0aU258n3h7Y2favRVcuxER3/SEgW/a34Q3VTkhrixi9t96lKtBffKCRpTsjOj/4p8vVY6eUWyqp0i/Hn6NuwnGLQmpJKGL1lgb6pvt7KhkaMp+nu82/7jTrw8m1++3VHwlI2tpYV/davUz/AO0erbk00mnun4o00i/QAAAAAAAAAAAAAAAAAAAAAAADTOJdvzWNnX/MqSh963/8Jt4875hCbUp1opq7fz5I/N1XQAAAAAAAAAAAAAADwrUYXFGpSqxU6dSLjKMu6SfRpnsTMTrDyYiY0lzf4paJq8Pdd5fB1Iy9lb1nK3nL8ujLrTfr7rW/qmdOxL8ZNim7HTx7+lyXNxpxb9Vqejh3dDVTcaQAAAANm4d8Q8vw01JRzGIqpVI+5WoT/wBnXp79YSXl696fVGpk41vKtzbuf8NzEyrmHdi5bn7r88NeKOD4o4OOQxFfarDZXFnVaVW3l5SXl5SXR/elzzKxLuJXzLkd09Eum4ebazbfPtz3x0w240m+AAAAAAA9N7e2+OtK11d16dtbUYOpVrVpqMIRXe230SPqmmapimmNZfNVUURNVU6RCmHaI7REtfzqaf0/UlS05CS9tXacZXkk910fVQT7l4978ErxszZn6b+rd/f8vu59tXav6r+jZ/Z8/sgcsKtAAAAAATx2c+P+J4X2NxhMxjZqzurn28slbe9ODcVHacPGK2X2eq69HuV7aezrmXVFy3VviNNFl2TtS3hUzau07pnXWPRcHTmp8Tq7GU8jhshQyNnPuq0Jb7Pya70/R7MpV21cs1cy5Gkr7avW79PPtVawyhiZgAAAAaLxC42aS4bRlDLZKNS/S3WPtPxtd+W8U9o/GTSJDGwL+Vvt07uueCNyto4+JuuVb+qOP53q5607ZmosnKdHTeOt8JQ7o3Ffa4r/AB6+4vg1L4lmsbDtUb71XOnwj1VPI5QXq91imKY8Z9PmhnUnEXU+rpzeYz1/fxl30qteXs/lBe6vkibtYtmz/boiFfvZd+//AHa5n4/RrxtNUAAANq0fxW1loGpCWntTZPExj/VW9zJUn8abfK/mmal7Ex8j+7RE/D6t/G2hl4k62Ls0907vDgsVw2+kR1bg5UbbWOKtdS2iaU7u2StbpLxey/Fy+HLH4lbyeTlivWbFU0z1cY9fmueFyyyrWlOXRFcdcbp9PKO9b3hN2kdBcY4Qp4HMRpZNreWKv0qN0vPaLe09vODkkU/L2Zk4W+7Tu643x9vi6Ns/beFtKNLFfvf6zun7/DVJ5Fp0AAAAAAAAAAAAAAAAAAAABgdb2v1nTly0t5U3Govk+v7mzNZnStH59HOx6uxFRJKkAAAAAAAAAAAAAAAAK89r7hlLP6boarsaTne4qPs7pRXWds23zfsSe/wlJ+BZNi5Xs7k2KuFXDv8Auqu3cP2tqMiiN9PHu+ynBd1BAAAAAAymmdUZXR+Xo5PDX1XH31J+7VpPvXimn0kn4p7pmG7ZovUTRcjWGazeuY9cXLU6StVw07YmLykKVlrC2/BV30j9ftoudvP1lHrKHy5l8Co5WxK6NasedY6un7rrh7ft1+7kxzZ644eseawOHzmO1DZQvMXfW+QtZ91a2qqpH70yuV267c82uNJWi3cou0863MTHY+4xsoAA/JSUIuUmoxS3bfcg8RZxA7Sei9Cwq0o36zeSiulnjpKp1/SqfZj69W/Ql8bZeRkb9ObHXPohsra+LjRMc7nVdUevBUripx01JxVrOle1VY4iMuanjbZtU1t3Ob75y9X08ki44ez7OHGtO+rrn83KNm7Sv5s6VTpT1R+b0dkmigAAAAAAADM6U1lm9EZJX+CyVfHXXc5UpdJrylF9JL0aaMF6xbv08y7TrDYsZF3Gq59qrSVoeGPbEx+S9jY6ytljbl7RWRtYuVCXrOHWUPit18EVPK2JXTrVjzrHVPFcsPb1FelGTGk9ccPssVjcnZ5ixo3thdUb20rR5qde3mpwmvNNdGVmqiqiZpqjSYWuium5TFVE6xL6T5fb4M9n8dpjFXGTyt5SsLC3jzVK9aW0V5L1b7kl1b6IyW7dd2qKLcazLFcu0WaJruTpEKi8Xe1lldRzuMZpF1MPi93B33dc1l5xf9Wvh73quqLnhbHotaV3/enq6I9VFztuXLutvG92nr6Z9Pmr7UqTrVJVKknOcm5SlJ7tt97bLHEaboVaZ13y8T0AAAAAAAAPKjVnb1YVaU5U6kJKUZwezi13NPwZ5MRMaS9iZidYWv4B9vDOaOla4XXiq6gwqapxya63tvHzk3/tUvX3u/q+iKltDYFu9rcxvdq6uifT5OgbI5WXsbSzm+/R1/5R6/PvX70zqjE6ywlrmMHkKGTxl1HnpXNvLmjJeXo13NPqn0fU5/dtV2a5t3I0mHXbF+1k24u2aoqpnphlDEzgAAAAAAAAAAAAAAAAAA9N5bK8s69vLuqwlB/NNHtM6Tq+K6efRNM9KE5wdOcoyW0ovZr1JfiosxpOkvwAAAAAAAAAAAAAAAB67i3pXVCpQrU41aNSLhOnNbxlFrZprxTR7EzE6w8mImNJc/8AjxwlrcK9YVKFGM54S83rWFeXX3d+tNv86L6eq2fj06Ns7MjMtaz+6OPr8XL9p4M4V7SP2zw9PgjYlEQAAAAAAA+3EZzJYC6+s4vIXWOuO72tpWlSn98WmY67dFyObXETHayW7ldqedbqmJ7NyRsP2neI2HhGms99dpR7o3lvTqP5y5eZ/eRleysSvfzNO6ZS1vbObb3c/XviP+WwLtka8Sf4jDvdd7tZ9P8AvDW/6Ji9c+P2bX/X8vqp8Pu+HJdrbiJfR2o3tlj3521nBv8A7zmMlOxsSnjEz8fTRir25m1cJiO6PXVH2peJWqtXxnDM5+/v6Mnu6FSu1S3/AFFtFfcSVrFsWP7dER+daLvZmRf3Xa5mO/d4NbNpqAAAAAAAAAAAAAbVoPifqThve/WMFkqltCTTqW0/fo1f1oPp81s/Jo08jEs5UaXade3pbuNmX8SrW1Vp2dHgtBobti6cyuNq/wCk1tVwuQo03L8RCVajXaXdDbrGT8pdP0ip5GxL1FX9GedHhMfn5C5Y237FdM+3jmzHxie78+KuvF/jLl+LGalWuZStcTRk/qmOjL3aa/Ol+dN+L+S2RZsLBt4dGkb6p4z+dCqZ+0LmdXrVupjhH50o/JJFgAAAAAAAAAAAASpwB7Q2oOBGpI3VjOd/g68kr7EVKjVOsvzo9/JUXhLb0e66ETtDZ1rPt82rdVHCfzoT+yNs39k3edRvonjT0T6T2uovDfiNg+KmkbLUen7r6zYXK2cZLapRmvtU5x8JLxXwa3TTfLMnGuYl2bV2NJj81d4ws2ztCxTkWJ1pnynqntbOareAAAAAAAAAAAAAAAAAABEur7H6jqC7iltCpL2sf2ur/fuSdqedRCn5tv2d+qOvf4sMZWkAAAAAAAAAAAAAAAANX4kcPMZxM0tc4XJw2U/foXEV79Cqk+Wcfv6rxTaNvFya8W5Fyj/lpZeLbzLU2rnw7Jc+dc6HyvD7Ud1hcvQdK5oveM0nyVodeWcH4xe38U+qZ0fHyKMm3Fy3O5y3JxrmLcm1cjfHn2wwBstYAAAAAAAAAAAAAAAAAABLd7LqBvuf4F6103pu0zt3hazx9eiq03S9+dun3e1h3w6bPu2W/Vp7ojre0Ma7cm1TVvjz7knd2blWbUXaqN0+Xf1NCJFGAAAAAAAAAAAAAAAAAAAAAAEwdmftBZDgTrSFeU6lxpq+nGnlLGPXePcqsF+fDff1W6femobaezqc+zp/nHCfp3Ssew9sXNk5Gs77dX7o+sdsefB1WxWUtM5jLTI4+4p3djdUo16Fek941ISW8ZJ+TTOUV0VUVTRVGkw79buU3aIuUTrE74l9R8MgAAAAAAAAAAAAAAAAAaRxKx29K1vorrFujN+nfH+f3m5j1caUFtS3upuR3NDNxXwAAAAAAAAAAAAAAAAA0fizwlxPFfT0rG+SoX1JOVnfwjvOhP8AnF9N4+Po0mt/DzLmHc51PDpjrRudg2823zK+PRPUobr7h9muHGeq4nNWzo1Y+9SrR6068N9lOEvFdPiu57M6FjZNvKo9pbn7OaZWLdxLk27sffua4bTUAAAAAAAAAAAAAAAAHlTpzrVI06cXOcmoxjFbtt9ySPJnTfJEa7oW47PPZoeAqW+ptW28ZZGO1SzxtRbq3fhOp5z7ml+T3vr9mm7S2p7SJs2J3dM9fd2L1srZHstL+RHvdEdXbPb8u9ZMq63If4m9mLSuvfbXdlTWn8xPeX1mzgvZ1Jfp0+ifxWz82yaxNq38b3avep7fpKBzNj4+VrVT7tXXH1hU7iPwT1VwxqyllLF1sfvtDI2m86EvLd7bxfpJL03Lhi59jLj3J39U8VIy9nZGHP8AUjWOuOH2+LQyRRgAAAAAAAAA2jRfCzV/ESq4aa05kcyovllVtqEnSg/KVT7Mfm0al/LsY396uI/Opv4uBlZs6Y9uau6N3jwS3iuwfxdyNGnOtiLDGuT25LvIUnKK83yOX+foRFe38GmdIqme6J+uiw2+Se1K41miKe+Y+mrzynYM4uY+nOVDGY7JOL2UbXIU05eq9py/vPKNv4NU76pjvj01e3OSW1KI1imKu6Y+uiJNa8KNY8O6jjqTTeRxEE+VVrig/YyflGot4y+TZMWMvHyf7NcT8/Dir2Vs/Lwp/wC4tzT3xu8eDVDbR4AAAAAF4/o+eOLqRueGuXud3BSu8NKpLw6yq0F++ol/7T0KJyhwNNMu3HZV9J+ng6pyO2rrE7Puz20/WPrHxXdKO6iAAAAAAAAAAAAAAAAAHwZ3GrLYm5tfypx3h+suq/ekfdFXNqiWvkWvbWqqEOSi4tpppro0yVUrg/AAAAAAAAAAAAAAAAAABruudAYPiLhJ4vOWcbmg+tOovdqUZfnQl4P9z7mmuhs4+Tcxq+fanT6tTJxbWVR7O7GsfLuUr4u9nbUHDKtWvKMJZfT6e8b+jH3qS8qsV9n9b7L803sr1hbTtZcc2d1XV6Oe52yr2HM1R71HX6/miKCYQgAAAAAAAAAAAAADO6N0NnNfZaOOwWPq31w9udxW0KS/OnJ9Irp4/I17+Rax6efdnSGzj413Kr5lqnWVzuC3Zww/DOFHJZF08vqPbf6w4/irZ+KpJ+Phzvr5bdUUfO2ncytaKN1Hz7/R0DZ+ybeH79fvV9fV3eqYiET4AA8K1GncUp0qtONWlNOMoTW8ZJ96afeexMxOsPJiJjSUDcTeyRgNTqte6anHT2SlvL2GzdrUf6vfD9np+iWHE2zds+7e96PP7/m9WczYdm9rVY92ry+3w8FVddcM9R8Or76tncbVtYuXLTuYrmo1f1Zro/Pbv80W7HyrOVTraq1+alZOHfxKubdp07eifi1g22mAAAAD68RiL3P5O2x2Otql5e3M1TpUKS3lOT/+u/wPiuum3TNdc6RD7t26rtUUURrMrf8ACTsmYfTtCjkNXRp5nKvaas039WoPya/rH57+76PvdKzNsXLszRY92nr6Z9F8wdh27MRXke9V1dEevyXV0Fg6WB01bUKVGFvGa9p7KnFRjBP7KSXd0S6FLvVzXXMzLquBYixYiIjTXe2EwJEA9N3aUL+2q21zRp3FvVi4VKNWClCcX3pp9GvQ9iZpnWJ3vmqmK4mmqNYlVXj32D9P6vt7nL6ChR05nEud41e7ZXL8or+pk+m3L7vT7K3ci2bP2/dszFvJ96nr6Y9fmoG1uSdjJibuF7lfV/jPp8N3Z0qAai05lNJZq7w+Zsa+NydpP2de2uIcs4P+aa2aa6NNNdGdBt3aL1EXLc6xLkN6xcx7k2r1PNqjjEscZWEAAAMzovVl9oXVmI1DjJ8l9jbmFzS67KTi93F+jW6a8U2YL9mm/aqtV8JjRs4uRXiX6L9vjTMS7H6P1PZ610riM/j5c1lkrWnd0t+9RnFS2fqt9n6o4zetVWLlVqrjE6P0njX6MqzRft8KoifFmDC2QAAAAAAAAAAAAAAAAAi3XGK/B2aqVIx2o3P4yPx/KX39fmSNmrnU9yp59n2V6ZjhO/1a8Z0cAAAAAAAAAAAAAAAAAAD8nCNSEoyipRktnFrdNDg8QZxN7J2nNXOte4CUdO5ObcnCnDmtqj9YfkfGPReTJ/E2xese7d96PP8AO9XMzYdi/rVZ92ry8Oj4eCruvOC2r+HU5yy+JqOzi9lf2v42g/XmX2e7ukk/QtmPnY+V/bq39U8VMydnZOJ/cp3dcb4/O9pBII4AAAAAAAAAZPT2mMtqvIRscNjrnJXUv6u2puTS835L1fQxXLtuzTzrlWkM1qzcv1cy1TMz2LDcNuxteXU6d5rS8VnR6NY6ympVZek6nWMfhHf4orWVtumPdx417Z9Fqw9gVT72VOkdUfWVndL6Rw+i8VTxuEx9HHWcPyKMesn+dKXfJ+rbZVLt65fq59ydZXGzYtY9HMtU6Qy5hZwAAAAAIJ7Yep1iOGVHFQf47LXcKbX+7p+/J/2lBfNlg2Ja5+RNf+sfPcrW3r3s8X2f+0/Lf6KUF7c8AAAABeXs1cFqPD3TdPM5K3X+keRpKU+ddbak+qpLyb6OXr08OtA2pnTk3Jt0T7kec9fo6PsjZ8Ylr2lce/V5R1eqe9N4p5jL0Ldrenvz1PSK7/v7vmV+5VzaZla8Wz7a7FHR0pfS2Wy6Ii1zfoAAAArv2wuzlQ4u6PrZ3EWq/wBMcTRc6Dpr3ryjHdyoPzfe4+vTukyx7G2lOHd9ncn3KvKev1U3lJsWnaNib1qP6tMbu2Or07e9zHa2ez6NHUHDAAAAAdI/o+tcz1JwZuMJXqc9fAX06EE3u/YVPxkN/wBp1UvSKOacobEWsv2kf5R5xu9Ha+R+VN/AmzVxonT4Tvjz1WdKuvQAAAAAAAAAAAAAAAAAYHWeH/CuGqOC3r0PxkNu9+a+7+CM1mrm1I/Os+2tTpxjeioklSAAAAAAAAAAAAAAAAAAAAAfjipJppNPo0/EPEb6x7O2g9ZuVS4wsMfdS/8AWcY/YS+Lilyt+ri2SljaeVY3RVrHbv8AuicjZWJkb6qNJ643fZD+pOxJUUpT0/qWMo+FHJUdmv8A3kO/+yTVrb0cLtHh6T6oG9ydnjZuePrHoh/iNwE1XwxxqyOXpWlTHuqqCubW4U05NNpbNKXg/AmsXaNjLq5lvXXthA5ezMjDp59zTThrEo7JNFAADO6K0Tl9f52nh8Jbxub2cJVFGdSNNKMe9tyaNe/ft41HtLk6Q2cfHuZVz2dqNZTXgexVqW7lCWXzeOxtN96t1O4qL4raK/vEFc27Zp/t0zPl6rDa5PX6v7lcR3b/AEStpTsh6IwM4Vci7zP1l15bqpyUt/SENn8m2Q97bWTc3UaU933TdjYWLa3161T28PJMOHwWO09ZRs8XYW2OtY91G1pRpw+5JELXcruTzq51ntT1u3Rap5tuIiOx9xjZQAAAAAAACn3bYzDr6y0/i+beFrYyuNvJ1KjT/dSX7i6bBo0s119c6eH/ACofKK5reot9Ua+M/ZXMs6pgAABJvZx0RT1xxUxlvcU/a2Vinf3EWt04wa5U/RzcE/Rsitp35x8aqY4zuj4/ZMbJxoycumKuEb5+H3dADnLqCR+HuH+qY+d7UjtUuOkd/CC/zf8AI0L9Ws82OhZdm2eZbm5PGfk2w1kwAAAAAByp7YfDilw346Zuha01Sx+VUcrbQitlGNVy50l4JVI1El5bHV9jZM5OHTNXGndPw+2jgPKTCjC2jXTT+2r3o+PHziUKk4rAAAAW9+jbz07biHqzCqW1K8xcLtx85UasYr91eRTuUtvWxbudU6eMfZ0bkTdmnKvWeunXwnT6ugZz118AAAAAAAAAAAAAAAAAAEUawwv4Hy0+SO1vW/GU/Jea+T/iiStV8+lUc2x7C7OnCeDBmZoAAAAAAAAAAAAAAAAAAAAAAACDO2N/RLR/5nR/wVCf2J/Knun6K3t/+J8Y+qkpfHOwABNHZE/pit/+Dr/wRBbZ/iT3wsGwv5kd0rylBdIAAAAAAAAAAABRzte1ZVOMFaMnuoWNCMfRe8/4tl+2LH/afGXONuzrmT3R9UKk6rwAAAWb7D9hGpltW3rS56NC2op+O05VG/8A+NfuKpt6rSi3T3+X/K4cnKda7tXVEeevouFgcTPM5OjbR35W96kl+TFd7KZXVzKdXQMezN+5FEJhpU40acKcIqMIJRjFdyS7iK4rpERTGkPIPQAAAAAKJ/SXYyjSy2gMjFL29xQvbeb2/Jpyoyj++rIvnJiqZpu0dWnnr6OUct7cRXj3OmYqjw09VKy7uYgAABZj6Paco8eqyT2UsPcJ+q56T/kiscov4X/tH1XjkdOm0p/8Z+cOlBzN20AAAAAAAAAAAAAAAAAAGI1RhFm8VUpRS9vD36T/AEvL59xlt18yrVp5dj29qaY4xwRJKLhJxknGSezT70yTU6Y03S/AAAAAAAAAAAAAAAAAAAAAAAEGdsb+iWj/AMzo/wCCoT+xP5U90/RW9v8A8T4x9VJS+OdgACaOyJ/TFb/8HX/giC2z/EnvhYNhfzI7pXlKC6QAAAAAAAAAAACkPbCtJW/F32kt9q+OoVI7rbpvOPz6xZfdiTri6dUy5zt6nTM164j6oQJ5XQAAAsj2I8vGhqjUuMctpXNnTuFHz9nNx/8AmlX29Rrbor6p08f+Ft5OXNLty31xE+E/d0L0NgvwVjfb1Y7XNwlJp98Y+C/n/wDY55er506R0Oy4GP7K3zquMtkNdJgAAAAAAKEfSU56nc6r0ThU4urZ2VxdyS70q04xW/8A8Bl/5M25i1dudcxHhr6uSct70VXrNnpiJnxnT/8AVTYujmoAAAWc+jxt3W473c1vtRwtxN7L/e0Y9f7RV+UU6Ycf+UfKV55G067SmeqmfnDpIc0dsAAAAAAAAAAAAAAAAAAAAj7X+n/q9f8ACVCP4qo9qyX5MvB/P+PxN6xXrHNlXNo43Nn21PCeLTTaQoAAAAAAAAAAAAAAAAAAAAABBnbG/olo/wDM6P8AgqE/sT+VPdP0Vvb/APE+MfVSUvjnYAAmjsif0xW//B1/4Igts/xJ74WDYX8yO6V5SgukAAAAAAAAAAAAqb23ME6eW0zmYw3jVoVbOc14OElOKfx55fcy4bBue7ct90qPyitaV27vZMfnirIWtTwAAA3vgZr+lw04qaez91Fzx1C5jC9gk3zUJe7Pp47J8yXnFEfn485WNXajjMbu9K7KyqcLMt3q/wBsTv7un1dgLW6o31rRubarCvb1oKpTq05KUZxa3Uk13prrucdmJpmYni/R1NUVxFVM6xL2nj6AAAAAA8K1anbUalatUjSpU4uc6k3tGMV1bbfcj2ImZ0h5MxTGs8HIrtE8T/8Apc4u5/UNGcpY6VVW1gpdNremuWD28ObZza85s6/s3F/R4tFqePGe+fzR+dds5/8A1HOuX4/bwjujdHjx+KNyTQoAAAXP+jW017bUOtdQSgv9XtaFhTm/H2k5Tml/8KG/xRSuU13Si3a65mfDd9XTORFjW7fvz0REeM6z8oXxKC6yAAAAAAAAAAAAAAAAAAAB6rm3p3dvUo1YqdKpFxlF+KPYnSdYfNVMV0zTVwlEmoMJVwWQnQnvKk/epVPzo/5+ZJ264rjVTsmxOPXNM8OhjDI1QAAAAAAAAAAAAAAAAAAAAEGdsb+iWj/zOj/gqE/sT+VPdP0Vvb/8T4x9VJS+OdgACaOyJ/TFb/8AB1/4Igts/wASe+Fg2F/MjuleUoLpAAAAAAAAAAAAIk7UWkJar4SZGpRhz3OKnHIU0l15Y7qp8uSUn+yiZ2Te9jlRE8Kt3p5oPbNj2+HVMcad/r5KGnQnMwAAAAXi7EPajt6dpacONW3iozg1Swt/Wl7sl4W02+5r8hvv35em0U6LtzZU6zl2I/8AKPr6+PW6nyW29TFMbPyp/wDGf/1n6eHUu8UZ1IAAAAAClfbe7UFvb4+84caUvI1rqvvTzN9QnvGlDxtotd8n+X5LePVt8t22FsuZqjLvxuj9sfX08XMeVO3qaaatn41W+f3THR/9Pf1+HXpRMvrlAAAAAOoXYe0FLRXATF3Fel7K8zlWeUqbrryT2jS6+TpwhJfrP1OWbcyPb5tURwp3evm7vyVxP0uzaapjfX73jw8oifin4r63AAAAAAAAAAAAAAAAAAAAAMbnsJRzthOhU2jNdadTbrCX+XmZKK5onVrZFinIo5s8ehEt9ZVsddVLevDkq03s1/Mk6ZiqNYU65bqt1TRVxh6D18AAAAAAAAAAAAAAAAAAAwWptdae0dS9pm81ZY3puoV6yU5L9GH2pfJM2LWPdvzpbpmWteybOPGt2uIVm7SfHjSfEDR0MDgq9ze3EbyncO4du6dLljGaf2tpb+8vyS1bL2ffxrvtbsREaacVP2vtPHyrPsbUzM6xPDd0q0FpVAAASHwF1/jOG3EKhmctC4nZqhUov6tBTknJbJ7NroRm0MavKsTbt8UrszKt4mRF25w0nguZpbjxoPV0407DUVrTuJdFQvN7ebfklNLmfw3KRd2flWd9VE6dm/5OgWdp4l/dRcjXt3fNvsWpJNNNPqmiOST9D0AAAAAAAAAeu5tqV5b1bevTjVo1YOE6clupRa2afxTPYmaZ1h8zEVRMTwc4uKmha3DrXeWwdSMvY0arnbTl/WUZdact/F7bJ+qa8Dp2HkRk2KbsfHv6XJ83GnEv1Wp4Rw7uhqZuNEAAACbT3T2aAtXwF7d+c0Fa2+E1rQr6mwtJKFK9pyTvqEfJuTSqpeHM0+v2mtkqnn7At5Ezcx55tXV0T6fm5f8AZHKy9iRFnMia6I6f8o9fjv7V0uH3aC4fcTKNJ4HU9jVuZpP6jcVFQuU/L2c9m9vNbr1KTkbOysWf6tE6dfGPF07D2xg50R7C7GvVO6fCUhkcmACPde9oHh7w2o1JZ3VNhRuIL/0O3qe3uH/7uG8l8WkvUkcfZ+Vkz/SonTr4R4yh8vbGDhR/WuxE9Ub58I3qX8d+3lnNcW1zhdEW9fTWHqpwqX9SS+u149eicW1ST/Rbl+ku4uuz9gW7ExcyZ51XV0R6uZbW5W3sqJs4ccymen/KfT4b+1VFtttt7tltc/AAAABu/BThnd8W+JWE0zbQm6VzWUrurD+pt4verPfw2jvt5tpeJoZ2VTh49V6ejh39CU2Xg1bRy6MenhM7+yOmfzpdg7KzoY6zoWltSjQtqFONKlSgtlCEVskvRJHHaqpqmap4y/R9NMUUxTTGkQ9x8voAAAAAAAAAAAAAAAAAAAAAAwGrNMxztrz0ko3lNe5J9OZfmszWrnMnfwR+ZixkU6x+6EXVaM6FWdOpFwqQfLKMls0yRidd8KnNM0zpPF4HrwAAAAAAAAAAAAAAA0PiXxr0xwvoSjlLz2+RceanjrXadaXk2u6K9Zbem5IYuBey59yN3XPBGZe0LGHH9Sd/VHFVbiB2rdYaudW3xlSOm8dJtKFlJuvJfpVX1/sqJbsbY+PZ31+9Pbw8PXVSsrbeTf3W/cjs4+Ppohu5uq15XqV7irOvWqPmnUqycpSfm2+rJuIimNI4ICapqnWZ1l6z6eAAAAAAbrobjLq/h7OnHEZisrSL3+o3D9rbteXI/s7+cdn6mhkYOPk/3Kd/X0pDG2hk4v8Abq3dU74Wc4ZdrjAaolTstS0o6eyEnyqvzOVrUf6z6w/a3X6RVcrY12171n3o8/v+blxw9u2b3uX45s+X2/N6eqVWFenCpTnGpTmlKM4vdST7mmV6Y03Ss0TExrDyPHoAAAAAAABB/am4Sz11pSObxlD2ubxMXLlgver2/VygvNx+0l+sl1ZPbIzP0932dc+7V5Srm2sH9Ta9rbj3qfOPzf4qRF9c6AAAAAAAZzF681Ng6Ko43UWVx9KK5VTtb6rSil5bRkjXrx7Nyda6InviG1by8i1Glu5VEdkzD8yuudSZynKnktQZTIU5R5XG6valVNdem0pPp1f3ntFizb30URHdEFzLyLsaXLlU98zLCGdqgAAAAAAOkvYc4C1eGeiq2qM1bqlqDP04ShTnHadrad8YPyc3tNr0gn1TOabd2hGVd9jbn3afOftw8XbOSuyJwcecm9Hv1+VPRHx4z8FmyrryAAAAAAAAAAAAAAAAAAAAAAAAGtas0nHNU3cW6UL2K+CqLyfr5P8A+lsWrvM3TwRmZhxfjn0fu+aNKtKdCpKnUi4Ti9pRktmmb8TrvhVpiaZ0ni8D14AAAAAAAAAAAD8lJQi5SajFLdt9yDxWHjj2rPqk7nA6JrRnWi3Tr5lbSjHzVHwf6/d5eEla9n7I52l3J+Eevop20dt83Wzizv6avT18OtVa7vK9/c1bm6r1Lm4qycqlWtNynNvvbb6tluppimNKY0hSqqpqnnVTrL1H08AAAAAAAAAACVeDvaEzvC64p2laU8tp5vadhVn1pLfrKlJ/Zf6Pc/R9SHzdm2suOdG6rr9U1gbVu4U82feo6vRdzRmtsPr7BUcvhLuN1aVOjXdOnLxhOPhJeXzW6aZRL9i5j1zbuRpLouPkW8q3Fy1OsM4a7ZAAAAAAAEm2klu35AVO7VXZayWg6VTXWHtd8Dd1Oe+tKa62E5PZSa/Mk3+y3t4pK5bI2rTkf9tcn3o4T1/ePNTdubAu4lP623HuTxj/AF+0+SsZaVJAAAAAAAAAAAAAAALXdi7suT19lLbXOp7Zx01ZVlOxtasel/Wi/tNPvpRa6+EmtuqUkVLbW1Yx6ZxrM+/PGeqPWfJ0DkxsGcuuM3Jj+nTO6P8AaY+kec7ut0SOcuygAAAAAAAAAAAAAAAAAAAAAAAAAAa9qfSVHOQdaltRvYrpPwn6S/zM9u7NG6eCOysOm/HOp3VIzu7OtY3E6FxTlSqwezjIkImKo1hVq6KrdU01RpL0nr4AAAAAAAAAACoPaS7RFTO1rvSWmbhwxcG6V9fUpdbl9zpwa/I83+V3d32rpsvZsW4i/ejf0R1dvf8AJRNr7Vm5M49ifd6Z6+yOz593GuBZ1SAAAAAAAAAAAAAAblwr4pZbhXqOGSx03UtqjULuyk/cuKe/c/KS67S8H6Np6OXiW8u3zK+PRPUkMLNuYVzn0cOmOtf/AETrTF6/07a5rD1/bWldd0ltOnJfahJeEl/5rdNM51fsV49ybdyN8On4+RbyrcXbc7pZw12yAAAADypUp16kadOLnOT2jGK3bY4PYiap0hI2lNGRxnJd3qVS774w740/82aFy7zt1PBZcPBi179z93ybJfWNvkrKvZ3dCndWteEqVWhWgpQqQa2cZJ9Gmm1szBTVNMxVTOkwlaqKa6ZoqjWJc9u1J2ML7Q1xeao0LaVb/TL3q3GNp7zrWHm4rvnS9eriu/dLmOh7K23TfiLOTOlfRPRP3+bju3uTNeLM5OFGtvpjpp9Y8481Ty3OfAAAAAAAAAAAAAWr7LfYxvuINa11Pre2r47SyUattYy3p1sh4ptd8KT8+jkn7vR8xU9q7apx4mzjzrX0z0R9/l0r/sHkzXmTGTmRpb4xHTV6R8+jrdDrGxt8ZZULOzoU7W1oQjSpUKMFGFOCWyjFLokl02RzqqqapmqqdZl2SiimimKKI0iHvPl9AAAAAAAAAAAAAAAAAAAAAAAAAAAAMXnNPWudoclaPLVivcrRXvR/zXoZKK5onc1cjGoyKdKuPWjHNYG6wdx7O4hvB/Yqx+zP/wA/QkKK4rjWFVv49ePVpV4scZGsAAAAAAAAV97VfGappLEx0rh7j2eWyFJyuq1N+9b0Hutl5Sn1+C380yx7HwYvVe3uR7scO2fsq22toTYo/T2p96rj2R91NC8KAAAAAAAAAAAAAAAAAJU7PnGKvwu1XCjdVm9PZCcad7SfVUn3KtHycfHzjv4pbRG0sKMu1rT+6OHomtlZ84V3Sqfcq4+v50L70qsK9OFSnONSnNKUZxe6kn3NM55MabpdNiYmNYeR49AAH14zFXOXuVQtabqT8X4RXm34HzVVFMayy2rNd6rm0QkzTmlLbA0+fpWu2verNd3pHyRH13Jr7lpxsSjHjXjV1s4YW+AAKw8e+w3pziRVu81pSpS0xqOrvUnSUP8AUrqfnKKW9OT8ZR6d7cW3uWjZ+3buNEW7/vU+cevx8VF2vyVx82ZvY3uVz/8AbPf1d8eChXEXhRqvhVlpY/U+GuMbU5mqVaUd6NdLxp1F7sl8HuvHYv8AjZdjLp59mrX5x3w5Jm7Pytn1+zyaJp+U908JakbiPAAAAAAAANr4ecKdWcU8p9Q0vhLnK1YtKpVpx5aNHfxnUe0Y/N9fDc08jLsYlPOvVafPwSGHs/K2hXzMaiavlHfPCF8eAPYY0/w9la5rWUqOpdQwaqU7blbsrWXpFr8bJPxktvKO63KFtDb13I1t2Pdp859Pze6zsjkpYw9L2X79fV/jHr8fBaQqq+AAAAAAAAAAAAAAAAAAAAAAAAAAAAAAAB6bq0o31CdGvTjVpS6OMkexM0zrD4ropuUzTVGsI+1DoOvYudew5rm373T75x/zX7zet3oq3VK5k7Pqt61Wt8ebU2tnszZRAAAAAAGI1fqez0ZpnJZy/lta2NGVWS32c33RivWT2S9WjNZtVX7lNunjLXv3qce1Vdr4Q5u6o1Je6u1DkMzkantLy9qurUfgt+6K9Etkl5JHT7Nqmzbi3RwhyW9eqv3KrtfGWLMzCAAAADeuHfBTVnEySniMe6dhzcsshdt06EfPaW28tvKKbRH5OfYxf7k7+qOP53pLE2dkZm+3Tu654fncnzTPYmxdGnCeoNQ3V1V75UsdTjSin5c01JtfJFdu7drn+1REd+/0WezydtxH9auZ7t3z1bdT7InD2EOV2+QqPbbmlePf49El/wDc0p2zl9ceDejYWHHRPixeY7GOjryEnYZHK46r4b1IVaa+Tin/AHjNRtzIp/fET5MNzk/jVfsqmPP88UP687JGrtLUqlziZUtS2cN3taxcLhLz9k99/hFyfoTWPtmxe9257s9vDxQOTsLJsxNVv347OPh6ISrUalvVnSqwlSqwbjKE1tKLXemvAnomJjWFdmJidJeB68AAAABdHsicSnqbR9bTd7Wc8hhtvYub3lO2b93+y/d9E4lG2zi+yu+2pjdV8/u6DsLM9tZmxXO+n5fb0T4V1ZwDY9PaKusu41q+9tad/M1701+iv5/xMFd6Kd0cUljYNd73qt1KRsbjLbE2yoWtJU4Lv85Pzb8TQqqmqdZWa1aos082iNH1HyygAAAA+DOYDGamxtbHZfH2uUsKy2qWt5RjVpy+MZJoyW7ldqrn25mJ7GK7Zt36Jt3aYqpnomNYVq4jfR86E1PKtc6avLzSd5JbqlB/WbXf9Sb5l8p7LyLNjcocm1uvRFceE/nwUjN5H4V/WrHmbc+MeE7/ADV21j2AuJ+nqk5YmnjtTW66xdndKjU29YVeVb+ikyx2eUGHc/frTPbGvy1UzJ5IbRsz/S0rjsnSfCdPnKJs5wI4jaccvwjojPUIR76scfUnTXe/txTj4PxJe3n4l39l2nxhXruyc+z/AHLFUfCdPGNzVLjT2VtJzhXxl5RlD7UalvOLj8d10NqLlE8KoaE2btO6aZ8C3wGUu3BUMbd1nP7Cp0JS5vhsup7NyiONUPKbN2r9tMz8G04LgXxE1I4/g7RGeuIS7qrx9SFP+3JKP7zUuZ+La/fdp8YSFrZOff8A7diqfhOnilnR3YE4oaiqU5ZWjj9M2z6yle3UatTb0hS5uvo2iJvcoMO3+yZqnsj10WDG5I7SvT/ViKI7Z1nwjX6LGcN/o+tCaWqU7nUt5d6uu4tP2VT/AFa1T/Ug3J9fOez8UVvJ5Q5N3dZiKI8Z8fsumFyPwsf3siZuT4R4Rv8ANZTB4DGaZxtLHYfH2uLsKS2p2tnRjSpx+EYpIrNy5Xdq59yZme1d7Vm3Yoi3apimmOiI0h95jZQAAAAAAAAAAAAAAAAAAAAAAAAAAAAAAAAAAGCzmj7HNc1Tb6vcv+tprv8A1l4/xM1F2qjd0NC/hW7+/hPWj/M6Xv8ACybq0/aUPCtT6x+fl8zdouU18Fdv4l2x+6N3WxJlaYAAAVm7aWt3a4rD6UoTandS+vXSX/ZxbjTXwcuZ/sItWwrGtVV+ejdH1/O1T+UORzaKceOnfP0/OxUsuKjgAAAAsp2e+zLDUFtaao1ZSf4PqL2lpjJJp14+E6nlF96j49G+nR1baW1ZtzNmxx6Z6u5btlbHi7EX8jh0R19s9i2tvb0rShToUKUKNGnFQhTpxUYxiuiSS7kU6ZmZ1leIiKY0jg9h4+gAAAirjRwBw/FOyq3dCFPHajhH8VfRjsquy6QqpfaXct+9eG66OXwdo3MSebO+jq9EJtDZdrNpmqN1fX6qMai09kNK5q7xOVtp2l/az5KtKfen3pp+Ka2aa6NNMv8Aau0XqIuUTrEub3bVdiubdyNJhjjKxAAABvfA7W70DxMw2TnU9nZzq/Vbvr09jU92Tf6vSX7KI7PsfqMeqjp4x3wktm5P6XKprnhwnun81dIsTgL3NVOW2otwT2dWXSEfizmVVdNHF16zj3L86UQ37BaGs8Xy1bja7uF13kvci/Rf5mlXeqq3RuWHHwLdr3qt8tlNdKAAAAAAAAAAAAAAAAAAAAAAAAAAAAAAAAAAAAAAAAAAAAAAAAAAAAAAAAPxpSTTW6fRpga1mNB2GRcqlv8A6nWf5i3g/wBn/I2KL1VO6d6LvbPtXN9Puz5NLyukclieaU6LrUV/W0feXz8V8zbpu01IO9h3rO+Y1jrhhjK0gDn/ANpLUktScYc/Lm3o2U1YU1v9lU1tJf2+d/M6Nsu17LEo7d/j9tHL9r3vbZlfZu8PvqjIlUOAAAEr9m7hbDiVruLvqXtMNi4xubuL7qj3/F03+s02/SMiH2nlzi2Pd/dVuj6ym9kYUZd/3/2075+kL6xioRUYpRilsku5HPHTH6HoAAAAAEA9rXhZT1JpR6qsaP8A1piY/j3Bdattv13/AFG+b4c3oWLY2XNq77Cqfdq4d/3VfbmFF6z+ooj3qePbH24+KmBeXPwAAAAdhOA2rP8ATfg5o/NSW1W5x1JVum29WC5KjXo5xkzjefZ9hlXLfVM+HQ/R+yMj9VgWb3XTGvfG6fNvhoJYAAAAAAAAAAAAAAAAAAAAAAAAAAAAAAAAAAAAAAAAAAAAAAAAAAAAAAAAAAAAGIymlcblt5VbdQqv+tpe7L/z+ZlpuVU8Jad3Es3v3Rv64arkeG9xS3lZXEa8fzKnuy+/uf7jZpyIn90Ii7syuN9udXJHUmSlmNRZXITlzTurqrXck993Kblv+87Bap5lumjqiHAr1ftLlVc9MzLHGViAAAC8HZD0zDDcKIZFx/H5a5qV5Sa68kJOnFfD3JP9ooW2bs15U0dFMRH1dG2FZi3ic/pqmZ+n0TaQKxAAAAAAAPTe2dHIWdxaXFNVbevTlSqQl3SjJNNfNM+qappmKo4w+aqYqpmmrhLmVqbDT07qPK4mo3Kdjd1bWTfi4Tcd/wBx1S1XF23TcjpiJcevW/ZXKrc9EzHgxplYgAAA6a9gbL1Ml2erG2mvdx+QuraHwc1V/jVZy/lBRFOdM9cRP0+juXJG5Ney6aZ/xmY89fqsWVxcwAAAAAAAAAAAAAAAAAAAAAAAAAAAAAAAAAAAAAAAAAAAAAAAAAAAAAAAAAAAAAPXXdRUKjoqLrcr5FPuctum/p3Hsaa73k66TpxcQzuT8tgAAAA6QdnjTORueCeka9vZyqUJ2acZU2nv70t/Hz3OZbSuUxmXImel17ZOLeqwbVVNO6Yb9LTmVj34+5+VNsjfaUdaT/S3/wDSfB4/gDJ7/wD4ddf/AAZf5HvPp63n6e9/pPhLyjpzKS7sfc/Ok0ee0o63v6a//pPg91PSOYqd1jUX6zS/izz2tHW+4w8if8H10dBZir9qjTpfr1F/Lc+ZvUM1Oz8ieMafF99vw0u5P8feUaa/3ac/47HxORHRDYp2Xcn91UR+fBlLXhtY02nXuK1ZrwjtFP8Aj/ExzkVdENujZluP3TMs3Zaaxlht7GypKS/KmuZ/e9zDNyqeMt63i2bf7aYcnO0qqK4+a+VDfk/C1ffm/O5nzfLfc63svX9Fa16ofn/bmn/Ur+n+0o1JRCAAAB0Z+jllKXBDNKTbS1DXUd/BfV7bu+e5zflJ/Lp/8Y+cu0ci9f8Ap1f/AJz/APjStOVRfQAAAAAAAAAAAAAAAAAAAAAAAAAAAAAAAAAAAAAAAAAAAAAAAAAAAAAAAAAAAAAAHFTVmHnp7VOZxVSHs52N7WtZQ/NcKkotfuO22a/aW6a46YiX5iyLc2b1dqf8ZmPCZhijM1wAAA6Y9gbWNPUXAa2xXOnc4K8r2k4uW8uScnWhL4fjJRX6nocx5QWZt5k19FURP0+juHJHJi9s2LXTRMx474+enwWPK0uoAAAAAAD0X17QxtlcXd1VjRtrenKrVqy7oQim238EmfVNM1TFNPGXzVVTRTNVU6RDjBrfUc9Yazz2eqJqeTv6960/D2lSU9v7x2qxa9jaotR0REeD8zZV+cnIuX5/ymZ8Z1YUztUAAAOmfYExNTHdnu0uJ78t/kbq5p7rb3VJUvn1pM5hygrirOmOqIj6/V3HkjbmjZcVT/lVM/T6LGlbXQAAAAAAAAAAAAAAAAAAAAAAAAAAAAAAAAAAAAAAAAAAAAAAAAAAAAAAAAAAAAAAByj7X2kJ6P7QeraXLtQyFdZOjLbbmVZc8n8pua+R1nY1722Dbnq3eH2fn/lHjTjbTux0VTzo+O/56obJpWgAAAnzsZ8baXCHid9Wylx7DTudjC0vJye0KNRN+xrP0i3KLfhGcn4Ff21gzmY+tEe9Tvj6wt3JnakbOzObcnSivdPZPRP50S6hpppNPdPxRyx3d+gAAAAAAq727+NtHRPD6ejMfcr8O6gpuFaMH1oWe7U2/Ln25F5rn8i07AwZv3/1FUe7R8/tx8FD5WbUjFxf0luffuceynp8eHi5wnSnFgAAAAdguAWjpaC4NaPwdWPJcW+Ppzrw/NrVPxlRfKc5HHNoXv1GVcuRwmfKN0P0dsjGnEwLNmeMUxr3zvnzb8R6XAAAAAAAAAAAAAAAAAAAAAAAAAAAAAAAAAAAAAAAAAAAAAAAAAAAAAAAAAAAAAAAUs+kc4bTu8Xp3XVtT5naN4u9aW7VOTlOjJ+SUvaL41EXbk1k6VV409O+Pr9PBzHlpgzVRbzaY4e7Pdxjz18VEi+uUAAAAAun2R+2VQwtnaaJ1/euFpSUaONzVZ7qjHujRrPwiu6M/DufRbqkbX2LNczkYsb+mPrHo6dyd5SxapjDzqt0bqaursns6p8V6qFanc0adajUjVpVIqcKkHvGUX1TTXemUSYmJ0l1aJiqNY4PM8egAABDXaF7TenOBmHrUZVaWT1VVp72mIpy3abT5albZ+5D98u5eLU1s7Zd3Pq14UdM+narW2Nu4+yrcxM865PCn6z1R8+hy/1rrPL8QNT5DUGdu5XuTvantKtWS2XkoxXcopbJJdySOpWLFvHtxatRpEOE5WVdzL1V+9OtVTCGdqgAABJXZx4ay4q8YdO4KdN1LD26ur7p0VvT96af62yh8ZojNpZP6TFrudPCO+fzVN7Fwf8AqGfbszG7XWe6N8+PD4uuxx9+igAAAAAAAAAAAAAAAAAAAAAAAAAAAAAAAAAAAAAAAAAAAAAAAAAAAAAAAAAAAAAAADW+I+hbDiVofNaYya/1TJW8qLntu6c++FResZKMl6o2ca/Vi3qb1HGJaWbiUZuPXjXOFUaek/Cd7j3rDSmR0NqjKafy1H2GRx1xK3rQ8N4vvT8YtbNPxTTOyWb1F+3TdondO9+cMnHuYt6qxdjSqmdJYczNYAAAAEtcH+1Fr3g17O1xWSWQwsXu8Rkk6tBfqdVKn4/ZaW/VpkPmbKxs3fXTpV1xx+/xWHZu3s3Znu2qtaP9Z3x8OmPgtTo36R7St/Sp09T6byWHuNtpVLCcLqjv59XCSXpsyqXuTV6mdbNcTHbun6r9jctcauNMm3NM9m+PpPzSDb9ufg7WoSqT1Hc0JKKapVMZcOTfl7sGt18diPnYOfE6czzj1TFPKvZMxrNyY/8AWr0YLUP0g3DDFUp/g6nmM3V291W9oqUG/V1JRaXyZnt8ncyv9+lPx9Gre5YbOtx/T51U9kafOYV94ofSBa11bRrWWl7OhpCynvF14T+sXbXpNpRhuvKO68JFhxeT2PZnnXp58+EKfn8sMzIiaMamLcdfGfHhHh8VYb6/ucneVru8uKt3dVpOdWvXm5znJ97lJ9W/VlpppiiObTGkKJXXVcqmqudZnpl6D6fIAAAAOiX0f/Bx6S0Lda2yVv7PJ59KFpzr3qdnF7p+ntJLm9VCD8TnPKDN9tejHondTx7/ALersvJDZv6fGnMuR71zh/4/ed/dELXFSdAAAAAAAAAAAAAAAAAAAAAAAAAAAAAAAAAAAAAAAAAAAAAAAAAAAAAAAAAAAAAAAAAAFR+3X2d6mscMtfaes/a5nG0uXJUKS965to77VEl3yp9d/Fx/VSLfsHaMWK/012fdnh2T9/m53yr2NOTb/XWI9+n93bHX3x8u5z3OiOPAAAAAAAAAAAAAAAACaeyvwAueOGvaSu6M46Wxk41sncbuKmu+NCL/ADp7dfKPM999k4Tau0IwbPuz788PX4LPsDZFW1cmOdH9OnfVP0+Py8+qVtbUrK2pW9vShRoUoKnTp047RhFLZJLwSRyiZmZ1l3ymmKYimmNIh7Tx9AAAAAAAAAAAAAAAAAAAAAAAAAAAAAAAAAAAAAAAAAAAAAAAAAAAAAAAAAAAAAAAAAD8aTTTW6fgBz07YfZMq6Gur3XGkbZ1NN1pupf2FKPWwnJ9ZxX/AGTb/Yb/ADe7ouxtrxfiMa/PvRwnr+/zcc5ScnpxZqzMWP6c8Y/17e75d3CpZbnPQAAAAAAAAAAAAAG+8FuDWd426yt8FhqThRi4zvb+Ud6VpR36zl5vv5Y77yfzaj83Nt4Nqblz4R1yltl7MvbUvxZtRu6Z6Ijr9I6XVjhfwywfCTRtlprAUHSs7feU6s9nUuKr+1VqPxk9l8EklskkuT5WVcy7s3rs758uyHf8DBs7OsU49iN0eMz1z2trNRIAAAAAAAAAAAAAAAAAAAAAAAAAAAAAAAAAAAAAAAAAAAAAAAAAAAAAAAAAAAAAAAAAAAA8K1GncUp0qsI1KU4uMoTW8ZJ9GmvFHsTMTrDyYiY0lRvtK9hatSr3epuGlqqlBp1bnT0X70H1blb+a/3ff+bvuoq9bM29ExFnMnuq9fXx63K9t8lJiZyNnxu6af8A+fTw6lKrm2rWdxVoXFKdCvSk4VKVSLjKEk9mmn1TXkXeJiqNY4OYVUzTM01RpMPWevAAAAAAAAAAAmXgH2W9V8cbync0aUsPpmE9q+YuYPlkk9nGjH+sl0fd0Xi10ThdobVsYMaTvr6vXqWXZGwcnatXOiObb6ap+nXPl1y6W8L+FWnOEOl6OC03YxtbaPvVa0tnWuZ+M6k9vel+5LokkkjmWVl3cy5Ny7Os+Udzt+Bs/H2dZizj06R5zPXMtuNNIgAAAAAAAAAAAAAAAAAAAAAAAAAAAAAAAAAAAAAAAAAAAAAAAAAAAAAAAAAAAAAAAAAAAAAAEQ8aOy5ofjTSq3GRsvwZnnHaGYsEoVt9untF3VF3fa67LZNExg7VyMHdROtPVPD4dSu7T2Dh7TiarlPNr/2jj8ev4+MKM8WOxVxE4auvdWdktV4anvJXmKg5VYx850PtLzfLzJeZe8TbeLlaU1TzKuqfX/hyraHJfPwdaqI9pR108fjHHw170C1aU6NSdOpCUKkG4yjJbOLXemifidd8KjMTE6S8T0AAAAAA3rhtwO1vxYuo09NafuryhvtO9qR9lbU+u3WrLaPyTb6dEzQyc7HxI1vVxHZ0+CVwtlZm0J0x7czHXwjxncuhwV+j/wABpWpQyevLqnqbJQalHHW/NGypv9JtKVX5qMfBxZSs3lDdu60Y0c2Ovp+35vdN2XyQsY8xczZ59XVH7fWfKOyVr7Kyt8daUbW0oUrW1owVOlQowUIU4rooxiuiS8kVKqqapmqqdZdBpppopimmNIh7z5fQAAAAAAAAAAAAAAAAAAAAAAAAAAAAAAAAAAAAAAAAAAAAAAAAAAAAAAAAAAAAAAAAAAAAAAAAAANM13wZ0PxLhJam0zj8pVa2+szpcldLyVWG018pG7j5uRi/2a5j5eHBGZezMPOj/uLUVdvT4xv80D6s+jr0DlpSqYPLZfAVH/VucbmivgpJS/vk/Z5R5NG65TFXl+eCp5HIzBub7NdVHnHnv80aZn6NbO0ZP8E62x15H/8AeWVS3f8AdlUJOjlNbn99qY7p19EHd5EXo/tX4nviY9WBuPo4eIkam1DP6YqQ276lxcQe/wAFQf8AEzxylxemiry9WpVyKz9fduUeNX/8shZ/Rt6vnXirvVmEo0fGdGnWqSX7LjH+JjnlLY0923PkzU8icqZ967TEfGfpDedPfRrYO3nCWd1rkL+PRyhj7OFt8VzTdT79jRucprk/27cR3zr6JWzyIs0/3r0z3REfPVNGieyJwp0NUp1rbS1DJXcNmrnLTldPddz5J+4n6qKIS/tjNv7pr0js3ffzWfF5ObMxJiabUVT11b/Kd3kmCjRp29KFKlCNOlCKjGEFtGKXRJLwRDzMzOsrHEREaQ8zx6AAAAAAAAAAAAAAAAAAAAAAAAAAAAAAAAAAAAAAAAAAAAAAAAAAAAAAAAAAAAAAAAAAAAAAAAAAAAAAAAAAAAAAAAAAAAAAAAAAAAAAAAAAAAAAAAAAAAAAAAAAAAAAAAAAAAAAAAAAAAAAAAAAAAAAAAAAAAAAAAAAAAAAAAAAAAAAAAAAAAAAAAAAAAAAAAAAAAAAAAAAAAAAAAAAAAAAAAAAAAAAAAAAAAAAAAAAAAAAAAAAAAAAAAAAAAAAAAAAAAAAAAAAAAAAAAAAAAAAAAAAAAAAAAAAAAAAAAAAAAAAAAAAAAAAAAAAAAAAAAAAAAAAAAAAAAAAAAAAAAAAAAAAAAAAAAAAAAAAAAAAAAAAAAAAAAAAAAAAAAAAAAAAf//Z;" vertex="1" parent="GoqarWJMvIRxIr3ExFKV-95">
          <mxGeometry x="237" y="47.5" width="83.5" height="83.5" as="geometry" />
        </mxCell>
        <mxCell id="vUv-sD3Ehbde42g3vvmg-67" style="edgeStyle=orthogonalEdgeStyle;rounded=0;orthogonalLoop=1;jettySize=auto;html=1;fontSize=14;fontColor=#000000;startArrow=none;startFill=0;endArrow=classicThin;endFill=1;" parent="1" edge="1">
          <mxGeometry relative="1" as="geometry">
            <mxPoint x="1820" y="341.00000000000045" as="sourcePoint" />
            <mxPoint x="1608.002716763006" y="449" as="targetPoint" />
            <Array as="points">
              <mxPoint x="1820" y="449" />
            </Array>
          </mxGeometry>
        </mxCell>
        <mxCell id="vUv-sD3Ehbde42g3vvmg-68" style="edgeStyle=orthogonalEdgeStyle;rounded=0;orthogonalLoop=1;jettySize=auto;html=1;fontSize=14;fontColor=#000000;startArrow=none;startFill=0;endArrow=classicThin;endFill=1;" parent="1" source="GoqarWJMvIRxIr3ExFKV-98" target="GoqarWJMvIRxIr3ExFKV-87" edge="1">
          <mxGeometry relative="1" as="geometry">
            <Array as="points">
              <mxPoint x="1700" y="296" />
              <mxPoint x="1700" y="296" />
            </Array>
          </mxGeometry>
        </mxCell>
        <mxCell id="GoqarWJMvIRxIr3ExFKV-98" value="External System&lt;br&gt;&lt;b&gt;Grab, Now, Shopee&lt;/b&gt;" style="sketch=0;pointerEvents=1;shadow=0;dashed=0;html=1;strokeColor=none;labelPosition=center;verticalLabelPosition=bottom;verticalAlign=top;align=center;fillColor=#515151;shape=mxgraph.mscae.system_center.secondary_site;fontSize=14;" parent="1" vertex="1">
          <mxGeometry x="1770" y="239" width="100" height="112" as="geometry" />
        </mxCell>
        <mxCell id="vUv-sD3Ehbde42g3vvmg-16" style="edgeStyle=orthogonalEdgeStyle;rounded=0;orthogonalLoop=1;jettySize=auto;html=1;startArrow=none;startFill=0;" parent="1" edge="1">
          <mxGeometry relative="1" as="geometry">
            <mxPoint x="200" y="140" as="sourcePoint" />
            <mxPoint x="300" y="170" as="targetPoint" />
          </mxGeometry>
        </mxCell>
        <mxCell id="vUv-sD3Ehbde42g3vvmg-18" style="edgeStyle=orthogonalEdgeStyle;rounded=0;orthogonalLoop=1;jettySize=auto;html=1;startArrow=none;startFill=0;endArrow=none;endFill=0;" parent="1" edge="1">
          <mxGeometry relative="1" as="geometry">
            <mxPoint x="120" y="140" as="targetPoint" />
            <mxPoint x="-186" y="140" as="sourcePoint" />
          </mxGeometry>
        </mxCell>
        <mxCell id="vUv-sD3Ehbde42g3vvmg-20" value="&lt;font style=&quot;font-size: 14px&quot;&gt;Realtime Replication&lt;/font&gt;" style="edgeLabel;html=1;align=center;verticalAlign=middle;resizable=0;points=[];fontSize=16;" parent="vUv-sD3Ehbde42g3vvmg-18" vertex="1" connectable="0">
          <mxGeometry x="0.3856" y="-3" relative="1" as="geometry">
            <mxPoint x="-76" y="-6" as="offset" />
          </mxGeometry>
        </mxCell>
        <mxCell id="vUv-sD3Ehbde42g3vvmg-9" style="edgeStyle=orthogonalEdgeStyle;rounded=0;orthogonalLoop=1;jettySize=auto;html=1;" parent="1" source="vUv-sD3Ehbde42g3vvmg-2" edge="1">
          <mxGeometry relative="1" as="geometry">
            <mxPoint x="-268" y="140" as="targetPoint" />
          </mxGeometry>
        </mxCell>
        <mxCell id="vUv-sD3Ehbde42g3vvmg-12" style="edgeStyle=orthogonalEdgeStyle;rounded=0;orthogonalLoop=1;jettySize=auto;html=1;startArrow=classicThin;startFill=1;" parent="1" source="vUv-sD3Ehbde42g3vvmg-3" edge="1">
          <mxGeometry relative="1" as="geometry">
            <mxPoint x="-227" y="99" as="targetPoint" />
          </mxGeometry>
        </mxCell>
        <mxCell id="vUv-sD3Ehbde42g3vvmg-21" value="&lt;font style=&quot;font-size: 14px&quot; color=&quot;#ffffff&quot;&gt;&lt;b&gt;Mirror Maker 2&lt;/b&gt;&lt;/font&gt;" style="shape=doubleArrow;whiteSpace=wrap;html=1;fontSize=11;strokeWidth=2;fillColor=#3399FF;strokeColor=none;" parent="1" vertex="1">
          <mxGeometry x="-148" y="45.25" width="180" height="76.5" as="geometry" />
        </mxCell>
        <mxCell id="vUv-sD3Ehbde42g3vvmg-26" value="" style="edgeStyle=orthogonalEdgeStyle;rounded=0;orthogonalLoop=1;jettySize=auto;html=1;fontSize=14;fontColor=#FFFFFF;startArrow=none;startFill=0;endArrow=classicThin;endFill=1;" parent="1" source="GoqarWJMvIRxIr3ExFKV-73" target="GoqarWJMvIRxIr3ExFKV-77" edge="1">
          <mxGeometry relative="1" as="geometry" />
        </mxCell>
        <mxCell id="vUv-sD3Ehbde42g3vvmg-27" value="&lt;font color=&quot;#000000&quot;&gt;UNLOAD&lt;/font&gt;" style="edgeLabel;html=1;align=center;verticalAlign=middle;resizable=0;points=[];fontSize=14;fontColor=#FFFFFF;" parent="vUv-sD3Ehbde42g3vvmg-26" vertex="1" connectable="0">
          <mxGeometry x="-0.1548" y="3" relative="1" as="geometry">
            <mxPoint as="offset" />
          </mxGeometry>
        </mxCell>
        <mxCell id="GoqarWJMvIRxIr3ExFKV-73" value="AWS Redshift" style="sketch=0;points=[[0,0,0],[0.25,0,0],[0.5,0,0],[0.75,0,0],[1,0,0],[0,1,0],[0.25,1,0],[0.5,1,0],[0.75,1,0],[1,1,0],[0,0.25,0],[0,0.5,0],[0,0.75,0],[1,0.25,0],[1,0.5,0],[1,0.75,0]];outlineConnect=0;fontColor=#232F3E;gradientColor=#945DF2;gradientDirection=north;fillColor=#5A30B5;strokeColor=#ffffff;verticalLabelPosition=bottom;verticalAlign=top;align=center;html=1;fontSize=12;fontStyle=0;aspect=fixed;shape=mxgraph.aws4.resourceIcon;resIcon=mxgraph.aws4.redshift;" parent="1" vertex="1">
          <mxGeometry x="1139" y="256" width="78" height="78" as="geometry" />
        </mxCell>
        <mxCell id="vUv-sD3Ehbde42g3vvmg-23" value="" style="group" parent="1" vertex="1" connectable="0">
          <mxGeometry x="1332.72" y="55" width="350" height="130" as="geometry" />
        </mxCell>
        <mxCell id="uBfl3Qbho3t-iGsPBRep-3" value="" style="group" parent="vUv-sD3Ehbde42g3vvmg-23" vertex="1" connectable="0">
          <mxGeometry width="350" height="130" as="geometry" />
        </mxCell>
        <mxCell id="vUv-sD3Ehbde42g3vvmg-24" value="ML" style="fillColor=none;strokeColor=#5A6C86;dashed=1;verticalAlign=top;fontStyle=1;fontColor=#5A6C86;" parent="uBfl3Qbho3t-iGsPBRep-3" vertex="1">
          <mxGeometry x="70" width="280" height="130" as="geometry" />
        </mxCell>
        <mxCell id="vUv-sD3Ehbde42g3vvmg-28" value="AWS SageMaker" style="sketch=0;points=[[0,0,0],[0.25,0,0],[0.5,0,0],[0.75,0,0],[1,0,0],[0,1,0],[0.25,1,0],[0.5,1,0],[0.75,1,0],[1,1,0],[0,0.25,0],[0,0.5,0],[0,0.75,0],[1,0.25,0],[1,0.5,0],[1,0.75,0]];outlineConnect=0;fontColor=#232F3E;gradientColor=#4AB29A;gradientDirection=north;fillColor=#116D5B;strokeColor=#ffffff;dashed=0;verticalLabelPosition=bottom;verticalAlign=top;align=center;html=1;fontSize=12;fontStyle=0;aspect=fixed;shape=mxgraph.aws4.resourceIcon;resIcon=mxgraph.aws4.sagemaker;" parent="uBfl3Qbho3t-iGsPBRep-3" vertex="1">
          <mxGeometry x="109.00419847328243" y="27" width="78" height="78" as="geometry" />
        </mxCell>
        <mxCell id="uBfl3Qbho3t-iGsPBRep-2" value="AWS Personalize" style="sketch=0;points=[[0,0,0],[0.25,0,0],[0.5,0,0],[0.75,0,0],[1,0,0],[0,1,0],[0.25,1,0],[0.5,1,0],[0.75,1,0],[1,1,0],[0,0.25,0],[0,0.5,0],[0,0.75,0],[1,0.25,0],[1,0.5,0],[1,0.75,0]];outlineConnect=0;fontColor=#232F3E;gradientColor=#4AB29A;gradientDirection=north;fillColor=#116D5B;strokeColor=#ffffff;dashed=0;verticalLabelPosition=bottom;verticalAlign=top;align=center;html=1;fontSize=12;fontStyle=0;aspect=fixed;shape=mxgraph.aws4.resourceIcon;resIcon=mxgraph.aws4.personalize;" parent="uBfl3Qbho3t-iGsPBRep-3" vertex="1">
          <mxGeometry x="239" y="27" width="78" height="78" as="geometry" />
        </mxCell>
        <mxCell id="GoqarWJMvIRxIr3ExFKV-72" value="CONSUMTION" style="fillColor=none;strokeColor=#5A6C86;dashed=1;verticalAlign=top;fontStyle=1;fontColor=#5A6C86;fontSize=14;" parent="1" vertex="1">
          <mxGeometry x="1110" y="-10" width="600" height="535" as="geometry" />
        </mxCell>
        <mxCell id="tE3PKXoQsudhYKrV5WxO-3" value="" style="edgeStyle=orthogonalEdgeStyle;rounded=0;orthogonalLoop=1;jettySize=auto;html=1;" edge="1" parent="1" source="GoqarWJMvIRxIr3ExFKV-75" target="GoqarWJMvIRxIr3ExFKV-73">
          <mxGeometry relative="1" as="geometry" />
        </mxCell>
        <mxCell id="GoqarWJMvIRxIr3ExFKV-75" value="AWS Redshift&lt;br&gt;&lt;b&gt;Datamart&lt;/b&gt;" style="sketch=0;points=[[0,0,0],[0.25,0,0],[0.5,0,0],[0.75,0,0],[1,0,0],[0,1,0],[0.25,1,0],[0.5,1,0],[0.75,1,0],[1,1,0],[0,0.25,0],[0,0.5,0],[0,0.75,0],[1,0.25,0],[1,0.5,0],[1,0.75,0]];outlineConnect=0;fontColor=#232F3E;gradientColor=#945DF2;gradientDirection=north;fillColor=#5A30B5;strokeColor=#ffffff;dashed=0;verticalLabelPosition=bottom;verticalAlign=top;align=center;html=1;fontSize=12;fontStyle=0;aspect=fixed;shape=mxgraph.aws4.resourceIcon;resIcon=mxgraph.aws4.redshift;" parent="1" vertex="1">
          <mxGeometry x="1299.998323699422" y="256" width="78" height="78" as="geometry" />
        </mxCell>
        <mxCell id="GoqarWJMvIRxIr3ExFKV-88" value="" style="edgeStyle=orthogonalEdgeStyle;rounded=0;orthogonalLoop=1;jettySize=auto;html=1;fontSize=14;verticalAlign=middle;" parent="1" source="GoqarWJMvIRxIr3ExFKV-85" target="GoqarWJMvIRxIr3ExFKV-75" edge="1">
          <mxGeometry x="1128.7382080924856" y="56" as="geometry" />
        </mxCell>
        <mxCell id="GoqarWJMvIRxIr3ExFKV-85" value="Function A" style="sketch=0;outlineConnect=0;fontColor=#232F3E;gradientColor=none;fillColor=#FF9900;strokeColor=none;dashed=0;verticalLabelPosition=bottom;verticalAlign=top;align=center;html=1;fontSize=12;fontStyle=0;aspect=fixed;pointerEvents=1;shape=mxgraph.aws4.lambda_function;" parent="1" vertex="1">
          <mxGeometry x="1420.0041618497107" y="257.5" width="75" height="75" as="geometry" />
        </mxCell>
        <mxCell id="GoqarWJMvIRxIr3ExFKV-89" value="" style="edgeStyle=orthogonalEdgeStyle;rounded=0;orthogonalLoop=1;jettySize=auto;html=1;fontSize=14;verticalAlign=middle;" parent="1" source="GoqarWJMvIRxIr3ExFKV-87" target="GoqarWJMvIRxIr3ExFKV-85" edge="1">
          <mxGeometry x="1128.7382080924856" y="56" as="geometry" />
        </mxCell>
        <mxCell id="GoqarWJMvIRxIr3ExFKV-87" value="/api_A" style="sketch=0;outlineConnect=0;fontColor=#232F3E;gradientColor=none;fillColor=#FF4F8B;strokeColor=none;dashed=0;verticalLabelPosition=bottom;verticalAlign=top;align=center;html=1;fontSize=12;fontStyle=0;aspect=fixed;pointerEvents=1;shape=mxgraph.aws4.endpoint;" parent="1" vertex="1">
          <mxGeometry x="1530.0027167630055" y="256.5" width="78" height="78" as="geometry" />
        </mxCell>
        <mxCell id="vUv-sD3Ehbde42g3vvmg-29" value="Account A" style="sketch=0;outlineConnect=0;fontColor=#232F3E;gradientColor=none;fillColor=#FF4F8B;strokeColor=none;dashed=0;verticalLabelPosition=bottom;verticalAlign=top;align=center;html=1;fontSize=12;fontStyle=0;aspect=fixed;pointerEvents=1;shape=mxgraph.aws4.organizations_account;" parent="1" vertex="1">
          <mxGeometry x="1644.77" y="223" width="37.95" height="40" as="geometry" />
        </mxCell>
        <mxCell id="tE3PKXoQsudhYKrV5WxO-4" style="edgeStyle=orthogonalEdgeStyle;rounded=0;orthogonalLoop=1;jettySize=auto;html=1;" edge="1" parent="1" source="vUv-sD3Ehbde42g3vvmg-45" target="GoqarWJMvIRxIr3ExFKV-73">
          <mxGeometry relative="1" as="geometry">
            <Array as="points">
              <mxPoint x="1290" y="460" />
              <mxPoint x="1290" y="310" />
            </Array>
          </mxGeometry>
        </mxCell>
        <mxCell id="vUv-sD3Ehbde42g3vvmg-45" value="AWS Redshift&lt;br&gt;&lt;b&gt;Datamart&lt;/b&gt;" style="sketch=0;points=[[0,0,0],[0.25,0,0],[0.5,0,0],[0.75,0,0],[1,0,0],[0,1,0],[0.25,1,0],[0.5,1,0],[0.75,1,0],[1,1,0],[0,0.25,0],[0,0.5,0],[0,0.75,0],[1,0.25,0],[1,0.5,0],[1,0.75,0]];outlineConnect=0;fontColor=#232F3E;gradientColor=#945DF2;gradientDirection=north;fillColor=#5A30B5;strokeColor=#ffffff;dashed=0;verticalLabelPosition=bottom;verticalAlign=top;align=center;html=1;fontSize=12;fontStyle=0;aspect=fixed;shape=mxgraph.aws4.resourceIcon;resIcon=mxgraph.aws4.redshift;" parent="1" vertex="1">
          <mxGeometry x="1299.998323699422" y="411" width="78" height="78" as="geometry" />
        </mxCell>
        <mxCell id="vUv-sD3Ehbde42g3vvmg-46" value="" style="edgeStyle=orthogonalEdgeStyle;rounded=0;orthogonalLoop=1;jettySize=auto;html=1;fontSize=14;verticalAlign=middle;" parent="1" source="vUv-sD3Ehbde42g3vvmg-47" target="vUv-sD3Ehbde42g3vvmg-45" edge="1">
          <mxGeometry x="1128.7382080924856" y="209" as="geometry" />
        </mxCell>
        <mxCell id="vUv-sD3Ehbde42g3vvmg-47" value="Function B" style="sketch=0;outlineConnect=0;fontColor=#232F3E;gradientColor=none;fillColor=#FF9900;strokeColor=none;dashed=0;verticalLabelPosition=bottom;verticalAlign=top;align=center;html=1;fontSize=12;fontStyle=0;aspect=fixed;pointerEvents=1;shape=mxgraph.aws4.lambda_function;" parent="1" vertex="1">
          <mxGeometry x="1420.0041618497107" y="413" width="75" height="75" as="geometry" />
        </mxCell>
        <mxCell id="vUv-sD3Ehbde42g3vvmg-48" value="" style="edgeStyle=orthogonalEdgeStyle;rounded=0;orthogonalLoop=1;jettySize=auto;html=1;fontSize=14;verticalAlign=middle;" parent="1" source="vUv-sD3Ehbde42g3vvmg-49" target="vUv-sD3Ehbde42g3vvmg-47" edge="1">
          <mxGeometry x="1128.7382080924856" y="209" as="geometry" />
        </mxCell>
        <mxCell id="vUv-sD3Ehbde42g3vvmg-49" value="/api_B" style="sketch=0;outlineConnect=0;fontColor=#232F3E;gradientColor=none;fillColor=#FF4F8B;strokeColor=none;dashed=0;verticalLabelPosition=bottom;verticalAlign=top;align=center;html=1;fontSize=12;fontStyle=0;aspect=fixed;pointerEvents=1;shape=mxgraph.aws4.endpoint;" parent="1" vertex="1">
          <mxGeometry x="1530.0027167630055" y="411" width="78" height="78" as="geometry" />
        </mxCell>
        <mxCell id="vUv-sD3Ehbde42g3vvmg-50" value="Account B" style="sketch=0;outlineConnect=0;fontColor=#232F3E;gradientColor=none;fillColor=#FF4F8B;strokeColor=none;dashed=0;verticalLabelPosition=bottom;verticalAlign=top;align=center;html=1;fontSize=12;fontStyle=0;aspect=fixed;pointerEvents=1;shape=mxgraph.aws4.organizations_account;" parent="1" vertex="1">
          <mxGeometry x="1644.77" y="380" width="37.95" height="40" as="geometry" />
        </mxCell>
        <mxCell id="Mk3qLuvfPS574IzLtiQY-1" value="AWS MSK&lt;br&gt;&lt;b&gt;Managed Service for Kafka&lt;/b&gt;" style="sketch=0;points=[[0,0,0],[0.25,0,0],[0.5,0,0],[0.75,0,0],[1,0,0],[0,1,0],[0.25,1,0],[0.5,1,0],[0.75,1,0],[1,1,0],[0,0.25,0],[0,0.5,0],[0,0.75,0],[1,0.25,0],[1,0.5,0],[1,0.75,0]];outlineConnect=0;fontColor=#232F3E;gradientColor=#945DF2;gradientDirection=north;fillColor=#5A30B5;strokeColor=#ffffff;dashed=0;verticalLabelPosition=bottom;verticalAlign=top;align=center;html=1;fontSize=12;fontStyle=0;aspect=fixed;shape=mxgraph.aws4.resourceIcon;resIcon=mxgraph.aws4.managed_streaming_for_kafka;" parent="1" vertex="1">
          <mxGeometry x="124" y="102" width="78" height="78" as="geometry" />
        </mxCell>
        <mxCell id="uBfl3Qbho3t-iGsPBRep-1" value="" style="group" parent="1" vertex="1" connectable="0">
          <mxGeometry x="1243" y="55" width="130" height="130" as="geometry" />
        </mxCell>
        <mxCell id="GoqarWJMvIRxIr3ExFKV-11" value="BI" style="fillColor=none;strokeColor=#5A6C86;dashed=1;verticalAlign=top;fontStyle=1;fontColor=#5A6C86;" parent="uBfl3Qbho3t-iGsPBRep-1" vertex="1">
          <mxGeometry x="-6" width="130" height="130" as="geometry" />
        </mxCell>
        <mxCell id="GoqarWJMvIRxIr3ExFKV-12" value="AWS Quicksight" style="sketch=0;points=[[0,0,0],[0.25,0,0],[0.5,0,0],[0.75,0,0],[1,0,0],[0,1,0],[0.25,1,0],[0.5,1,0],[0.75,1,0],[1,1,0],[0,0.25,0],[0,0.5,0],[0,0.75,0],[1,0.25,0],[1,0.5,0],[1,0.75,0]];outlineConnect=0;fontColor=#232F3E;gradientColor=#945DF2;gradientDirection=north;fillColor=#5A30B5;strokeColor=#ffffff;dashed=0;verticalLabelPosition=bottom;verticalAlign=top;align=center;html=1;fontSize=12;fontStyle=0;aspect=fixed;shape=mxgraph.aws4.resourceIcon;resIcon=mxgraph.aws4.quicksight;" parent="uBfl3Qbho3t-iGsPBRep-1" vertex="1">
          <mxGeometry x="20" y="26" width="78" height="78" as="geometry" />
        </mxCell>
        <mxCell id="GoqarWJMvIRxIr3ExFKV-9" value="AWS KMS" style="sketch=0;points=[[0,0,0],[0.25,0,0],[0.5,0,0],[0.75,0,0],[1,0,0],[0,1,0],[0.25,1,0],[0.5,1,0],[0.75,1,0],[1,1,0],[0,0.25,0],[0,0.5,0],[0,0.75,0],[1,0.25,0],[1,0.5,0],[1,0.75,0]];outlineConnect=0;fontColor=#232F3E;gradientColor=#F54749;gradientDirection=north;fillColor=#C7131F;strokeColor=#ffffff;dashed=0;verticalLabelPosition=bottom;verticalAlign=top;align=center;html=1;fontSize=12;fontStyle=0;aspect=fixed;shape=mxgraph.aws4.resourceIcon;resIcon=mxgraph.aws4.key_management_service;" parent="1" vertex="1">
          <mxGeometry x="750" y="-300" width="78" height="78" as="geometry" />
        </mxCell>
        <mxCell id="GoqarWJMvIRxIr3ExFKV-10" value="AWS Secret Manager" style="sketch=0;points=[[0,0,0],[0.25,0,0],[0.5,0,0],[0.75,0,0],[1,0,0],[0,1,0],[0.25,1,0],[0.5,1,0],[0.75,1,0],[1,1,0],[0,0.25,0],[0,0.5,0],[0,0.75,0],[1,0.25,0],[1,0.5,0],[1,0.75,0]];outlineConnect=0;fontColor=#232F3E;gradientColor=#F54749;gradientDirection=north;fillColor=#C7131F;strokeColor=#ffffff;dashed=0;verticalLabelPosition=bottom;verticalAlign=top;align=center;html=1;fontSize=12;fontStyle=0;aspect=fixed;shape=mxgraph.aws4.resourceIcon;resIcon=mxgraph.aws4.secrets_manager;" parent="1" vertex="1">
          <mxGeometry x="1130" y="-310" width="78" height="78" as="geometry" />
        </mxCell>
      </root>
    </mxGraphModel>
  </diagram>
  <diagram id="uLFdxCOTf_MsP1jMTuKU" name="Page-2">
    <mxGraphModel dx="-278" dy="794" grid="1" gridSize="10" guides="1" tooltips="1" connect="1" arrows="1" fold="1" page="1" pageScale="1" pageWidth="850" pageHeight="1100" math="0" shadow="0">
      <root>
        <mxCell id="SLxtjmcEBY7fDmGJr6Ua-0" />
        <mxCell id="SLxtjmcEBY7fDmGJr6Ua-1" parent="SLxtjmcEBY7fDmGJr6Ua-0" />
        <mxCell id="4N8vnZFvOFJCg0jMtCue-6" style="edgeStyle=orthogonalEdgeStyle;rounded=0;orthogonalLoop=1;jettySize=auto;html=1;" parent="SLxtjmcEBY7fDmGJr6Ua-1" source="4N8vnZFvOFJCg0jMtCue-0" target="4N8vnZFvOFJCg0jMtCue-3" edge="1">
          <mxGeometry relative="1" as="geometry" />
        </mxCell>
        <mxCell id="4N8vnZFvOFJCg0jMtCue-7" style="edgeStyle=orthogonalEdgeStyle;rounded=0;orthogonalLoop=1;jettySize=auto;html=1;" parent="SLxtjmcEBY7fDmGJr6Ua-1" source="4N8vnZFvOFJCg0jMtCue-0" target="4N8vnZFvOFJCg0jMtCue-2" edge="1">
          <mxGeometry relative="1" as="geometry" />
        </mxCell>
        <mxCell id="4N8vnZFvOFJCg0jMtCue-0" value="External System&lt;br&gt;&lt;b&gt;Grab, Now, Shopee&lt;/b&gt;" style="sketch=0;pointerEvents=1;shadow=0;dashed=0;html=1;strokeColor=none;labelPosition=center;verticalLabelPosition=bottom;verticalAlign=top;align=center;fillColor=#515151;shape=mxgraph.mscae.system_center.secondary_site;fontSize=14;" parent="SLxtjmcEBY7fDmGJr6Ua-1" vertex="1">
          <mxGeometry x="1770" y="239" width="100" height="112" as="geometry" />
        </mxCell>
        <mxCell id="4N8vnZFvOFJCg0jMtCue-9" style="edgeStyle=orthogonalEdgeStyle;rounded=0;orthogonalLoop=1;jettySize=auto;html=1;" parent="SLxtjmcEBY7fDmGJr6Ua-1" source="4N8vnZFvOFJCg0jMtCue-1" target="4N8vnZFvOFJCg0jMtCue-5" edge="1">
          <mxGeometry relative="1" as="geometry" />
        </mxCell>
        <mxCell id="4N8vnZFvOFJCg0jMtCue-1" value="AWS Lambda" style="sketch=0;points=[[0,0,0],[0.25,0,0],[0.5,0,0],[0.75,0,0],[1,0,0],[0,1,0],[0.25,1,0],[0.5,1,0],[0.75,1,0],[1,1,0],[0,0.25,0],[0,0.5,0],[0,0.75,0],[1,0.25,0],[1,0.5,0],[1,0.75,0]];outlineConnect=0;fontColor=#232F3E;gradientColor=#F78E04;gradientDirection=north;fillColor=#D05C17;strokeColor=#ffffff;dashed=0;verticalLabelPosition=bottom;verticalAlign=top;align=center;html=1;fontSize=12;fontStyle=0;aspect=fixed;shape=mxgraph.aws4.resourceIcon;resIcon=mxgraph.aws4.lambda;" parent="SLxtjmcEBY7fDmGJr6Ua-1" vertex="1">
          <mxGeometry x="2150" y="256" width="78" height="78" as="geometry" />
        </mxCell>
        <mxCell id="4N8vnZFvOFJCg0jMtCue-8" style="edgeStyle=orthogonalEdgeStyle;rounded=0;orthogonalLoop=1;jettySize=auto;html=1;" parent="SLxtjmcEBY7fDmGJr6Ua-1" source="4N8vnZFvOFJCg0jMtCue-2" target="4N8vnZFvOFJCg0jMtCue-1" edge="1">
          <mxGeometry relative="1" as="geometry" />
        </mxCell>
        <mxCell id="4N8vnZFvOFJCg0jMtCue-2" value="AWS ApiGateway" style="sketch=0;points=[[0,0,0],[0.25,0,0],[0.5,0,0],[0.75,0,0],[1,0,0],[0,1,0],[0.25,1,0],[0.5,1,0],[0.75,1,0],[1,1,0],[0,0.25,0],[0,0.5,0],[0,0.75,0],[1,0.25,0],[1,0.5,0],[1,0.75,0]];outlineConnect=0;fontColor=#232F3E;gradientColor=#FF4F8B;gradientDirection=north;fillColor=#BC1356;strokeColor=#ffffff;dashed=0;verticalLabelPosition=bottom;verticalAlign=top;align=center;html=1;fontSize=12;fontStyle=0;aspect=fixed;shape=mxgraph.aws4.resourceIcon;resIcon=mxgraph.aws4.api_gateway;" parent="SLxtjmcEBY7fDmGJr6Ua-1" vertex="1">
          <mxGeometry x="1970" y="256" width="78" height="78" as="geometry" />
        </mxCell>
        <mxCell id="4N8vnZFvOFJCg0jMtCue-3" value="" style="sketch=0;points=[[0,0,0],[0.25,0,0],[0.5,0,0],[0.75,0,0],[1,0,0],[0,1,0],[0.25,1,0],[0.5,1,0],[0.75,1,0],[1,1,0],[0,0.25,0],[0,0.5,0],[0,0.75,0],[1,0.25,0],[1,0.5,0],[1,0.75,0]];outlineConnect=0;fontColor=#232F3E;gradientColor=#F54749;gradientDirection=north;fillColor=#C7131F;strokeColor=#ffffff;dashed=0;verticalLabelPosition=bottom;verticalAlign=top;align=center;html=1;fontSize=12;fontStyle=0;aspect=fixed;shape=mxgraph.aws4.resourceIcon;resIcon=mxgraph.aws4.cognito;" parent="SLxtjmcEBY7fDmGJr6Ua-1" vertex="1">
          <mxGeometry x="1781" y="40" width="78" height="78" as="geometry" />
        </mxCell>
        <mxCell id="4N8vnZFvOFJCg0jMtCue-5" value="AWS Redshift&lt;br&gt;&lt;b&gt;Data Mart&lt;/b&gt;" style="sketch=0;points=[[0,0,0],[0.25,0,0],[0.5,0,0],[0.75,0,0],[1,0,0],[0,1,0],[0.25,1,0],[0.5,1,0],[0.75,1,0],[1,1,0],[0,0.25,0],[0,0.5,0],[0,0.75,0],[1,0.25,0],[1,0.5,0],[1,0.75,0]];outlineConnect=0;fontColor=#232F3E;gradientColor=#945DF2;gradientDirection=north;fillColor=#5A30B5;strokeColor=#ffffff;dashed=0;verticalLabelPosition=bottom;verticalAlign=top;align=center;html=1;fontSize=12;fontStyle=0;aspect=fixed;shape=mxgraph.aws4.resourceIcon;resIcon=mxgraph.aws4.redshift;" parent="SLxtjmcEBY7fDmGJr6Ua-1" vertex="1">
          <mxGeometry x="2350" y="256" width="78" height="78" as="geometry" />
        </mxCell>
        <mxCell id="4N8vnZFvOFJCg0jMtCue-10" value="" style="shape=image;imageAspect=0;aspect=fixed;verticalLabelPosition=bottom;verticalAlign=top;image=data:image/png,iVBORw0KGgoAAAANSUhEUgAAAOEAAADhCAMAAAAJbSJIAAABC1BMVEX///+95u7o6enT7vTZAAC6AAD4AACbAADm5+fcAADQ7fP09PTt7eyYAADn8PDT5+xHdJK87PT3Hx/PiI1LdpRAcI97l6vsl5ecr71Yf5qUAADC6O/FwsnlAABvj6Xy+vyrucS6xc3d8vbn9vnOAADAAADz+vy7cnawAADRAACiAADN1Nm91t28sLa8t725CgudHx+JobLV2t68oKa8kZa7g4i7eX28mp+6T1K6MjS6PT+7W166Hh/FDw/VFRa2CQrEGxzMKCrlFhfUHB3qLS/5DxD1TU3xgYHgl5fzYGDp2dn1QECrh4zttrbRHx/Klpb40NDiRkb86urvpqbjY2PqjY37a2v7e3v6np459gwnAAAHOklEQVR4nO2cC3fSSBSAS1pKCMMalFAolUcINEDVBW1114Jt3W6ru3Xd1n38/1+yM5MASUhCkJnM0L3fOdomwWM+Z+69cyepOzsAAAAAAAAAAAAAAAAAAAAAAAAAAAAAAAAAAAAAAACAHPQ6prmrEXZ3zU5P9O2wpknkdhfgA7Mp+qbY0TN9dnPL3Y7oO2MD9gvRc0fSFH13DOhE+jmS2z6Ovd14QTJXRd/jRqwYQNdxi1NOdAQ+kpmaUHB7FRMLYsWtzKlrCG7nKEYkGc1l6byTbnrNDqG3BYu6XoigVs8sqNcDnyBLA891zZTcMl5vZuG5HnK5LnN0BudomB+ViL+ckXc5EBCMEnDHMeZyRtJxNP0DGCOAhzH+cqYuWiYULeEAJkPCStJhKiijImNB+YKxqTEWlG4UTeaCmYxcHVbSLLoWoqVcyKrS9AwhO8GMJtoNJ1C6G5q00K+P4FBshm0YMpyjBJF+nfD9JqZDKLJkRPgxjUKKIL/oDV/Gk1RUJDaj9yoYT1JBa/C4zRjWgrhbJJidNKt/nCDzSeohtb25KEG618R8kvqppxGVYYJanbNZmo7L+4W8xy0I55XcUhZN24/AdRiDggL8Mlw348zAAArxy3CcqU2OXcR68FoHyDBDXfiMYpPtfuFmcIlFeUaQwCGj9lY8U0kb9obeRCosi3pgH4reOSrajsK63eCw5bshrEtGR645SmA8iIk3tUuh8DBkXDE8kzRaLJM5ab988frN6dnZscvZ2emb1y9etk+cjzBV5GW4PIT4zk9evj1+91M2jg8/vz99fZRhqMm0Jnqq4ZLfydv3sWp+zo9fZBg5Mp2mi1QayDOl9rs19FyO2RgyzaadKMOj9f0IbBT5GPrDsHT6fYZHTAxZ1otIw2f9V6/W1Xs12TtiEoosU80iDv1/R+nZXn46uUgu+eFiMu3n82wMWW6hxhhi8nvW1JpM4kfz/Pzicnr1dH//Of4T8hn2Yg0d8vjX1LK6k0mXMJmcn19eXn6ZTj9+vLr65en19b6DnIbzih8sFh7DIPn9cCQ1jCj4Yg2ZLmpMGQ2ZdhfzciGTIdMXbuepJlgPRRqyFFwEokSGjLdqZtPUn0yFGrJ+ZrqR4a83Bwtub2/HT5IRu2PCei/KDEs1yQw/ff4hgJKYJ5GCzJ9ezHKNLxATGd6sIbSMmtYkDR/E0ml+peFvGwlGjyJzwXkkegex9Lu9l4+QnBnebWiohAvyeDjjplPNZ1g8tLu4HQrRnBlu6Kco4emGg+B8ntZ9hrlcsZgbZLvWXt7Fb3i96RCGT1NOj/OXIrF0ivUIRcJgYGez3a6F6WOeU6ZcDHk9Bu4F52npWd8uupJz0RmHlB+5GHISnPf69YUhnpRde0CNcqFwMeT4nltAkdZDEnpWN2vbg8AgUngYcn2nxq+4qPhukulbFtnCoDszdDPD+sLekPO7Xz1vQg1b08xSqptLnzI35P8Cn/P6Xj3KMFAPmRum8a5pk77mrQkxTOuHMDqa82OSqRum+OI3fV1fS9cwlVdoPZAfKdFSNBTyA/y9zm06hpq4/57oIAXDgig5yu3KDnjbDf+w+ys64K03PCza3b24DnjrDZ0O2M52rX6gBX4khreHiw44lxvYtAWmPbAV3gEjhJzfkfPd4gB5PrI4EG540Ldz3s5wVQeM2q3WUEEtSnuM3FP0SKFaSK1WGpWqimQxJI+4cWOYtANGDcOoImS4VMipintQHmIrNNTxt/jXEMliSCKO9IVZezAIaYCLQUOdGOrlso4tykYFYUN8VMYHuqEqiqqX9doIn9BlMnQSC00xTgfsvJtg0YD8GG5otJFSxYpDYqjjUy2DnCNfagiN6YFkhj7VyA7YZ1iolckBNSQH+vwAf4x8kdQwth76DNFI1yseKaOFEJZuIRqbo8dg2DL0hmNYKAzxxBwrStmZnipGtjj8HsM2DTqcaWqVmlEu41Nq2ROAj8OwTA1xXtX1Ea6BKk0+j8qQjqHeaFVruHyMES4WjiGSp+InNyQ3vRSHNTcOEUmfDTSbpeN2e7h1hsNhWw0YVg1PLsWVsKyQXOpcMRrblkvJem2I3JrgGlb0RT10Del1Wke2rloQnbZb7xxDpDrLmPksJUFJSmRhVhZlMLxLboinZGPYolUPG+qjVhUvPmt0JJ1MQxY4CimLrXFVp8VRBsOdr38mjUMVFwRDdxbbOv466yDm1cJokH+IETnt2MphuLNz/xAuGTREwwZpkark2xqlQbtANHKPnGmJWjX8sVpLlmrhcn/3cPPtKtTw2lMt1PHYaXPjmnzyMdXb5EthOOP+89eHh4OHh79uvn379Dfmn5t/lU2RyjAMMARDMBQPGIIhGIoHDMEQDMUDhmAIhuIBw1WoogVWUthUUbTAah77EO5sqCh9FFIK9Jnud6Ag0bcOAAAAAAAAAAAAAAAAAAAAAAAAAAAAAAAAAAAAAADwf+M/RAgR2EgjprcAAAAASUVORK5CYII=;" parent="SLxtjmcEBY7fDmGJr6Ua-1" vertex="1">
          <mxGeometry x="2250" y="300" width="80" height="80" as="geometry" />
        </mxCell>
        <mxCell id="DJd84sO-aPtNeawqRlUq-0" value="" style="shape=image;html=1;verticalAlign=top;verticalLabelPosition=bottom;labelBackgroundColor=#ffffff;imageAspect=0;aspect=fixed;image=https://cdn2.iconfinder.com/data/icons/integers/60/number-one-128.png" parent="SLxtjmcEBY7fDmGJr6Ua-1" vertex="1">
          <mxGeometry x="1830" y="160" width="40" height="40" as="geometry" />
        </mxCell>
        <mxCell id="DJd84sO-aPtNeawqRlUq-1" value="" style="shape=image;html=1;verticalAlign=top;verticalLabelPosition=bottom;labelBackgroundColor=#ffffff;imageAspect=0;aspect=fixed;image=https://cdn2.iconfinder.com/data/icons/integers/60/number-two-128.png" parent="SLxtjmcEBY7fDmGJr6Ua-1" vertex="1">
          <mxGeometry x="1900" y="247" width="40" height="40" as="geometry" />
        </mxCell>
        <mxCell id="DJd84sO-aPtNeawqRlUq-2" value="" style="shape=image;html=1;verticalAlign=top;verticalLabelPosition=bottom;labelBackgroundColor=#ffffff;imageAspect=0;aspect=fixed;image=https://cdn2.iconfinder.com/data/icons/integers/60/number-three-128.png" parent="SLxtjmcEBY7fDmGJr6Ua-1" vertex="1">
          <mxGeometry x="2080" y="247" width="40" height="40" as="geometry" />
        </mxCell>
        <mxCell id="DJd84sO-aPtNeawqRlUq-3" value="" style="shape=image;html=1;verticalAlign=top;verticalLabelPosition=bottom;labelBackgroundColor=#ffffff;imageAspect=0;aspect=fixed;image=https://cdn2.iconfinder.com/data/icons/integers/60/number-four-128.png" parent="SLxtjmcEBY7fDmGJr6Ua-1" vertex="1">
          <mxGeometry x="2280" y="246" width="40" height="40" as="geometry" />
        </mxCell>
      </root>
    </mxGraphModel>
  </diagram>
</mxfile>
